<ttFont>
    <TTGlyph name="A" xMin="26" yMin="-15" xMax="638" yMax="698">
      <contour>
        <pt x="549" y="366" on="1"/>
        <pt x="577" y="366" on="1"/>
        <pt x="594" y="366" on="0"/>
        <pt x="625" y="360" on="0"/>
        <pt x="625" y="341" on="1"/>
        <pt x="632" y="301" on="0"/>
        <pt x="578" y="302" on="1"/>
        <pt x="563" y="303" on="0"/>
        <pt x="538" y="305" on="0"/>
        <pt x="522" y="304" on="0"/>
        <pt x="523" y="299" on="1"/>
        <pt x="533" y="270" on="0"/>
        <pt x="556" y="198" on="0"/>
        <pt x="570" y="162" on="1"/>
        <pt x="606" y="73" on="0"/>
        <pt x="638" y="34" on="1"/>
        <pt x="621" y="13" on="0"/>
        <pt x="576" y="-15" on="0"/>
        <pt x="573" y="-15" on="0"/>
        <pt x="572" y="-14" on="1"/>
        <pt x="431" y="283" on="1"/>
        <pt x="158" y="216" on="1"/>
        <pt x="148" y="174" on="1"/>
        <pt x="119" y="59" on="0"/>
        <pt x="83" y="14" on="1"/>
        <pt x="77" y="4" on="0"/>
        <pt x="58" y="12" on="1"/>
        <pt x="26" y="24" on="0"/>
        <pt x="26" y="32" on="1"/>
        <pt x="26" y="34" on="0"/>
        <pt x="68" y="146" on="0"/>
        <pt x="111" y="261" on="0"/>
        <pt x="158" y="387" on="0"/>
        <pt x="200" y="501" on="0"/>
        <pt x="234" y="592" on="0"/>
        <pt x="248" y="633" on="0"/>
        <pt x="253" y="664" on="0"/>
        <pt x="258" y="675" on="1"/>
        <pt x="268" y="698" on="0"/>
        <pt x="308" y="698" on="1"/>
        <pt x="351" y="674" on="0"/>
        <pt x="398" y="597" on="0"/>
        <pt x="431" y="509" on="0"/>
        <pt x="463" y="419" on="0"/>
        <pt x="490" y="382" on="1"/>
        <pt x="499" y="368" on="0"/>
        <pt x="535" y="366" on="0"/>
      </contour>
      <contour>
        <pt x="299" y="582" on="1"/>
        <pt x="291" y="521" on="0"/>
        <pt x="235" y="393" on="0"/>
        <pt x="201" y="322" on="0"/>
        <pt x="189" y="292" on="1"/>
        <pt x="257" y="292" on="0"/>
        <pt x="356" y="332" on="1"/>
        <pt x="381" y="343" on="0"/>
        <pt x="404" y="352" on="1"/>
        <pt x="357" y="553" on="0"/>
      </contour>
    </TTGlyph>
    <TTGlyph name="AE" xMin="30" yMin="0" xMax="884" yMax="680">
      <contour>
        <pt x="731" y="559" on="1"/>
        <pt x="592" y="562" on="1"/>
        <pt x="523" y="562" on="0"/>
        <pt x="477" y="552" on="1"/>
        <pt x="458" y="464" on="0"/>
        <pt x="462" y="414" on="0"/>
        <pt x="463" y="398" on="1"/>
        <pt x="466" y="348" on="0"/>
        <pt x="466" y="306" on="1"/>
        <pt x="538" y="306" on="0"/>
        <pt x="599" y="314" on="1"/>
        <pt x="719" y="330" on="0"/>
        <pt x="783" y="330" on="1"/>
        <pt x="783" y="276" on="1"/>
        <pt x="474" y="238" on="1"/>
        <pt x="479" y="74" on="1"/>
        <pt x="594" y="74" on="0"/>
        <pt x="665" y="80" on="1"/>
        <pt x="794" y="91" on="0"/>
        <pt x="880" y="91" on="1"/>
        <pt x="884" y="89" on="0"/>
        <pt x="884" y="75" on="0"/>
        <pt x="877" y="66" on="1"/>
        <pt x="858" y="41" on="0"/>
        <pt x="825" y="34" on="1"/>
        <pt x="714" y="22" on="0"/>
        <pt x="494" y="8" on="0"/>
        <pt x="397" y="0" on="1"/>
        <pt x="397" y="3" on="1"/>
        <pt x="365" y="8" on="0"/>
        <pt x="363" y="10" on="1"/>
        <pt x="338" y="252" on="1"/>
        <pt x="162" y="226" on="1"/>
        <pt x="158" y="211" on="0"/>
        <pt x="145" y="158" on="0"/>
        <pt x="136" y="129" on="1"/>
        <pt x="114" y="58" on="0"/>
        <pt x="87" y="24" on="1"/>
        <pt x="81" y="16" on="0"/>
        <pt x="45" y="29" on="0"/>
        <pt x="30" y="39" on="0"/>
        <pt x="30" y="65" on="0"/>
        <pt x="50" y="142" on="0"/>
        <pt x="86" y="245" on="0"/>
        <pt x="131" y="360" on="0"/>
        <pt x="154" y="414" on="1"/>
        <pt x="208" y="541" on="0"/>
        <pt x="235" y="583" on="1"/>
        <pt x="256" y="629" on="0"/>
        <pt x="280" y="652" on="1"/>
        <pt x="309" y="680" on="0"/>
        <pt x="332" y="680" on="1"/>
        <pt x="378" y="680" on="0"/>
        <pt x="401" y="638" on="1"/>
        <pt x="433" y="630" on="0"/>
        <pt x="537" y="628" on="0"/>
        <pt x="593" y="628" on="1"/>
        <pt x="738" y="628" on="0"/>
        <pt x="780" y="612" on="1"/>
        <pt x="780" y="562" on="1"/>
        <pt x="758" y="559" on="0"/>
      </contour>
      <contour>
        <pt x="346" y="355" on="1"/>
        <pt x="350" y="482" on="1"/>
        <pt x="350" y="538" on="0"/>
        <pt x="342" y="586" on="1"/>
        <pt x="217" y="403" on="0"/>
        <pt x="193" y="302" on="1"/>
        <pt x="237" y="302" on="0"/>
        <pt x="265" y="308" on="1"/>
        <pt x="318" y="320" on="0"/>
        <pt x="349" y="321" on="1"/>
        <pt x="346" y="335" on="0"/>
      </contour>
    </TTGlyph>
    <TTGlyph name="AEacute" xMin="29" yMin="-6" xMax="883" yMax="727">
      <component glyphName="AE" x="-1" y="-6" flags="0x1204"/>
      <component glyphName="acute" x="319" y="233" scalex="0.845581054688" scaley="0.790954589844" flags="0x1004"/>
    </TTGlyph>
    <TTGlyph name="Aacute" xMin="26" yMin="-15" xMax="638" yMax="879">
      <component glyphName="A" x="0" y="0" flags="0x1204"/>
      <component glyphName="acute" x="181" y="255" flags="0x1004"/>
    </TTGlyph>
    <TTGlyph name="Abreve" xMin="33" yMin="-15" xMax="645" yMax="847">
      <component glyphName="A" x="7" y="0" flags="0x1204"/>
      <component glyphName="breve" x="138" y="273" flags="0x1004"/>
    </TTGlyph>
    <TTGlyph name="Acircumflex" xMin="26" yMin="-15" xMax="638" yMax="853">
      <component glyphName="A" x="0" y="0" flags="0x1204"/>
      <component glyphName="circumflex" x="140" y="166" flags="0x1004"/>
    </TTGlyph>
    <TTGlyph name="Adieresis" xMin="26" yMin="-15" xMax="638" yMax="815">
      <component glyphName="A" x="0" y="0" flags="0x1204"/>
      <component glyphName="dieresis" x="140" y="151" flags="0x1004"/>
    </TTGlyph>
    <TTGlyph name="Agrave" xMin="21" yMin="-20" xMax="633" yMax="867">
      <component glyphName="A" x="-5" y="-5" flags="0x1204"/>
      <component glyphName="grave" x="206" y="251" flags="0x1004"/>
    </TTGlyph>
    <TTGlyph name="Amacron" xMin="26" yMin="-15" xMax="638" yMax="797">
      <component glyphName="A" x="0" y="0" flags="0x1204"/>
      <component glyphName="macron" x="136" y="186" flags="0x1004"/>
    </TTGlyph>
    <TTGlyph name="Aogonek" xMin="26" yMin="-182" xMax="664" yMax="698">
      <component glyphName="A" x="0" y="0" flags="0x1204"/>
      <component glyphName="ogonek" x="446" y="3" flags="0x1004"/>
    </TTGlyph>
    <TTGlyph name="Aring" xMin="26" yMin="-15" xMax="638" yMax="835">
      <component glyphName="A" x="0" y="0" flags="0x1204"/>
      <component glyphName="ring" x="172" y="248" flags="0x1004"/>
    </TTGlyph>
    <TTGlyph name="Atilde" xMin="26" yMin="-15" xMax="638" yMax="885">
      <component glyphName="A" x="0" y="0" flags="0x1204"/>
      <component glyphName="tilde" x="106" y="231" flags="0x1004"/>
    </TTGlyph>
    <TTGlyph name="B" xMin="30" yMin="-7" xMax="708" yMax="680">
      <contour>
        <pt x="65" y="664" on="1"/>
        <pt x="139" y="680" on="0"/>
        <pt x="271" y="680" on="0"/>
        <pt x="374" y="670" on="0"/>
        <pt x="426" y="656" on="1"/>
        <pt x="536" y="625" on="0"/>
        <pt x="562" y="572" on="1"/>
        <pt x="569" y="561" on="0"/>
        <pt x="569" y="546" on="1"/>
        <pt x="569" y="502" on="0"/>
        <pt x="492" y="451" on="1"/>
        <pt x="441" y="417" on="0"/>
        <pt x="346" y="382" on="1"/>
        <pt x="579" y="369" on="0"/>
        <pt x="662" y="314" on="1"/>
        <pt x="708" y="285" on="0"/>
        <pt x="708" y="246" on="1"/>
        <pt x="708" y="192" on="0"/>
        <pt x="632" y="134" on="1"/>
        <pt x="549" y="72" on="0"/>
        <pt x="420" y="31" on="1"/>
        <pt x="301" y="-7" on="0"/>
        <pt x="199" y="-7" on="1"/>
        <pt x="121" y="-7" on="0"/>
        <pt x="65" y="16" on="1"/>
        <pt x="63" y="80" on="0"/>
        <pt x="60" y="148" on="1"/>
        <pt x="52" y="299" on="0"/>
        <pt x="52" y="506" on="0"/>
        <pt x="59" y="618" on="1"/>
        <pt x="48" y="618" on="0"/>
        <pt x="30" y="623" on="0"/>
        <pt x="30" y="640" on="1"/>
        <pt x="30" y="664" on="0"/>
      </contour>
      <contour>
        <pt x="155" y="66" on="1"/>
        <pt x="316" y="75" on="0"/>
        <pt x="522" y="134" on="0"/>
        <pt x="613" y="203" on="0"/>
        <pt x="613" y="235" on="1"/>
        <pt x="613" y="277" on="0"/>
        <pt x="553" y="302" on="1"/>
        <pt x="488" y="328" on="0"/>
        <pt x="273" y="328" on="0"/>
        <pt x="131" y="299" on="1"/>
      </contour>
      <contour>
        <pt x="248" y="615" on="1"/>
        <pt x="223" y="615" on="1"/>
        <pt x="141" y="615" on="0"/>
        <pt x="131" y="598" on="1"/>
        <pt x="121" y="397" on="1"/>
        <pt x="211" y="397" on="0"/>
        <pt x="340" y="440" on="1"/>
        <pt x="424" y="469" on="0"/>
        <pt x="463" y="504" on="1"/>
        <pt x="483" y="522" on="0"/>
        <pt x="483" y="560" on="0"/>
        <pt x="454" y="585" on="0"/>
        <pt x="409" y="601" on="0"/>
        <pt x="354" y="610" on="0"/>
        <pt x="328" y="612" on="1"/>
        <pt x="288" y="615" on="0"/>
      </contour>
    </TTGlyph>
    <TTGlyph name="C" xMin="22" yMin="-1" xMax="704" yMax="665">
      <contour>
        <pt x="522" y="555" on="1"/>
        <pt x="457" y="619" on="0"/>
        <pt x="378" y="619" on="1"/>
        <pt x="303" y="619" on="0"/>
        <pt x="234" y="562" on="1"/>
        <pt x="147" y="490" on="0"/>
        <pt x="114" y="376" on="1"/>
        <pt x="102" y="335" on="0"/>
        <pt x="102" y="281" on="0"/>
        <pt x="104" y="266" on="1"/>
        <pt x="104" y="167" on="0"/>
        <pt x="171" y="114" on="1"/>
        <pt x="234" y="65" on="0"/>
        <pt x="332" y="65" on="1"/>
        <pt x="466" y="76" on="0"/>
        <pt x="589" y="168" on="1"/>
        <pt x="623" y="194" on="0"/>
        <pt x="661" y="218" on="1"/>
        <pt x="675" y="218" on="0"/>
        <pt x="704" y="210" on="0"/>
        <pt x="704" y="191" on="1"/>
        <pt x="605" y="105" on="0"/>
        <pt x="537" y="67" on="1"/>
        <pt x="411" y="-1" on="0"/>
        <pt x="309" y="-1" on="1"/>
        <pt x="302" y="-1" on="0"/>
        <pt x="296" y="-1" on="1"/>
        <pt x="185" y="-1" on="0"/>
        <pt x="106" y="68" on="1"/>
        <pt x="22" y="141" on="0"/>
        <pt x="22" y="250" on="1"/>
        <pt x="22" y="332" on="0"/>
        <pt x="81" y="482" on="0"/>
        <pt x="184" y="597" on="0"/>
        <pt x="325" y="665" on="0"/>
        <pt x="406" y="665" on="1"/>
        <pt x="475" y="665" on="0"/>
        <pt x="496" y="646" on="1"/>
        <pt x="522" y="623" on="0"/>
      </contour>
    </TTGlyph>
    <TTGlyph name="Cacute" xMin="22" yMin="-1" xMax="704" yMax="821">
      <component glyphName="C" x="0" y="0" flags="0x1204"/>
      <component glyphName="acute" x="237" y="197" flags="0x1004"/>
    </TTGlyph>
    <TTGlyph name="Ccaron" xMin="22" yMin="-1" xMax="704" yMax="833">
      <component glyphName="C" x="0" y="0" flags="0x1204"/>
      <component glyphName="caron" x="179" y="259" flags="0x1004"/>
    </TTGlyph>
    <TTGlyph name="Ccedilla" xMin="22" yMin="-226" xMax="704" yMax="665">
      <component glyphName="C" x="0" y="0" flags="0x1204"/>
      <component glyphName="cedilla" x="221" y="7" flags="0x1004"/>
    </TTGlyph>
    <TTGlyph name="Ccircumflex" xMin="22" yMin="-1" xMax="704" yMax="905">
      <component glyphName="C" x="0" y="0" flags="0x1204"/>
      <component glyphName="circumflex" x="171" y="218" flags="0x1004"/>
    </TTGlyph>
    <TTGlyph name="Cdotaccent" xMin="22" yMin="-1" xMax="704" yMax="794">
      <component glyphName="C" x="0" y="0" flags="0x1204"/>
      <component glyphName="dotaccent" x="264" y="242" flags="0x1004"/>
    </TTGlyph>
    <TTGlyph name="D" xMin="38" yMin="6" xMax="639" yMax="640">
      <contour>
        <pt x="105" y="614" on="1"/>
        <pt x="179" y="640" on="0"/>
        <pt x="301" y="640" on="1"/>
        <pt x="524" y="640" on="0"/>
        <pt x="606" y="530" on="1"/>
        <pt x="638" y="488" on="0"/>
        <pt x="638" y="423" on="1"/>
        <pt x="639" y="414" on="0"/>
        <pt x="639" y="405" on="1"/>
        <pt x="639" y="305" on="0"/>
        <pt x="522" y="202" on="1"/>
        <pt x="415" y="105" on="0"/>
        <pt x="258" y="46" on="1"/>
        <pt x="154" y="6" on="0"/>
        <pt x="86" y="6" on="1"/>
        <pt x="58" y="6" on="0"/>
        <pt x="38" y="14" on="1"/>
        <pt x="38" y="638" on="1"/>
        <pt x="52" y="638" on="1"/>
        <pt x="75" y="638" on="0"/>
        <pt x="103" y="623" on="0"/>
      </contour>
      <contour>
        <pt x="571" y="415" on="1"/>
        <pt x="562" y="504" on="0"/>
        <pt x="472" y="547" on="1"/>
        <pt x="405" y="579" on="0"/>
        <pt x="304" y="579" on="1"/>
        <pt x="286" y="578" on="1"/>
        <pt x="191" y="576" on="0"/>
        <pt x="122" y="548" on="1"/>
        <pt x="122" y="71" on="1"/>
        <pt x="192" y="71" on="0"/>
        <pt x="297" y="122" on="1"/>
        <pt x="479" y="212" on="0"/>
        <pt x="547" y="331" on="1"/>
        <pt x="571" y="373" on="0"/>
      </contour>
    </TTGlyph>
    <TTGlyph name="Dcaron" xMin="38" yMin="6" xMax="639" yMax="809">
      <component glyphName="D" x="0" y="0" flags="0x1204"/>
      <component glyphName="caron" x="146" y="235" flags="0x1004"/>
    </TTGlyph>
    <TTGlyph name="E" xMin="30" yMin="0" xMax="586" yMax="638">
      <contour>
        <pt x="353" y="635" on="1"/>
        <pt x="453" y="635" on="0"/>
        <pt x="486" y="622" on="1"/>
        <pt x="486" y="573" on="1"/>
        <pt x="459" y="569" on="0"/>
        <pt x="365" y="568" on="0"/>
        <pt x="312" y="567" on="1"/>
        <pt x="164" y="564" on="0"/>
        <pt x="110" y="552" on="1"/>
        <pt x="93" y="472" on="0"/>
        <pt x="95" y="414" on="0"/>
        <pt x="96" y="398" on="1"/>
        <pt x="100" y="359" on="0"/>
        <pt x="100" y="306" on="1"/>
        <pt x="168" y="306" on="0"/>
        <pt x="343" y="330" on="0"/>
        <pt x="439" y="341" on="0"/>
        <pt x="490" y="341" on="1"/>
        <pt x="490" y="286" on="1"/>
        <pt x="107" y="238" on="1"/>
        <pt x="113" y="74" on="1"/>
        <pt x="212" y="74" on="0"/>
        <pt x="419" y="93" on="0"/>
        <pt x="526" y="102" on="0"/>
        <pt x="586" y="102" on="1"/>
        <pt x="586" y="82" on="0"/>
        <pt x="574" y="64" on="1"/>
        <pt x="550" y="32" on="0"/>
        <pt x="531" y="45" on="1"/>
        <pt x="355" y="26" on="0"/>
        <pt x="78" y="4" on="0"/>
        <pt x="30" y="0" on="1"/>
        <pt x="34" y="638" on="1"/>
        <pt x="60" y="630" on="0"/>
        <pt x="130" y="630" on="1"/>
      </contour>
    </TTGlyph>
    <TTGlyph name="Eacute" xMin="30" yMin="0" xMax="586" yMax="807">
      <component glyphName="E" x="0" y="0" flags="0x1204"/>
      <component glyphName="acute" x="187" y="183" flags="0x1004"/>
    </TTGlyph>
    <TTGlyph name="Ebreve" xMin="30" yMin="0" xMax="586" yMax="774">
      <component glyphName="E" x="0" y="0" flags="0x1204"/>
      <component glyphName="breve" x="174" y="200" flags="0x1004"/>
    </TTGlyph>
    <TTGlyph name="Ecaron" xMin="30" yMin="0" xMax="586" yMax="801">
      <component glyphName="E" x="0" y="0" flags="0x1204"/>
      <component glyphName="caron" x="144" y="227" flags="0x1004"/>
    </TTGlyph>
    <TTGlyph name="Ecircumflex" xMin="30" yMin="0" xMax="586" yMax="853">
      <component glyphName="E" x="0" y="0" flags="0x1204"/>
      <component glyphName="circumflex" x="125" y="166" flags="0x1004"/>
    </TTGlyph>
    <TTGlyph name="Edieresis" xMin="30" yMin="0" xMax="586" yMax="740">
      <component glyphName="E" x="0" y="0" flags="0x1204"/>
      <component glyphName="dieresis" x="100" y="76" flags="0x1004"/>
    </TTGlyph>
    <TTGlyph name="Edotaccent" xMin="30" yMin="0" xMax="586" yMax="756">
      <component glyphName="E" x="0" y="0" flags="0x1204"/>
      <component glyphName="dotaccent" x="194" y="204" flags="0x1004"/>
    </TTGlyph>
    <TTGlyph name="Egrave" xMin="30" yMin="0" xMax="586" yMax="796">
      <component glyphName="E" x="0" y="0" flags="0x1204"/>
      <component glyphName="grave" x="140" y="180" flags="0x1004"/>
    </TTGlyph>
    <TTGlyph name="Emacron" xMin="30" yMin="0" xMax="586" yMax="739">
      <component glyphName="E" x="0" y="0" flags="0x1204"/>
      <component glyphName="macron" x="110" y="128" flags="0x1004"/>
    </TTGlyph>
    <TTGlyph name="Eogonek" xMin="30" yMin="-144" xMax="586" yMax="638">
      <component glyphName="E" x="0" y="0" flags="0x1204"/>
      <component glyphName="ogonek" x="352" y="41" flags="0x1004"/>
    </TTGlyph>
    <TTGlyph name="Eth" xMin="10" yMin="7" xMax="674" yMax="640">
      <contour>
        <pt x="60" y="194" on="1"/>
        <pt x="10" y="194" on="0"/>
        <pt x="10" y="219" on="1"/>
        <pt x="10" y="233" on="0"/>
        <pt x="33" y="243" on="0"/>
        <pt x="52" y="246" on="0"/>
        <pt x="65" y="247" on="0"/>
        <pt x="73" y="249" on="1"/>
        <pt x="73" y="638" on="1"/>
        <pt x="86" y="638" on="1"/>
        <pt x="110" y="638" on="0"/>
        <pt x="137" y="623" on="0"/>
        <pt x="139" y="614" on="1"/>
        <pt x="213" y="640" on="0"/>
        <pt x="335" y="640" on="1"/>
        <pt x="559" y="640" on="0"/>
        <pt x="642" y="530" on="1"/>
        <pt x="673" y="488" on="0"/>
        <pt x="673" y="423" on="1"/>
        <pt x="674" y="415" on="0"/>
        <pt x="674" y="371" on="0"/>
        <pt x="641" y="293" on="0"/>
        <pt x="574" y="213" on="0"/>
        <pt x="482" y="142" on="0"/>
        <pt x="380" y="82" on="0"/>
        <pt x="328" y="60" on="1"/>
        <pt x="206" y="7" on="0"/>
        <pt x="119" y="7" on="1"/>
        <pt x="92" y="7" on="0"/>
        <pt x="73" y="14" on="1"/>
        <pt x="73" y="194" on="1"/>
      </contour>
      <contour>
        <pt x="157" y="548" on="1"/>
        <pt x="157" y="262" on="1"/>
        <pt x="190" y="268" on="0"/>
        <pt x="225" y="271" on="1"/>
        <pt x="267" y="271" on="0"/>
        <pt x="278" y="248" on="1"/>
        <pt x="282" y="239" on="0"/>
        <pt x="270" y="220" on="0"/>
        <pt x="252" y="214" on="1"/>
        <pt x="157" y="203" on="1"/>
        <pt x="157" y="71" on="1"/>
        <pt x="227" y="71" on="0"/>
        <pt x="332" y="122" on="1"/>
        <pt x="514" y="212" on="0"/>
        <pt x="582" y="331" on="1"/>
        <pt x="606" y="373" on="0"/>
        <pt x="606" y="415" on="1"/>
        <pt x="595" y="505" on="0"/>
        <pt x="506" y="547" on="1"/>
        <pt x="439" y="579" on="0"/>
        <pt x="231" y="579" on="0"/>
      </contour>
    </TTGlyph>
    <TTGlyph name="Euro" xMin="29" yMin="-2" xMax="777" yMax="665">
      <contour>
        <pt x="59" y="175" on="1"/>
        <pt x="35" y="175" on="0"/>
        <pt x="35" y="210" on="1"/>
        <pt x="35" y="213" on="0"/>
        <pt x="48" y="226" on="0"/>
        <pt x="52" y="226" on="1"/>
        <pt x="93" y="233" on="0"/>
        <pt x="111" y="236" on="1"/>
        <pt x="111" y="250" on="1"/>
        <pt x="111" y="280" on="0"/>
        <pt x="115" y="310" on="1"/>
        <pt x="78" y="306" on="1"/>
        <pt x="73" y="306" on="0"/>
        <pt x="58" y="305" on="0"/>
        <pt x="50" y="306" on="1"/>
        <pt x="31" y="309" on="0"/>
        <pt x="29" y="323" on="1"/>
        <pt x="49" y="359" on="1"/>
        <pt x="51" y="361" on="0"/>
        <pt x="95" y="366" on="0"/>
        <pt x="128" y="370" on="1"/>
        <pt x="165" y="498" on="0"/>
        <pt x="264" y="580" on="1"/>
        <pt x="366" y="665" on="0"/>
        <pt x="495" y="665" on="1"/>
        <pt x="564" y="665" on="0"/>
        <pt x="586" y="646" on="1"/>
        <pt x="611" y="623" on="0"/>
        <pt x="611" y="555" on="1"/>
        <pt x="542" y="594" on="0"/>
        <pt x="409" y="594" on="0"/>
        <pt x="299" y="538" on="0"/>
        <pt x="220" y="439" on="0"/>
        <pt x="205" y="378" on="1"/>
        <pt x="243" y="383" on="0"/>
        <pt x="320" y="392" on="0"/>
        <pt x="352" y="397" on="1"/>
        <pt x="368" y="402" on="0"/>
        <pt x="385" y="392" on="0"/>
        <pt x="388" y="373" on="0"/>
        <pt x="379" y="351" on="0"/>
        <pt x="370" y="345" on="1"/>
        <pt x="194" y="321" on="1"/>
        <pt x="192" y="307" on="0"/>
        <pt x="192" y="279" on="0"/>
        <pt x="194" y="266" on="1"/>
        <pt x="194" y="246" on="1"/>
        <pt x="216" y="249" on="0"/>
        <pt x="258" y="253" on="0"/>
        <pt x="281" y="256" on="1"/>
        <pt x="331" y="263" on="0"/>
        <pt x="390" y="275" on="1"/>
        <pt x="424" y="275" on="0"/>
        <pt x="424" y="241" on="1"/>
        <pt x="424" y="233" on="0"/>
        <pt x="422" y="225" on="1"/>
        <pt x="342" y="225" on="0"/>
        <pt x="254" y="203" on="1"/>
        <pt x="230" y="197" on="0"/>
        <pt x="206" y="192" on="1"/>
        <pt x="229" y="127" on="0"/>
        <pt x="346" y="65" on="0"/>
        <pt x="422" y="65" on="1"/>
        <pt x="560" y="77" on="0"/>
        <pt x="597" y="86" on="1"/>
        <pt x="663" y="102" on="0"/>
        <pt x="734" y="147" on="1"/>
        <pt x="748" y="147" on="0"/>
        <pt x="777" y="140" on="0"/>
        <pt x="777" y="121" on="1"/>
        <pt x="697" y="50" on="0"/>
        <pt x="517" y="-2" on="0"/>
        <pt x="416" y="-2" on="1"/>
        <pt x="401" y="-2" on="0"/>
        <pt x="342" y="-1" on="0"/>
        <pt x="258" y="24" on="0"/>
        <pt x="222" y="48" on="1"/>
        <pt x="148" y="97" on="0"/>
        <pt x="122" y="178" on="1"/>
        <pt x="92" y="175" on="0"/>
      </contour>
    </TTGlyph>
    <TTGlyph name="F" xMin="38" yMin="-8" xMax="699" yMax="634">
      <contour>
        <pt x="94" y="166" on="1"/>
        <pt x="38" y="174" on="0"/>
        <pt x="38" y="192" on="1"/>
        <pt x="38" y="205" on="0"/>
        <pt x="76" y="239" on="0"/>
        <pt x="95" y="257" on="1"/>
        <pt x="95" y="317" on="0"/>
        <pt x="59" y="466" on="0"/>
        <pt x="43" y="548" on="0"/>
        <pt x="43" y="616" on="0"/>
        <pt x="64" y="634" on="0"/>
        <pt x="104" y="634" on="0"/>
        <pt x="116" y="623" on="0"/>
        <pt x="120" y="607" on="0"/>
        <pt x="121" y="589" on="0"/>
        <pt x="124" y="581" on="1"/>
        <pt x="129" y="562" on="0"/>
        <pt x="155" y="562" on="1"/>
        <pt x="222" y="563" on="0"/>
        <pt x="356" y="584" on="0"/>
        <pt x="422" y="595" on="1"/>
        <pt x="554" y="617" on="0"/>
        <pt x="661" y="617" on="0"/>
        <pt x="692" y="614" on="1"/>
        <pt x="693" y="595" on="0"/>
        <pt x="699" y="567" on="0"/>
        <pt x="699" y="558" on="1"/>
        <pt x="699" y="541" on="0"/>
        <pt x="666" y="546" on="1"/>
        <pt x="143" y="527" on="0"/>
        <pt x="143" y="468" on="1"/>
        <pt x="143" y="403" on="0"/>
        <pt x="161" y="310" on="0"/>
        <pt x="170" y="286" on="0"/>
        <pt x="176" y="286" on="1"/>
        <pt x="233" y="286" on="0"/>
        <pt x="350" y="306" on="0"/>
        <pt x="467" y="329" on="0"/>
        <pt x="585" y="349" on="0"/>
        <pt x="642" y="349" on="1"/>
        <pt x="643" y="349" on="0"/>
        <pt x="643" y="334" on="0"/>
        <pt x="642" y="325" on="1"/>
        <pt x="639" y="301" on="0"/>
        <pt x="642" y="301" on="1"/>
        <pt x="599" y="277" on="0"/>
        <pt x="486" y="262" on="1"/>
        <pt x="437" y="255" on="0"/>
        <pt x="335" y="243" on="0"/>
        <pt x="292" y="236" on="1"/>
        <pt x="193" y="222" on="0"/>
        <pt x="177" y="199" on="1"/>
        <pt x="166" y="3" on="1"/>
        <pt x="155" y="-8" on="0"/>
        <pt x="141" y="-8" on="1"/>
        <pt x="104" y="-5" on="1"/>
        <pt x="99" y="-5" on="0"/>
        <pt x="94" y="-5" on="1"/>
      </contour>
    </TTGlyph>
    <TTGlyph name="G" xMin="22" yMin="-64" xMax="686" yMax="652">
      <contour>
        <pt x="496" y="-49" on="1"/>
        <pt x="496" y="134" on="1"/>
        <pt x="401" y="69" on="0"/>
        <pt x="364" y="48" on="1"/>
        <pt x="278" y="1" on="0"/>
        <pt x="213" y="1" on="1"/>
        <pt x="135" y="1" on="0"/>
        <pt x="79" y="58" on="1"/>
        <pt x="22" y="117" on="0"/>
        <pt x="22" y="193" on="1"/>
        <pt x="27" y="273" on="0"/>
        <pt x="56" y="355" on="1"/>
        <pt x="116" y="529" on="0"/>
        <pt x="255" y="610" on="1"/>
        <pt x="324" y="651" on="0"/>
        <pt x="414" y="651" on="1"/>
        <pt x="416" y="651" on="0"/>
        <pt x="418" y="651" on="1"/>
        <pt x="445" y="652" on="1"/>
        <pt x="491" y="652" on="0"/>
        <pt x="487" y="616" on="1"/>
        <pt x="407" y="612" on="0"/>
        <pt x="267" y="546" on="0"/>
        <pt x="164" y="435" on="0"/>
        <pt x="105" y="287" on="0"/>
        <pt x="105" y="133" on="0"/>
        <pt x="185" y="65" on="0"/>
        <pt x="248" y="65" on="1"/>
        <pt x="302" y="65" on="0"/>
        <pt x="398" y="112" on="1"/>
        <pt x="459" y="142" on="0"/>
        <pt x="489" y="180" on="1"/>
        <pt x="504" y="198" on="0"/>
        <pt x="504" y="218" on="1"/>
        <pt x="504" y="366" on="1"/>
        <pt x="474" y="366" on="0"/>
        <pt x="255" y="320" on="0"/>
        <pt x="238" y="317" on="1"/>
        <pt x="233" y="320" on="0"/>
        <pt x="219" y="327" on="0"/>
        <pt x="218" y="334" on="1"/>
        <pt x="216" y="349" on="0"/>
        <pt x="262" y="380" on="1"/>
        <pt x="273" y="386" on="0"/>
        <pt x="515" y="421" on="0"/>
        <pt x="581" y="431" on="0"/>
        <pt x="603" y="434" on="1"/>
        <pt x="613" y="432" on="0"/>
        <pt x="643" y="437" on="0"/>
        <pt x="656" y="436" on="1"/>
        <pt x="688" y="435" on="0"/>
        <pt x="686" y="401" on="1"/>
        <pt x="603" y="367" on="1"/>
        <pt x="584" y="306" on="0"/>
        <pt x="584" y="137" on="1"/>
        <pt x="586" y="-12" on="1"/>
        <pt x="586" y="-32" on="0"/>
        <pt x="586" y="-49" on="1"/>
        <pt x="556" y="-64" on="0"/>
        <pt x="500" y="-64" on="0"/>
      </contour>
    </TTGlyph>
    <TTGlyph name="Gbreve" xMin="22" yMin="-64" xMax="686" yMax="784">
      <component glyphName="G" x="0" y="0" flags="0x1204"/>
      <component glyphName="breve" x="216" y="210" flags="0x1004"/>
    </TTGlyph>
    <TTGlyph name="Gcircumflex" xMin="22" yMin="-64" xMax="686" yMax="884">
      <component glyphName="G" x="0" y="0" flags="0x1204"/>
      <component glyphName="circumflex" x="201" y="197" flags="0x1004"/>
    </TTGlyph>
    <TTGlyph name="Gcommaaccent" xMin="22" yMin="-251" xMax="686" yMax="652">
      <component glyphName="G" x="0" y="0" flags="0x1204"/>
      <component glyphName="commaaccent" x="158" y="0" flags="0x1004"/>
    </TTGlyph>
    <TTGlyph name="Gdotaccent" xMin="22" yMin="-64" xMax="686" yMax="773">
      <component glyphName="G" x="0" y="0" flags="0x1204"/>
      <component glyphName="dotaccent" x="231" y="221" flags="0x1004"/>
    </TTGlyph>
    <TTGlyph name="H" xMin="21" yMin="-6" xMax="586" yMax="731">
      <contour>
        <pt x="155" y="282" on="1"/>
        <pt x="152" y="248" on="0"/>
        <pt x="152" y="123" on="0"/>
        <pt x="171" y="34" on="1"/>
        <pt x="92" y="-6" on="1"/>
        <pt x="56" y="266" on="1"/>
        <pt x="21" y="271" on="0"/>
        <pt x="21" y="290" on="1"/>
        <pt x="21" y="304" on="0"/>
        <pt x="54" y="342" on="0"/>
        <pt x="70" y="367" on="0"/>
        <pt x="73" y="398" on="0"/>
        <pt x="79" y="478" on="0"/>
        <pt x="84" y="568" on="0"/>
        <pt x="89" y="648" on="0"/>
        <pt x="89" y="664" on="1"/>
        <pt x="111" y="686" on="0"/>
        <pt x="121" y="691" on="1"/>
        <pt x="146" y="704" on="0"/>
        <pt x="155" y="681" on="1"/>
        <pt x="149" y="366" on="1"/>
        <pt x="396" y="366" on="0"/>
        <pt x="446" y="398" on="1"/>
        <pt x="446" y="714" on="1"/>
        <pt x="452" y="731" on="0"/>
        <pt x="502" y="731" on="1"/>
        <pt x="513" y="731" on="0"/>
        <pt x="520" y="730" on="1"/>
        <pt x="520" y="711" on="0"/>
        <pt x="523" y="634" on="0"/>
        <pt x="526" y="536" on="0"/>
        <pt x="530" y="427" on="0"/>
        <pt x="532" y="378" on="1"/>
        <pt x="535" y="276" on="0"/>
        <pt x="537" y="228" on="1"/>
        <pt x="544" y="108" on="0"/>
        <pt x="586" y="34" on="1"/>
        <pt x="541" y="16" on="0"/>
        <pt x="487" y="16" on="1"/>
        <pt x="441" y="130" on="0"/>
        <pt x="438" y="315" on="1"/>
        <pt x="372" y="317" on="0"/>
        <pt x="324" y="317" on="0"/>
        <pt x="294" y="314" on="1"/>
        <pt x="232" y="310" on="0"/>
      </contour>
    </TTGlyph>
    <TTGlyph name="Hbar" xMin="21" yMin="-6" xMax="586" yMax="731">
      <component glyphName="H" x="0" y="0" flags="0x1204"/>
      <component glyphName="macron" x="-20" y="-81" scalex="1.98626708984" scaley="1.11334228516" flags="0x1004"/>
    </TTGlyph>
    <TTGlyph name="Hcircumflex" xMin="21" yMin="-6" xMax="586" yMax="973">
      <component glyphName="H" x="0" y="0" flags="0x1204"/>
      <component glyphName="circumflex" x="111" y="286" flags="0x1004"/>
    </TTGlyph>
    <TTGlyph name="I" xMin="26" yMin="-1" xMax="105" yMax="582">
      <contour>
        <pt x="105" y="16" on="1"/>
        <pt x="105" y="-1" on="0"/>
        <pt x="81" y="-1" on="1"/>
        <pt x="63" y="-1" on="0"/>
        <pt x="38" y="16" on="1"/>
        <pt x="26" y="43" on="0"/>
        <pt x="26" y="247" on="0"/>
        <pt x="30" y="380" on="0"/>
        <pt x="32" y="436" on="1"/>
        <pt x="38" y="558" on="0"/>
        <pt x="38" y="565" on="1"/>
        <pt x="67" y="582" on="0"/>
        <pt x="105" y="582" on="0"/>
        <pt x="105" y="565" on="1"/>
      </contour>
    </TTGlyph>
    <TTGlyph name="Iacute" xMin="12" yMin="-1" xMax="130" yMax="730">
      <component glyphName="I" x="0" y="0" flags="0x1204"/>
      <component glyphName="acute" x="-13" y="106" flags="0x1004"/>
    </TTGlyph>
    <TTGlyph name="Ibreve" xMin="-33" yMin="-1" xMax="160" yMax="722">
      <component glyphName="I" x="0" y="0" flags="0x1204"/>
      <component glyphName="breve" x="-64" y="148" flags="0x1004"/>
    </TTGlyph>
    <TTGlyph name="Icircumflex" xMin="-57" yMin="-1" xMax="225" yMax="787">
      <component glyphName="I" x="0" y="0" flags="0x1204"/>
      <component glyphName="circumflex" x="-75" y="100" flags="0x1004"/>
    </TTGlyph>
    <TTGlyph name="Idieresis" xMin="-47" yMin="-1" xMax="184" yMax="695">
      <component glyphName="I" x="0" y="0" flags="0x1204"/>
      <component glyphName="dieresis" x="-113" y="31" flags="0x1004"/>
    </TTGlyph>
    <TTGlyph name="Idotaccent" xMin="26" yMin="-1" xMax="121" yMax="708">
      <component glyphName="I" x="0" y="0" flags="0x1204"/>
      <component glyphName="dotaccent" x="0" y="156" flags="0x1004"/>
    </TTGlyph>
    <TTGlyph name="Igrave" xMin="8" yMin="-1" xMax="112" yMax="761">
      <component glyphName="I" x="0" y="0" flags="0x1204"/>
      <component glyphName="grave" x="-39" y="145" flags="0x1004"/>
    </TTGlyph>
    <TTGlyph name="Imacron" xMin="-63" yMin="-1" xMax="206" yMax="746">
      <component glyphName="I" x="0" y="0" flags="0x1204"/>
      <component glyphName="macron" x="-93" y="135" flags="0x1004"/>
    </TTGlyph>
    <TTGlyph name="Iogonek" xMin="-43" yMin="-179" xMax="137" yMax="582">
      <component glyphName="I" x="0" y="0" flags="0x1204"/>
      <component glyphName="ogonek" x="-81" y="6" flags="0x1004"/>
    </TTGlyph>
    <TTGlyph name="Itilde" xMin="-109" yMin="-1" xMax="287" yMax="778">
      <component glyphName="I" x="0" y="0" flags="0x1204"/>
      <component glyphName="tilde" x="-135" y="124" flags="0x1004"/>
    </TTGlyph>
    <TTGlyph name="J" xMin="9" yMin="4" xMax="518" yMax="630">
      <contour>
        <pt x="429" y="327" on="1"/>
        <pt x="426" y="516" on="1"/>
        <pt x="426" y="561" on="0"/>
        <pt x="431" y="630" on="0"/>
        <pt x="443" y="630" on="1"/>
        <pt x="510" y="630" on="1"/>
        <pt x="510" y="614" on="0"/>
        <pt x="516" y="522" on="0"/>
        <pt x="518" y="429" on="0"/>
        <pt x="518" y="363" on="0"/>
        <pt x="516" y="258" on="0"/>
        <pt x="507" y="195" on="1"/>
        <pt x="486" y="50" on="0"/>
        <pt x="427" y="16" on="1"/>
        <pt x="382" y="-9" on="0"/>
        <pt x="284" y="4" on="1"/>
        <pt x="185" y="18" on="0"/>
        <pt x="110" y="62" on="1"/>
        <pt x="22" y="113" on="0"/>
        <pt x="9" y="182" on="1"/>
        <pt x="9" y="205" on="0"/>
        <pt x="24" y="222" on="1"/>
        <pt x="51" y="254" on="0"/>
        <pt x="73" y="254" on="1"/>
        <pt x="74" y="197" on="0"/>
        <pt x="104" y="160" on="1"/>
        <pt x="174" y="76" on="0"/>
        <pt x="329" y="76" on="1"/>
        <pt x="355" y="76" on="0"/>
        <pt x="380" y="79" on="1"/>
        <pt x="429" y="105" on="0"/>
      </contour>
    </TTGlyph>
    <TTGlyph name="Jcircumflex" xMin="9" yMin="4" xMax="518" yMax="908">
      <component glyphName="J" x="0" y="0" flags="0x1204"/>
      <component glyphName="circumflex" x="124" y="221" flags="0x1004"/>
    </TTGlyph>
    <TTGlyph name="K" xMin="43" yMin="0" xMax="609" yMax="720">
      <contour>
        <pt x="43" y="15" on="1"/>
        <pt x="43" y="19" on="0"/>
        <pt x="48" y="35" on="0"/>
        <pt x="53" y="101" on="0"/>
        <pt x="56" y="194" on="0"/>
        <pt x="59" y="305" on="0"/>
        <pt x="62" y="421" on="0"/>
        <pt x="66" y="532" on="0"/>
        <pt x="70" y="578" on="1"/>
        <pt x="79" y="678" on="0"/>
        <pt x="94" y="697" on="1"/>
        <pt x="102" y="720" on="0"/>
        <pt x="148" y="720" on="1"/>
        <pt x="148" y="720" on="0"/>
        <pt x="162" y="720" on="1"/>
        <pt x="162" y="682" on="0"/>
        <pt x="145" y="438" on="0"/>
        <pt x="144" y="415" on="1"/>
        <pt x="209" y="448" on="0"/>
        <pt x="330" y="525" on="0"/>
        <pt x="435" y="590" on="0"/>
        <pt x="521" y="633" on="0"/>
        <pt x="542" y="633" on="1"/>
        <pt x="577" y="633" on="0"/>
        <pt x="577" y="606" on="1"/>
        <pt x="577" y="585" on="0"/>
        <pt x="513" y="534" on="0"/>
        <pt x="417" y="479" on="0"/>
        <pt x="304" y="423" on="0"/>
        <pt x="208" y="370" on="0"/>
        <pt x="144" y="324" on="0"/>
        <pt x="144" y="307" on="1"/>
        <pt x="162" y="296" on="0"/>
        <pt x="245" y="259" on="0"/>
        <pt x="348" y="212" on="0"/>
        <pt x="459" y="159" on="0"/>
        <pt x="505" y="132" on="1"/>
        <pt x="609" y="73" on="0"/>
        <pt x="609" y="34" on="1"/>
        <pt x="609" y="21" on="0"/>
        <pt x="592" y="16" on="1"/>
        <pt x="585" y="14" on="0"/>
        <pt x="578" y="14" on="1"/>
        <pt x="568" y="14" on="1"/>
        <pt x="520" y="14" on="0"/>
        <pt x="436" y="60" on="0"/>
        <pt x="341" y="124" on="0"/>
        <pt x="221" y="193" on="0"/>
        <pt x="136" y="216" on="1"/>
        <pt x="136" y="16" on="1"/>
        <pt x="134" y="12" on="0"/>
        <pt x="118" y="7" on="1"/>
        <pt x="95" y="0" on="0"/>
        <pt x="43" y="0" on="0"/>
      </contour>
    </TTGlyph>
    <TTGlyph name="Kcommaaccent" xMin="43" yMin="-251" xMax="609" yMax="720">
      <component glyphName="K" x="0" y="0" flags="0x1204"/>
      <component glyphName="commaaccent" x="114" y="0" flags="0x1004"/>
    </TTGlyph>
    <TTGlyph name="L" xMin="55" yMin="14" xMax="692" yMax="686">
      <contour>
        <pt x="80" y="437" on="1"/>
        <pt x="78" y="686" on="1"/>
        <pt x="158" y="683" on="1"/>
        <pt x="149" y="97" on="1"/>
        <pt x="676" y="82" on="1"/>
        <pt x="692" y="77" on="0"/>
        <pt x="692" y="53" on="0"/>
        <pt x="677" y="40" on="1"/>
        <pt x="648" y="14" on="0"/>
        <pt x="611" y="14" on="1"/>
        <pt x="602" y="14" on="0"/>
        <pt x="592" y="16" on="1"/>
        <pt x="55" y="21" on="1"/>
        <pt x="80" y="114" on="0"/>
      </contour>
    </TTGlyph>
    <TTGlyph name="Lacute" xMin="55" yMin="14" xMax="692" yMax="856">
      <component glyphName="L" x="0" y="0" flags="0x1204"/>
      <component glyphName="acute" x="263" y="232" flags="0x1004"/>
    </TTGlyph>
    <TTGlyph name="Lcaron" xMin="55" yMin="14" xMax="692" yMax="686">
      <component glyphName="L" x="0" y="0" flags="0x1204"/>
      <component glyphName="quoteright" x="256" y="0" flags="0x1004"/>
    </TTGlyph>
    <TTGlyph name="Lcommaaccent" xMin="55" yMin="-251" xMax="692" yMax="686">
      <component glyphName="L" x="0" y="0" flags="0x1204"/>
      <component glyphName="commaaccent" x="158" y="0" flags="0x1004"/>
    </TTGlyph>
    <TTGlyph name="Ldot" xMin="55" yMin="14" xMax="692" yMax="686">
      <component glyphName="L" x="0" y="0" flags="0x1204"/>
      <component glyphName="periodcentered" x="296" y="0" flags="0x1004"/>
    </TTGlyph>
    <TTGlyph name="Lslash" xMin="9" yMin="14" xMax="692" yMax="686">
      <component glyphName="L" x="0" y="0" flags="0x1204"/>
      <component glyphName="endash" x="-21" y="28" flags="0x1004"/>
    </TTGlyph>
    <TTGlyph name="M" xMin="28" yMin="2" xMax="812" yMax="682">
      <contour>
        <pt x="123" y="167" on="1"/>
        <pt x="127" y="94" on="1"/>
        <pt x="127" y="88" on="0"/>
        <pt x="126" y="56" on="0"/>
        <pt x="103" y="31" on="0"/>
        <pt x="70" y="31" on="0"/>
        <pt x="61" y="32" on="1"/>
        <pt x="28" y="32" on="0"/>
        <pt x="28" y="61" on="1"/>
        <pt x="28" y="85" on="0"/>
        <pt x="72" y="424" on="0"/>
        <pt x="84" y="522" on="0"/>
        <pt x="93" y="589" on="0"/>
        <pt x="97" y="621" on="0"/>
        <pt x="105" y="653" on="0"/>
        <pt x="113" y="663" on="1"/>
        <pt x="128" y="682" on="0"/>
        <pt x="171" y="682" on="1"/>
        <pt x="243" y="646" on="0"/>
        <pt x="319" y="478" on="1"/>
        <pt x="373" y="358" on="0"/>
        <pt x="409" y="294" on="0"/>
        <pt x="426" y="282" on="1"/>
        <pt x="626" y="630" on="1"/>
        <pt x="647" y="645" on="0"/>
        <pt x="658" y="645" on="1"/>
        <pt x="690" y="645" on="0"/>
        <pt x="724" y="587" on="0"/>
        <pt x="747" y="504" on="0"/>
        <pt x="764" y="404" on="0"/>
        <pt x="777" y="295" on="0"/>
        <pt x="783" y="243" on="1"/>
        <pt x="797" y="118" on="0"/>
        <pt x="812" y="54" on="0"/>
        <pt x="812" y="27" on="0"/>
        <pt x="794" y="2" on="0"/>
        <pt x="762" y="2" on="0"/>
        <pt x="730" y="27" on="0"/>
        <pt x="723" y="64" on="0"/>
        <pt x="716" y="124" on="0"/>
        <pt x="706" y="199" on="0"/>
        <pt x="696" y="282" on="0"/>
        <pt x="686" y="358" on="0"/>
        <pt x="678" y="417" on="0"/>
        <pt x="676" y="432" on="1"/>
        <pt x="676" y="452" on="0"/>
        <pt x="674" y="486" on="0"/>
        <pt x="660" y="494" on="0"/>
        <pt x="631" y="467" on="0"/>
        <pt x="605" y="426" on="1"/>
        <pt x="549" y="339" on="0"/>
        <pt x="443" y="133" on="1"/>
        <pt x="429" y="108" on="0"/>
        <pt x="406" y="122" on="1"/>
        <pt x="379" y="137" on="0"/>
        <pt x="360" y="199" on="1"/>
        <pt x="176" y="590" on="1"/>
        <pt x="152" y="542" on="0"/>
        <pt x="132" y="272" on="1"/>
        <pt x="129" y="239" on="0"/>
        <pt x="128" y="216" on="1"/>
        <pt x="123" y="191" on="0"/>
      </contour>
    </TTGlyph>
    <TTGlyph name="N" xMin="25" yMin="-8" xMax="608" yMax="716">
      <contour>
        <pt x="608" y="353" on="1"/>
        <pt x="608" y="49" on="0"/>
        <pt x="583" y="-3" on="1"/>
        <pt x="510" y="3" on="1"/>
        <pt x="455" y="98" on="0"/>
        <pt x="325" y="270" on="1"/>
        <pt x="274" y="338" on="0"/>
        <pt x="173" y="472" on="0"/>
        <pt x="131" y="538" on="1"/>
        <pt x="111" y="449" on="0"/>
        <pt x="111" y="182" on="1"/>
        <pt x="111" y="80" on="0"/>
        <pt x="107" y="10" on="1"/>
        <pt x="88" y="-8" on="0"/>
        <pt x="43" y="-8" on="0"/>
        <pt x="25" y="1" on="0"/>
        <pt x="25" y="22" on="0"/>
        <pt x="30" y="67" on="0"/>
        <pt x="37" y="173" on="0"/>
        <pt x="40" y="232" on="1"/>
        <pt x="48" y="386" on="0"/>
        <pt x="48" y="609" on="0"/>
        <pt x="46" y="681" on="1"/>
        <pt x="68" y="701" on="0"/>
        <pt x="92" y="719" on="0"/>
        <pt x="122" y="700" on="0"/>
        <pt x="169" y="637" on="0"/>
        <pt x="212" y="575" on="1"/>
        <pt x="359" y="366" on="0"/>
        <pt x="501" y="183" on="1"/>
        <pt x="520" y="681" on="1"/>
        <pt x="531" y="701" on="0"/>
        <pt x="553" y="716" on="0"/>
        <pt x="571" y="716" on="1"/>
        <pt x="606" y="716" on="0"/>
        <pt x="606" y="652" on="1"/>
        <pt x="605" y="615" on="1"/>
      </contour>
    </TTGlyph>
    <TTGlyph name="Nacute" xMin="25" yMin="-8" xMax="608" yMax="869">
      <component glyphName="N" x="0" y="0" flags="0x1204"/>
      <component glyphName="acute" x="240" y="245" flags="0x1004"/>
    </TTGlyph>
    <TTGlyph name="Ncaron" xMin="25" yMin="-8" xMax="608" yMax="881">
      <component glyphName="N" x="0" y="0" flags="0x1204"/>
      <component glyphName="caron" x="169" y="307" flags="0x1004"/>
    </TTGlyph>
    <TTGlyph name="Ncommaaccent" xMin="25" yMin="-251" xMax="608" yMax="716">
      <component glyphName="N" x="0" y="0" flags="0x1204"/>
      <component glyphName="commaaccent" x="125" y="0" flags="0x1004"/>
    </TTGlyph>
    <TTGlyph name="Ntilde" xMin="25" yMin="-8" xMax="608" yMax="906">
      <component glyphName="N" x="0" y="0" flags="0x1204"/>
      <component glyphName="tilde" x="96" y="252" flags="0x1004"/>
    </TTGlyph>
    <TTGlyph name="O" xMin="22" yMin="14" xMax="654" yMax="607">
      <contour>
        <pt x="46" y="168" on="1"/>
        <pt x="22" y="222" on="0"/>
        <pt x="22" y="368" on="0"/>
        <pt x="69" y="481" on="0"/>
        <pt x="110" y="522" on="1"/>
        <pt x="197" y="607" on="0"/>
        <pt x="328" y="607" on="1"/>
        <pt x="465" y="607" on="0"/>
        <pt x="554" y="544" on="1"/>
        <pt x="654" y="472" on="0"/>
        <pt x="654" y="338" on="1"/>
        <pt x="654" y="172" on="0"/>
        <pt x="501" y="14" on="0"/>
        <pt x="339" y="14" on="1"/>
        <pt x="114" y="14" on="0"/>
      </contour>
      <contour>
        <pt x="104" y="315" on="1"/>
        <pt x="104" y="79" on="0"/>
        <pt x="342" y="79" on="1"/>
        <pt x="459" y="79" on="0"/>
        <pt x="532" y="149" on="1"/>
        <pt x="605" y="218" on="0"/>
        <pt x="605" y="330" on="1"/>
        <pt x="605" y="435" on="0"/>
        <pt x="518" y="490" on="1"/>
        <pt x="444" y="538" on="0"/>
        <pt x="331" y="538" on="1"/>
        <pt x="241" y="538" on="0"/>
        <pt x="172" y="473" on="1"/>
        <pt x="104" y="408" on="0"/>
      </contour>
    </TTGlyph>
    <TTGlyph name="OE" xMin="22" yMin="-14" xMax="1076" yMax="635">
      <contour>
        <pt x="855" y="622" on="1"/>
        <pt x="940" y="622" on="0"/>
        <pt x="976" y="609" on="1"/>
        <pt x="976" y="559" on="1"/>
        <pt x="948" y="555" on="0"/>
        <pt x="848" y="554" on="1"/>
        <pt x="663" y="552" on="0"/>
        <pt x="600" y="538" on="1"/>
        <pt x="583" y="460" on="0"/>
        <pt x="585" y="400" on="0"/>
        <pt x="586" y="384" on="1"/>
        <pt x="590" y="345" on="0"/>
        <pt x="590" y="293" on="1"/>
        <pt x="651" y="293" on="0"/>
        <pt x="833" y="316" on="0"/>
        <pt x="929" y="327" on="0"/>
        <pt x="979" y="327" on="1"/>
        <pt x="979" y="273" on="1"/>
        <pt x="597" y="225" on="1"/>
        <pt x="602" y="61" on="1"/>
        <pt x="719" y="61" on="0"/>
        <pt x="814" y="70" on="1"/>
        <pt x="989" y="88" on="0"/>
        <pt x="1076" y="88" on="1"/>
        <pt x="1076" y="68" on="0"/>
        <pt x="1050" y="34" on="0"/>
        <pt x="1031" y="24" on="0"/>
        <pt x="1021" y="31" on="1"/>
        <pt x="895" y="17" on="0"/>
        <pt x="520" y="-14" on="1"/>
        <pt x="520" y="74" on="1"/>
        <pt x="475" y="17" on="0"/>
        <pt x="398" y="-2" on="1"/>
        <pt x="369" y="-10" on="0"/>
        <pt x="266" y="-10" on="0"/>
        <pt x="152" y="29" on="0"/>
        <pt x="110" y="68" on="1"/>
        <pt x="22" y="151" on="0"/>
        <pt x="22" y="299" on="1"/>
        <pt x="22" y="368" on="0"/>
        <pt x="71" y="490" on="0"/>
        <pt x="156" y="581" on="0"/>
        <pt x="269" y="635" on="0"/>
        <pt x="334" y="635" on="1"/>
        <pt x="450" y="635" on="0"/>
        <pt x="523" y="526" on="1"/>
        <pt x="524" y="625" on="1"/>
        <pt x="551" y="617" on="0"/>
        <pt x="633" y="617" on="1"/>
      </contour>
      <contour>
        <pt x="143" y="452" on="0"/>
        <pt x="104" y="361" on="0"/>
        <pt x="104" y="256" on="0"/>
        <pt x="133" y="160" on="0"/>
        <pt x="162" y="126" on="1"/>
        <pt x="222" y="54" on="0"/>
        <pt x="452" y="54" on="0"/>
        <pt x="500" y="148" on="1"/>
        <pt x="514" y="176" on="0"/>
        <pt x="521" y="206" on="1"/>
        <pt x="522" y="402" on="1"/>
        <pt x="495" y="519" on="0"/>
        <pt x="408" y="554" on="1"/>
        <pt x="377" y="566" on="0"/>
        <pt x="293" y="566" on="0"/>
        <pt x="209" y="522" on="0"/>
      </contour>
    </TTGlyph>
    <TTGlyph name="Oacute" xMin="22" yMin="14" xMax="654" yMax="773">
      <component glyphName="O" x="0" y="0" flags="0x1204"/>
      <component glyphName="acute" x="265" y="149" flags="0x1004"/>
    </TTGlyph>
    <TTGlyph name="Obreve" xMin="22" yMin="14" xMax="654" yMax="757">
      <component glyphName="O" x="0" y="0" flags="0x1204"/>
      <component glyphName="breve" x="204" y="183" flags="0x1004"/>
    </TTGlyph>
    <TTGlyph name="Ocircumflex" xMin="22" yMin="14" xMax="654" yMax="793">
      <component glyphName="O" x="0" y="0" flags="0x1204"/>
      <component glyphName="circumflex" x="186" y="106" flags="0x1004"/>
    </TTGlyph>
    <TTGlyph name="Odieresis" xMin="22" yMin="14" xMax="654" yMax="713">
      <component glyphName="O" x="0" y="0" flags="0x1204"/>
      <component glyphName="dieresis" x="162" y="49" flags="0x1004"/>
    </TTGlyph>
    <TTGlyph name="Ograve" xMin="22" yMin="14" xMax="654" yMax="774">
      <component glyphName="O" x="0" y="0" flags="0x1204"/>
      <component glyphName="grave" x="235" y="158" flags="0x1004"/>
    </TTGlyph>
    <TTGlyph name="Ohungarumlaut" xMin="22" yMin="14" xMax="654" yMax="789">
      <component glyphName="O" x="0" y="0" flags="0x1204"/>
      <component glyphName="hungarumlaut" x="190" y="131" flags="0x1004"/>
    </TTGlyph>
    <TTGlyph name="Omacron" xMin="22" yMin="14" xMax="654" yMax="729">
      <component glyphName="O" x="0" y="0" flags="0x1204"/>
      <component glyphName="macron" x="168" y="118" flags="0x1004"/>
    </TTGlyph>
    <TTGlyph name="Oslash" xMin="22" yMin="-33" xMax="654" yMax="656">
      <component glyphName="O" x="0" y="0" flags="0x1204"/>
      <component glyphName="slash" x="90" y="-33" flags="0x1004"/>
    </TTGlyph>
    <TTGlyph name="Oslashacute" xMin="22" yMin="0" xMax="654" yMax="779">
      <component glyphName="O" x="0" y="0" flags="0x1204"/>
      <component glyphName="slash" x="93" y="0" flags="0x1004"/>
      <component glyphName="acute" x="238" y="155" flags="0x1004"/>
    </TTGlyph>
    <TTGlyph name="Otilde" xMin="22" yMin="14" xMax="654" yMax="799">
      <component glyphName="O" x="0" y="0" flags="0x1204"/>
      <component glyphName="tilde" x="146" y="145" flags="0x1004"/>
    </TTGlyph>
    <TTGlyph name="P" xMin="38" yMin="-2" xMax="637" yMax="614">
      <contour>
        <pt x="83" y="-2" on="1"/>
        <pt x="38" y="0" on="1"/>
        <pt x="38" y="233" on="1"/>
        <pt x="43" y="308" on="0"/>
        <pt x="49" y="424" on="0"/>
        <pt x="65" y="508" on="0"/>
        <pt x="101" y="565" on="0"/>
        <pt x="137" y="582" on="1"/>
        <pt x="202" y="614" on="0"/>
        <pt x="376" y="614" on="1"/>
        <pt x="451" y="614" on="0"/>
        <pt x="555" y="585" on="0"/>
        <pt x="580" y="572" on="1"/>
        <pt x="637" y="544" on="0"/>
        <pt x="637" y="444" on="0"/>
        <pt x="580" y="363" on="0"/>
        <pt x="489" y="304" on="0"/>
        <pt x="375" y="266" on="0"/>
        <pt x="318" y="254" on="1"/>
        <pt x="216" y="234" on="0"/>
        <pt x="122" y="234" on="1"/>
        <pt x="118" y="10" on="1"/>
        <pt x="118" y="-2" on="0"/>
      </contour>
      <contour>
        <pt x="121" y="347" on="1"/>
        <pt x="121" y="297" on="0"/>
        <pt x="164" y="297" on="1"/>
        <pt x="170" y="297" on="0"/>
        <pt x="200" y="298" on="0"/>
        <pt x="275" y="303" on="0"/>
        <pt x="359" y="318" on="0"/>
        <pt x="444" y="342" on="0"/>
        <pt x="478" y="360" on="1"/>
        <pt x="555" y="402" on="0"/>
        <pt x="555" y="467" on="1"/>
        <pt x="540" y="532" on="0"/>
        <pt x="436" y="550" on="1"/>
        <pt x="405" y="556" on="0"/>
        <pt x="356" y="556" on="0"/>
        <pt x="289" y="551" on="0"/>
        <pt x="201" y="525" on="0"/>
        <pt x="141" y="481" on="0"/>
        <pt x="138" y="452" on="1"/>
        <pt x="137" y="440" on="0"/>
        <pt x="133" y="424" on="1"/>
        <pt x="121" y="373" on="0"/>
      </contour>
    </TTGlyph>
    <TTGlyph name="Q" xMin="27" yMin="22" xMax="693" yMax="634">
      <contour>
        <pt x="27" y="244" on="1"/>
        <pt x="27" y="308" on="0"/>
        <pt x="71" y="453" on="0"/>
        <pt x="157" y="565" on="0"/>
        <pt x="283" y="633" on="0"/>
        <pt x="365" y="633" on="1"/>
        <pt x="377" y="634" on="0"/>
        <pt x="389" y="634" on="1"/>
        <pt x="519" y="634" on="0"/>
        <pt x="593" y="556" on="1"/>
        <pt x="660" y="485" on="0"/>
        <pt x="660" y="369" on="1"/>
        <pt x="660" y="255" on="0"/>
        <pt x="592" y="158" on="1"/>
        <pt x="591" y="153" on="0"/>
        <pt x="591" y="132" on="0"/>
        <pt x="620" y="110" on="0"/>
        <pt x="663" y="92" on="0"/>
        <pt x="693" y="72" on="0"/>
        <pt x="693" y="55" on="0"/>
        <pt x="692" y="50" on="1"/>
        <pt x="681" y="42" on="0"/>
        <pt x="643" y="33" on="0"/>
        <pt x="630" y="36" on="0"/>
        <pt x="608" y="51" on="0"/>
        <pt x="598" y="60" on="1"/>
        <pt x="571" y="81" on="0"/>
        <pt x="551" y="84" on="1"/>
        <pt x="513" y="48" on="0"/>
        <pt x="434" y="22" on="1"/>
        <pt x="234" y="-41" on="0"/>
        <pt x="108" y="65" on="1"/>
        <pt x="27" y="134" on="0"/>
      </contour>
      <contour>
        <pt x="333" y="65" on="1"/>
        <pt x="393" y="65" on="0"/>
        <pt x="418" y="70" on="1"/>
        <pt x="472" y="81" on="0"/>
        <pt x="493" y="116" on="1"/>
        <pt x="310" y="282" on="1"/>
        <pt x="309" y="283" on="0"/>
        <pt x="309" y="285" on="1"/>
        <pt x="309" y="290" on="1"/>
        <pt x="309" y="308" on="0"/>
        <pt x="337" y="317" on="0"/>
        <pt x="378" y="317" on="0"/>
        <pt x="427" y="285" on="0"/>
        <pt x="473" y="242" on="0"/>
        <pt x="518" y="196" on="0"/>
        <pt x="542" y="182" on="1"/>
        <pt x="593" y="260" on="0"/>
        <pt x="594" y="352" on="1"/>
        <pt x="595" y="380" on="0"/>
        <pt x="595" y="415" on="1"/>
        <pt x="590" y="451" on="0"/>
        <pt x="578" y="480" on="1"/>
        <pt x="554" y="541" on="0"/>
        <pt x="457" y="560" on="1"/>
        <pt x="410" y="570" on="0"/>
        <pt x="326" y="570" on="0"/>
        <pt x="318" y="570" on="1"/>
        <pt x="256" y="570" on="0"/>
        <pt x="204" y="512" on="1"/>
        <pt x="163" y="465" on="0"/>
        <pt x="134" y="382" on="1"/>
        <pt x="109" y="315" on="0"/>
        <pt x="109" y="258" on="1"/>
        <pt x="109" y="154" on="0"/>
        <pt x="227" y="65" on="0"/>
      </contour>
    </TTGlyph>
    <TTGlyph name="R" xMin="46" yMin="-12" xMax="683" yMax="647">
      <contour>
        <pt x="118" y="594" on="1"/>
        <pt x="173" y="647" on="0"/>
        <pt x="317" y="647" on="1"/>
        <pt x="407" y="647" on="0"/>
        <pt x="529" y="611" on="0"/>
        <pt x="590" y="571" on="0"/>
        <pt x="590" y="547" on="1"/>
        <pt x="590" y="492" on="0"/>
        <pt x="462" y="438" on="1"/>
        <pt x="443" y="429" on="0"/>
        <pt x="282" y="374" on="0"/>
        <pt x="254" y="364" on="1"/>
        <pt x="193" y="341" on="0"/>
        <pt x="173" y="328" on="1"/>
        <pt x="173" y="323" on="0"/>
        <pt x="181" y="316" on="0"/>
        <pt x="211" y="299" on="0"/>
        <pt x="271" y="268" on="0"/>
        <pt x="324" y="239" on="1"/>
        <pt x="482" y="153" on="0"/>
        <pt x="649" y="55" on="1"/>
        <pt x="657" y="49" on="0"/>
        <pt x="683" y="28" on="0"/>
        <pt x="683" y="3" on="0"/>
        <pt x="667" y="-7" on="0"/>
        <pt x="645" y="-12" on="0"/>
        <pt x="633" y="-12" on="1"/>
        <pt x="613" y="-12" on="1"/>
        <pt x="593" y="-12" on="0"/>
        <pt x="466" y="74" on="0"/>
        <pt x="373" y="138" on="0"/>
        <pt x="325" y="168" on="1"/>
        <pt x="212" y="241" on="0"/>
        <pt x="146" y="263" on="1"/>
        <pt x="146" y="34" on="1"/>
        <pt x="146" y="14" on="0"/>
        <pt x="112" y="14" on="1"/>
        <pt x="101" y="14" on="1"/>
        <pt x="80" y="14" on="0"/>
        <pt x="70" y="35" on="1"/>
        <pt x="56" y="67" on="0"/>
        <pt x="56" y="153" on="1"/>
        <pt x="59" y="354" on="1"/>
        <pt x="59" y="502" on="0"/>
        <pt x="46" y="614" on="1"/>
        <pt x="70" y="655" on="0"/>
        <pt x="105" y="611" on="1"/>
        <pt x="113" y="601" on="0"/>
      </contour>
      <contour>
        <pt x="456" y="582" on="1"/>
        <pt x="391" y="583" on="1"/>
        <pt x="165" y="583" on="0"/>
        <pt x="131" y="531" on="1"/>
        <pt x="121" y="517" on="0"/>
        <pt x="121" y="474" on="0"/>
        <pt x="123" y="458" on="1"/>
        <pt x="128" y="417" on="0"/>
        <pt x="146" y="399" on="1"/>
        <pt x="149" y="398" on="0"/>
        <pt x="164" y="398" on="0"/>
        <pt x="205" y="406" on="0"/>
        <pt x="274" y="427" on="0"/>
        <pt x="352" y="457" on="0"/>
        <pt x="388" y="473" on="1"/>
        <pt x="501" y="524" on="0"/>
        <pt x="501" y="556" on="1"/>
        <pt x="501" y="574" on="0"/>
      </contour>
    </TTGlyph>
    <TTGlyph name="Racute" xMin="46" yMin="-12" xMax="683" yMax="814">
      <component glyphName="R" x="0" y="0" flags="0x1204"/>
      <component glyphName="acute" x="208" y="190" flags="0x1004"/>
    </TTGlyph>
    <TTGlyph name="Rcaron" xMin="46" yMin="-12" xMax="683" yMax="809">
      <component glyphName="R" x="0" y="0" flags="0x1204"/>
      <component glyphName="caron" x="141" y="235" flags="0x1004"/>
    </TTGlyph>
    <TTGlyph name="Rcommaaccent" xMin="46" yMin="-251" xMax="683" yMax="647">
      <component glyphName="R" x="0" y="0" flags="0x1204"/>
      <component glyphName="commaaccent" x="169" y="0" flags="0x1004"/>
    </TTGlyph>
    <TTGlyph name="S" xMin="15" yMin="-1" xMax="624" yMax="608">
      <contour>
        <pt x="15" y="106" on="0"/>
        <pt x="46" y="135" on="0"/>
        <pt x="63" y="146" on="0"/>
        <pt x="66" y="149" on="1"/>
        <pt x="71" y="58" on="0"/>
        <pt x="189" y="58" on="1"/>
        <pt x="282" y="58" on="0"/>
        <pt x="406" y="116" on="1"/>
        <pt x="494" y="156" on="0"/>
        <pt x="524" y="198" on="1"/>
        <pt x="534" y="211" on="0"/>
        <pt x="534" y="228" on="0"/>
        <pt x="531" y="233" on="1"/>
        <pt x="116" y="326" on="1"/>
        <pt x="98" y="330" on="0"/>
        <pt x="81" y="343" on="1"/>
        <pt x="50" y="365" on="0"/>
        <pt x="50" y="383" on="1"/>
        <pt x="50" y="452" on="0"/>
        <pt x="148" y="508" on="1"/>
        <pt x="256" y="569" on="0"/>
        <pt x="437" y="600" on="1"/>
        <pt x="478" y="607" on="0"/>
        <pt x="498" y="608" on="1"/>
        <pt x="504" y="606" on="0"/>
        <pt x="529" y="603" on="0"/>
        <pt x="542" y="600" on="1"/>
        <pt x="573" y="593" on="0"/>
        <pt x="568" y="574" on="1"/>
        <pt x="568" y="540" on="0"/>
        <pt x="438" y="520" on="1"/>
        <pt x="270" y="495" on="0"/>
        <pt x="187" y="461" on="0"/>
        <pt x="150" y="425" on="0"/>
        <pt x="149" y="400" on="1"/>
        <pt x="149" y="395" on="0"/>
        <pt x="195" y="383" on="0"/>
        <pt x="259" y="366" on="0"/>
        <pt x="310" y="352" on="1"/>
        <pt x="434" y="318" on="0"/>
        <pt x="614" y="266" on="1"/>
        <pt x="624" y="244" on="0"/>
        <pt x="624" y="225" on="1"/>
        <pt x="624" y="172" on="0"/>
        <pt x="562" y="123" on="1"/>
        <pt x="492" y="68" on="0"/>
        <pt x="368" y="30" on="1"/>
        <pt x="265" y="-1" on="0"/>
        <pt x="204" y="-1" on="1"/>
        <pt x="153" y="-1" on="0"/>
        <pt x="61" y="35" on="0"/>
        <pt x="15" y="69" on="0"/>
      </contour>
    </TTGlyph>
    <TTGlyph name="Sacute" xMin="15" yMin="-1" xMax="624" yMax="731">
      <component glyphName="S" x="0" y="0" flags="0x1204"/>
      <component glyphName="acute" x="245" y="107" flags="0x1004"/>
    </TTGlyph>
    <TTGlyph name="Scaron" xMin="15" yMin="-1" xMax="624" yMax="729">
      <component glyphName="S" x="0" y="0" flags="0x1204"/>
      <component glyphName="caron" x="150" y="155" flags="0x1004"/>
    </TTGlyph>
    <TTGlyph name="Scedilla" xMin="15" yMin="-233" xMax="624" yMax="608">
      <component glyphName="S" x="0" y="0" flags="0x1204"/>
      <component glyphName="cedilla" x="198" y="0" flags="0x1004"/>
    </TTGlyph>
    <TTGlyph name="Scircumflex" xMin="15" yMin="-1" xMax="624" yMax="829">
      <component glyphName="S" x="0" y="0" flags="0x1204"/>
      <component glyphName="circumflex" x="154" y="142" flags="0x1004"/>
    </TTGlyph>
    <TTGlyph name="Scommaaccent" xMin="15" yMin="-251" xMax="624" yMax="608">
      <component glyphName="S" x="0" y="0" flags="0x1204"/>
      <component glyphName="commaaccent" x="169" y="0" flags="0x1004"/>
    </TTGlyph>
    <TTGlyph name="T" xMin="0" yMin="0" xMax="638" yMax="580">
      <contour>
        <pt x="490" y="491" on="1"/>
        <pt x="401" y="493" on="1"/>
        <pt x="366" y="493" on="0"/>
        <pt x="320" y="486" on="1"/>
        <pt x="318" y="447" on="0"/>
        <pt x="312" y="385" on="1"/>
        <pt x="291" y="165" on="0"/>
        <pt x="291" y="34" on="0"/>
        <pt x="293" y="7" on="1"/>
        <pt x="199" y="0" on="1"/>
        <pt x="230" y="494" on="1"/>
        <pt x="17" y="506" on="1"/>
        <pt x="9" y="506" on="0"/>
        <pt x="0" y="532" on="0"/>
        <pt x="0" y="554" on="0"/>
        <pt x="18" y="580" on="0"/>
        <pt x="30" y="580" on="1"/>
        <pt x="103" y="577" on="0"/>
        <pt x="177" y="570" on="1"/>
        <pt x="314" y="558" on="0"/>
        <pt x="410" y="558" on="1"/>
        <pt x="472" y="560" on="1"/>
        <pt x="545" y="562" on="0"/>
        <pt x="617" y="576" on="1"/>
        <pt x="633" y="573" on="0"/>
        <pt x="637" y="526" on="1"/>
        <pt x="638" y="516" on="0"/>
        <pt x="638" y="510" on="1"/>
        <pt x="572" y="491" on="0"/>
      </contour>
    </TTGlyph>
    <TTGlyph name="Tbar" xMin="0" yMin="0" xMax="638" yMax="580">
      <component glyphName="T" x="0" y="0" flags="0x1204"/>
      <component glyphName="macron" x="105" y="-202" flags="0x1004"/>
    </TTGlyph>
    <TTGlyph name="Tcaron" xMin="0" yMin="0" xMax="638" yMax="743">
      <component glyphName="T" x="0" y="0" flags="0x1204"/>
      <component glyphName="caron" x="138" y="169" flags="0x1004"/>
    </TTGlyph>
    <TTGlyph name="Tcommaaccent" xMin="0" yMin="-226" xMax="638" yMax="580">
      <component glyphName="T" x="0" y="0" flags="0x1204"/>
      <component glyphName="commaaccent" x="26" y="25" flags="0x1004"/>
    </TTGlyph>
    <TTGlyph name="Thorn" xMin="33" yMin="1" xMax="504" yMax="719">
      <contour>
        <pt x="106" y="25" on="1"/>
        <pt x="106" y="1" on="0"/>
        <pt x="77" y="1" on="1"/>
        <pt x="60" y="5" on="1"/>
        <pt x="50" y="10" on="0"/>
        <pt x="45" y="21" on="1"/>
        <pt x="34" y="677" on="1"/>
        <pt x="33" y="681" on="0"/>
        <pt x="33" y="701" on="0"/>
        <pt x="56" y="719" on="0"/>
        <pt x="87" y="719" on="0"/>
        <pt x="113" y="702" on="0"/>
        <pt x="110" y="687" on="1"/>
        <pt x="115" y="438" on="1"/>
        <pt x="178" y="521" on="0"/>
        <pt x="272" y="570" on="1"/>
        <pt x="338" y="605" on="0"/>
        <pt x="391" y="605" on="1"/>
        <pt x="453" y="605" on="0"/>
        <pt x="484" y="556" on="1"/>
        <pt x="504" y="524" on="0"/>
        <pt x="504" y="425" on="0"/>
        <pt x="466" y="348" on="0"/>
        <pt x="403" y="278" on="0"/>
        <pt x="362" y="249" on="1"/>
        <pt x="278" y="190" on="0"/>
        <pt x="190" y="170" on="1"/>
        <pt x="162" y="164" on="0"/>
        <pt x="123" y="164" on="0"/>
        <pt x="110" y="166" on="1"/>
      </contour>
      <contour>
        <pt x="118" y="246" on="1"/>
        <pt x="118" y="231" on="0"/>
        <pt x="147" y="231" on="1"/>
        <pt x="181" y="231" on="0"/>
        <pt x="271" y="270" on="0"/>
        <pt x="308" y="297" on="1"/>
        <pt x="396" y="360" on="0"/>
        <pt x="446" y="455" on="1"/>
        <pt x="432" y="518" on="0"/>
        <pt x="365" y="518" on="1"/>
        <pt x="318" y="518" on="0"/>
        <pt x="269" y="489" on="1"/>
        <pt x="172" y="432" on="0"/>
        <pt x="133" y="344" on="1"/>
        <pt x="118" y="309" on="0"/>
        <pt x="118" y="262" on="0"/>
        <pt x="118" y="248" on="0"/>
      </contour>
    </TTGlyph>
    <TTGlyph name="U" xMin="20" yMin="-2" xMax="534" yMax="611">
      <contour>
        <pt x="526" y="16" on="1"/>
        <pt x="526" y="-2" on="0"/>
        <pt x="495" y="-2" on="1"/>
        <pt x="480" y="-2" on="0"/>
        <pt x="455" y="7" on="0"/>
        <pt x="452" y="10" on="1"/>
        <pt x="462" y="138" on="1"/>
        <pt x="370" y="59" on="0"/>
        <pt x="328" y="39" on="1"/>
        <pt x="262" y="6" on="0"/>
        <pt x="193" y="6" on="1"/>
        <pt x="180" y="6" on="0"/>
        <pt x="166" y="7" on="1"/>
        <pt x="20" y="23" on="0"/>
        <pt x="20" y="194" on="1"/>
        <pt x="20" y="272" on="0"/>
        <pt x="60" y="459" on="1"/>
        <pt x="73" y="517" on="0"/>
        <pt x="77" y="565" on="1"/>
        <pt x="80" y="566" on="0"/>
        <pt x="90" y="566" on="1"/>
        <pt x="90" y="566" on="0"/>
        <pt x="102" y="566" on="1"/>
        <pt x="107" y="567" on="0"/>
        <pt x="111" y="567" on="1"/>
        <pt x="143" y="567" on="0"/>
        <pt x="143" y="519" on="1"/>
        <pt x="143" y="486" on="0"/>
        <pt x="130" y="437" on="1"/>
        <pt x="90" y="276" on="0"/>
        <pt x="90" y="214" on="1"/>
        <pt x="90" y="149" on="0"/>
        <pt x="124" y="112" on="1"/>
        <pt x="146" y="88" on="0"/>
        <pt x="193" y="83" on="1"/>
        <pt x="199" y="83" on="0"/>
        <pt x="205" y="83" on="1"/>
        <pt x="368" y="83" on="0"/>
        <pt x="419" y="240" on="1"/>
        <pt x="449" y="332" on="0"/>
        <pt x="454" y="462" on="1"/>
        <pt x="457" y="522" on="0"/>
        <pt x="459" y="581" on="1"/>
        <pt x="470" y="611" on="0"/>
        <pt x="489" y="611" on="1"/>
        <pt x="508" y="611" on="0"/>
        <pt x="531" y="594" on="1"/>
        <pt x="534" y="536" on="0"/>
        <pt x="534" y="480" on="1"/>
        <pt x="524" y="98" on="1"/>
        <pt x="524" y="57" on="0"/>
      </contour>
    </TTGlyph>
    <TTGlyph name="Uacute" xMin="20" yMin="-2" xMax="534" yMax="766">
      <component glyphName="U" x="0" y="0" flags="0x1204"/>
      <component glyphName="acute" x="223" y="142" flags="0x1004"/>
    </TTGlyph>
    <TTGlyph name="Ubreve" xMin="20" yMin="-2" xMax="534" yMax="702">
      <component glyphName="U" x="0" y="0" flags="0x1204"/>
      <component glyphName="breve" x="151" y="128" flags="0x1004"/>
    </TTGlyph>
    <TTGlyph name="Ucircumflex" xMin="20" yMin="-2" xMax="534" yMax="814">
      <component glyphName="U" x="0" y="0" flags="0x1204"/>
      <component glyphName="circumflex" x="144" y="127" flags="0x1004"/>
    </TTGlyph>
    <TTGlyph name="Udieresis" xMin="20" yMin="-2" xMax="534" yMax="719">
      <component glyphName="U" x="0" y="0" flags="0x1204"/>
      <component glyphName="dieresis" x="116" y="55" flags="0x1004"/>
    </TTGlyph>
    <TTGlyph name="Ugrave" xMin="20" yMin="-2" xMax="534" yMax="723">
      <component glyphName="U" x="0" y="0" flags="0x1204"/>
      <component glyphName="grave" x="180" y="107" flags="0x1004"/>
    </TTGlyph>
    <TTGlyph name="Uhungarumlaut" xMin="20" yMin="-2" xMax="534" yMax="785">
      <component glyphName="U" x="0" y="0" flags="0x1204"/>
      <component glyphName="hungarumlaut" x="169" y="127" flags="0x1004"/>
    </TTGlyph>
    <TTGlyph name="Umacron" xMin="20" yMin="-2" xMax="534" yMax="697">
      <component glyphName="U" x="0" y="0" flags="0x1204"/>
      <component glyphName="macron" x="119" y="86" flags="0x1004"/>
    </TTGlyph>
    <TTGlyph name="Uogonek" xMin="20" yMin="-160" xMax="548" yMax="611">
      <component glyphName="U" x="0" y="0" flags="0x1204"/>
      <component glyphName="ogonek" x="330" y="25" flags="0x1004"/>
    </TTGlyph>
    <TTGlyph name="Uring" xMin="20" yMin="-2" xMax="534" yMax="766">
      <component glyphName="U" x="0" y="0" flags="0x1204"/>
      <component glyphName="ring" x="166" y="179" flags="0x1004"/>
    </TTGlyph>
    <TTGlyph name="Utilde" xMin="20" yMin="-2" xMax="534" yMax="803">
      <component glyphName="U" x="0" y="0" flags="0x1204"/>
      <component glyphName="tilde" x="66" y="149" flags="0x1004"/>
    </TTGlyph>
    <TTGlyph name="V" xMin="11" yMin="-4" xMax="626" yMax="672">
      <contour>
        <pt x="261" y="16" on="1"/>
        <pt x="234" y="88" on="0"/>
        <pt x="88" y="373" on="0"/>
        <pt x="64" y="420" on="1"/>
        <pt x="11" y="529" on="0"/>
        <pt x="11" y="548" on="1"/>
        <pt x="11" y="561" on="0"/>
        <pt x="62" y="581" on="1"/>
        <pt x="97" y="516" on="0"/>
        <pt x="158" y="387" on="0"/>
        <pt x="188" y="330" on="1"/>
        <pt x="259" y="191" on="0"/>
        <pt x="304" y="138" on="1"/>
        <pt x="320" y="154" on="0"/>
        <pt x="376" y="274" on="1"/>
        <pt x="458" y="447" on="1"/>
        <pt x="524" y="587" on="0"/>
        <pt x="543" y="630" on="1"/>
        <pt x="578" y="672" on="0"/>
        <pt x="602" y="672" on="1"/>
        <pt x="626" y="672" on="0"/>
        <pt x="626" y="630" on="1"/>
        <pt x="342" y="7" on="1"/>
        <pt x="325" y="-4" on="0"/>
        <pt x="272" y="-4" on="0"/>
      </contour>
    </TTGlyph>
    <TTGlyph name="W" xMin="14" yMin="0" xMax="947" yMax="758">
      <contour>
        <pt x="763" y="166" on="1"/>
        <pt x="813" y="328" on="0"/>
        <pt x="879" y="758" on="1"/>
        <pt x="942" y="758" on="0"/>
        <pt x="945" y="719" on="1"/>
        <pt x="946" y="707" on="0"/>
        <pt x="947" y="697" on="0"/>
        <pt x="939" y="638" on="0"/>
        <pt x="924" y="532" on="0"/>
        <pt x="902" y="392" on="0"/>
        <pt x="888" y="316" on="1"/>
        <pt x="854" y="137" on="0"/>
        <pt x="818" y="14" on="1"/>
        <pt x="782" y="-11" on="0"/>
        <pt x="762" y="6" on="1"/>
        <pt x="753" y="15" on="0"/>
        <pt x="739" y="46" on="0"/>
        <pt x="730" y="66" on="1"/>
        <pt x="717" y="83" on="0"/>
        <pt x="647" y="229" on="0"/>
        <pt x="604" y="315" on="0"/>
        <pt x="584" y="352" on="1"/>
        <pt x="538" y="435" on="0"/>
        <pt x="507" y="449" on="1"/>
        <pt x="471" y="393" on="0"/>
        <pt x="379" y="142" on="1"/>
        <pt x="363" y="98" on="0"/>
        <pt x="337" y="23" on="0"/>
        <pt x="328" y="0" on="1"/>
        <pt x="266" y="3" on="1"/>
        <pt x="16" y="581" on="1"/>
        <pt x="14" y="586" on="0"/>
        <pt x="14" y="596" on="0"/>
        <pt x="21" y="606" on="0"/>
        <pt x="30" y="610" on="1"/>
        <pt x="47" y="616" on="0"/>
        <pt x="81" y="616" on="0"/>
        <pt x="96" y="603" on="0"/>
        <pt x="105" y="583" on="0"/>
        <pt x="111" y="559" on="0"/>
        <pt x="128" y="521" on="0"/>
        <pt x="161" y="447" on="0"/>
        <pt x="199" y="365" on="0"/>
        <pt x="237" y="284" on="0"/>
        <pt x="254" y="250" on="1"/>
        <pt x="290" y="175" on="0"/>
        <pt x="299" y="166" on="1"/>
        <pt x="415" y="452" on="0"/>
        <pt x="469" y="559" on="0"/>
        <pt x="476" y="571" on="1"/>
        <pt x="487" y="588" on="0"/>
        <pt x="493" y="588" on="1"/>
        <pt x="536" y="588" on="0"/>
        <pt x="638" y="396" on="1"/>
        <pt x="666" y="345" on="0"/>
        <pt x="690" y="298" on="1"/>
        <pt x="749" y="184" on="0"/>
      </contour>
    </TTGlyph>
    <TTGlyph name="Wacute" xMin="14" yMin="0" xMax="947" yMax="855">
      <component glyphName="W" x="0" y="0" flags="0x1204"/>
      <component glyphName="acute" x="400" y="231" flags="0x1004"/>
    </TTGlyph>
    <TTGlyph name="Wcircumflex" xMin="14" yMin="0" xMax="947" yMax="880">
      <component glyphName="W" x="0" y="0" flags="0x1204"/>
      <component glyphName="circumflex" x="318" y="193" flags="0x1004"/>
    </TTGlyph>
    <TTGlyph name="Wdieresis" xMin="14" yMin="0" xMax="947" yMax="867">
      <component glyphName="W" x="0" y="0" flags="0x1204"/>
      <component glyphName="dieresis" x="293" y="203" flags="0x1004"/>
    </TTGlyph>
    <TTGlyph name="Wgrave" xMin="14" yMin="0" xMax="947" yMax="840">
      <component glyphName="W" x="0" y="0" flags="0x1204"/>
      <component glyphName="grave" x="405" y="224" flags="0x1004"/>
    </TTGlyph>
    <TTGlyph name="X" xMin="27" yMin="1" xMax="591" yMax="631">
      <contour>
        <pt x="298" y="225" on="1"/>
        <pt x="272" y="204" on="0"/>
        <pt x="227" y="132" on="0"/>
        <pt x="180" y="64" on="0"/>
        <pt x="128" y="14" on="0"/>
        <pt x="67" y="14" on="0"/>
        <pt x="43" y="31" on="0"/>
        <pt x="43" y="58" on="0"/>
        <pt x="44" y="66" on="1"/>
        <pt x="234" y="291" on="1"/>
        <pt x="182" y="355" on="0"/>
        <pt x="111" y="445" on="0"/>
        <pt x="65" y="503" on="0"/>
        <pt x="40" y="536" on="0"/>
        <pt x="29" y="551" on="0"/>
        <pt x="27" y="555" on="1"/>
        <pt x="27" y="575" on="0"/>
        <pt x="54" y="583" on="1"/>
        <pt x="77" y="590" on="0"/>
        <pt x="94" y="581" on="1"/>
        <pt x="286" y="349" on="1"/>
        <pt x="525" y="631" on="1"/>
        <pt x="583" y="584" on="1"/>
        <pt x="343" y="299" on="1"/>
        <pt x="377" y="253" on="0"/>
        <pt x="464" y="188" on="0"/>
        <pt x="540" y="131" on="0"/>
        <pt x="591" y="73" on="0"/>
        <pt x="591" y="34" on="1"/>
        <pt x="588" y="11" on="0"/>
        <pt x="570" y="3" on="1"/>
        <pt x="566" y="1" on="0"/>
        <pt x="546" y="1" on="0"/>
        <pt x="526" y="16" on="1"/>
      </contour>
    </TTGlyph>
    <TTGlyph name="Y" xMin="28" yMin="-18" xMax="530" yMax="665">
      <contour>
        <pt x="278" y="-18" on="1"/>
        <pt x="262" y="-18" on="0"/>
        <pt x="244" y="-8" on="1"/>
        <pt x="209" y="13" on="0"/>
        <pt x="216" y="29" on="1"/>
        <pt x="228" y="50" on="0"/>
        <pt x="247" y="113" on="1"/>
        <pt x="274" y="203" on="1"/>
        <pt x="288" y="246" on="0"/>
        <pt x="302" y="298" on="1"/>
        <pt x="35" y="570" on="1"/>
        <pt x="28" y="579" on="0"/>
        <pt x="28" y="593" on="0"/>
        <pt x="36" y="597" on="1"/>
        <pt x="49" y="603" on="0"/>
        <pt x="86" y="603" on="0"/>
        <pt x="125" y="591" on="0"/>
        <pt x="154" y="567" on="1"/>
        <pt x="211" y="519" on="0"/>
        <pt x="341" y="364" on="1"/>
        <pt x="400" y="536" on="0"/>
        <pt x="452" y="635" on="0"/>
        <pt x="483" y="664" on="0"/>
        <pt x="508" y="666" on="0"/>
        <pt x="526" y="662" on="0"/>
        <pt x="530" y="650" on="1"/>
        <pt x="499" y="584" on="0"/>
        <pt x="442" y="417" on="0"/>
        <pt x="412" y="328" on="1"/>
        <pt x="333" y="92" on="0"/>
      </contour>
    </TTGlyph>
    <TTGlyph name="Yacute" xMin="28" yMin="-18" xMax="530" yMax="786">
      <component glyphName="Y" x="0" y="0" flags="0x1204"/>
      <component glyphName="acute" x="227" y="162" flags="0x1004"/>
    </TTGlyph>
    <TTGlyph name="Ycircumflex" xMin="28" yMin="-18" xMax="530" yMax="853">
      <component glyphName="Y" x="0" y="0" flags="0x1204"/>
      <component glyphName="circumflex" x="110" y="166" flags="0x1004"/>
    </TTGlyph>
    <TTGlyph name="Ydieresis" xMin="28" yMin="-18" xMax="530" yMax="702">
      <component glyphName="Y" x="0" y="0" flags="0x1204"/>
      <component glyphName="dieresis" x="88" y="38" flags="0x1004"/>
    </TTGlyph>
    <TTGlyph name="Ygrave" xMin="28" yMin="-18" xMax="530" yMax="816">
      <component glyphName="Y" x="0" y="0" flags="0x1204"/>
      <component glyphName="grave" x="197" y="200" flags="0x1004"/>
    </TTGlyph>
    <TTGlyph name="Z" xMin="28" yMin="-3" xMax="770" yMax="599">
      <contour>
        <pt x="770" y="16" on="1"/>
        <pt x="523" y="-3" on="0"/>
        <pt x="316" y="-3" on="1"/>
        <pt x="28" y="-3" on="0"/>
        <pt x="28" y="34" on="1"/>
        <pt x="28" y="42" on="0"/>
        <pt x="38" y="50" on="1"/>
        <pt x="470" y="532" on="1"/>
        <pt x="430" y="534" on="0"/>
        <pt x="379" y="534" on="0"/>
        <pt x="315" y="533" on="0"/>
        <pt x="265" y="529" on="1"/>
        <pt x="118" y="517" on="0"/>
        <pt x="62" y="514" on="1"/>
        <pt x="47" y="514" on="0"/>
        <pt x="40" y="532" on="0"/>
        <pt x="38" y="565" on="1"/>
        <pt x="261" y="589" on="0"/>
        <pt x="547" y="599" on="1"/>
        <pt x="561" y="599" on="0"/>
        <pt x="587" y="591" on="0"/>
        <pt x="587" y="574" on="1"/>
        <pt x="559" y="496" on="0"/>
        <pt x="394" y="320" on="1"/>
        <pt x="200" y="114" on="0"/>
        <pt x="169" y="73" on="1"/>
        <pt x="224" y="62" on="0"/>
        <pt x="372" y="62" on="0"/>
        <pt x="524" y="71" on="0"/>
        <pt x="688" y="85" on="0"/>
        <pt x="762" y="90" on="1"/>
      </contour>
    </TTGlyph>
    <TTGlyph name="Zacute" xMin="28" yMin="-3" xMax="770" yMax="779">
      <component glyphName="Z" x="0" y="0" flags="0x1204"/>
      <component glyphName="acute" x="290" y="155" flags="0x1004"/>
    </TTGlyph>
    <TTGlyph name="Zcaron" xMin="28" yMin="-3" xMax="770" yMax="788">
      <component glyphName="Z" x="0" y="0" flags="0x1204"/>
      <component glyphName="caron" x="185" y="214" flags="0x1004"/>
    </TTGlyph>
    <TTGlyph name="Zdotaccent" xMin="28" yMin="-3" xMax="770" yMax="731">
      <component glyphName="Z" x="0" y="0" flags="0x1204"/>
      <component glyphName="dotaccent" x="245" y="179" flags="0x1004"/>
    </TTGlyph>
    <TTGlyph name="a" xMin="18" yMin="6" xMax="501" yMax="454">
      <contour>
        <pt x="420" y="166" on="1"/>
        <pt x="345" y="48" on="0"/>
        <pt x="220" y="20" on="1"/>
        <pt x="191" y="14" on="0"/>
        <pt x="144" y="14" on="0"/>
        <pt x="113" y="15" on="0"/>
        <pt x="75" y="23" on="0"/>
        <pt x="59" y="32" on="1"/>
        <pt x="22" y="53" on="0"/>
        <pt x="22" y="91" on="1"/>
        <pt x="18" y="109" on="0"/>
        <pt x="18" y="154" on="0"/>
        <pt x="38" y="228" on="0"/>
        <pt x="91" y="314" on="0"/>
        <pt x="129" y="350" on="1"/>
        <pt x="208" y="426" on="0"/>
        <pt x="300" y="448" on="1"/>
        <pt x="327" y="454" on="0"/>
        <pt x="372" y="454" on="0"/>
        <pt x="390" y="451" on="1"/>
        <pt x="448" y="451" on="0"/>
        <pt x="468" y="372" on="1"/>
        <pt x="481" y="322" on="0"/>
        <pt x="486" y="143" on="0"/>
        <pt x="491" y="46" on="0"/>
        <pt x="501" y="6" on="1"/>
        <pt x="442" y="6" on="1"/>
        <pt x="438" y="33" on="0"/>
        <pt x="434" y="75" on="0"/>
        <pt x="432" y="93" on="1"/>
        <pt x="427" y="135" on="0"/>
      </contour>
      <contour>
        <pt x="416" y="321" on="1"/>
        <pt x="416" y="379" on="0"/>
        <pt x="359" y="379" on="1"/>
        <pt x="352" y="380" on="0"/>
        <pt x="345" y="380" on="1"/>
        <pt x="272" y="380" on="0"/>
        <pt x="191" y="310" on="1"/>
        <pt x="153" y="278" on="0"/>
        <pt x="126" y="238" on="1"/>
        <pt x="86" y="181" on="0"/>
        <pt x="86" y="136" on="1"/>
        <pt x="86" y="77" on="0"/>
        <pt x="154" y="66" on="1"/>
        <pt x="244" y="68" on="0"/>
        <pt x="326" y="148" on="1"/>
        <pt x="361" y="183" on="0"/>
        <pt x="384" y="224" on="1"/>
        <pt x="416" y="279" on="0"/>
      </contour>
    </TTGlyph>
    <TTGlyph name="aacute" xMin="18" yMin="6" xMax="501" yMax="624">
      <component glyphName="a" x="0" y="0" flags="0x1204"/>
      <component glyphName="acute" x="176" y="0" flags="0x1004"/>
    </TTGlyph>
    <TTGlyph name="abreve" xMin="18" yMin="6" xMax="501" yMax="574">
      <component glyphName="a" x="0" y="0" flags="0x1204"/>
      <component glyphName="breve" x="128" y="0" flags="0x1004"/>
    </TTGlyph>
    <TTGlyph name="acircumflex" xMin="18" yMin="6" xMax="501" yMax="687">
      <component glyphName="a" x="0" y="0" flags="0x1204"/>
      <component glyphName="circumflex" x="96" y="0" flags="0x1004"/>
    </TTGlyph>
    <TTGlyph name="acute" xMin="25" yMin="498" xMax="143" yMax="624">
      <contour>
        <pt x="94" y="605" on="1"/>
        <pt x="108" y="624" on="0"/>
        <pt x="124" y="624" on="1"/>
        <pt x="134" y="624" on="0"/>
        <pt x="144" y="605" on="0"/>
        <pt x="142" y="587" on="0"/>
        <pt x="134" y="571" on="0"/>
        <pt x="125" y="560" on="1"/>
        <pt x="108" y="541" on="0"/>
        <pt x="56" y="498" on="1"/>
        <pt x="25" y="526" on="1"/>
      </contour>
    </TTGlyph>
    <TTGlyph name="adieresis" xMin="18" yMin="6" xMax="501" yMax="664">
      <component glyphName="a" x="0" y="0" flags="0x1204"/>
      <component glyphName="dieresis" x="78" y="0" flags="0x1004"/>
    </TTGlyph>
    <TTGlyph name="ae" xMin="18" yMin="-10" xMax="939" yMax="454">
      <component glyphName="a" x="0" y="0" flags="0x1004"/>
      <component glyphName="e" x="418" y="-16" flags="0x1004"/>
    </TTGlyph>
    <TTGlyph name="aeacute" xMin="18" yMin="-10" xMax="939" yMax="624">
      <component glyphName="a" x="0" y="0" flags="0x1004"/>
      <component glyphName="e" x="418" y="-16" flags="0x1004"/>
      <component glyphName="acute" x="388" y="0" flags="0x1004"/>
    </TTGlyph>
    <TTGlyph name="agrave" xMin="18" yMin="6" xMax="501" yMax="616">
      <component glyphName="a" x="0" y="0" flags="0x1204"/>
      <component glyphName="grave" x="163" y="0" flags="0x1004"/>
    </TTGlyph>
    <TTGlyph name="amacron" xMin="18" yMin="6" xMax="501" yMax="611">
      <component glyphName="a" x="0" y="0" flags="0x1204"/>
      <component glyphName="macron" x="85" y="0" flags="0x1004"/>
    </TTGlyph>
    <TTGlyph name="ampersand" xMin="5" yMin="-2" xMax="682" yMax="791">
      <contour>
        <pt x="622" y="76" on="1"/>
        <pt x="622" y="48" on="0"/>
        <pt x="578" y="48" on="1"/>
        <pt x="549" y="48" on="0"/>
        <pt x="503" y="75" on="1"/>
        <pt x="486" y="85" on="0"/>
        <pt x="451" y="102" on="0"/>
        <pt x="430" y="102" on="1"/>
        <pt x="399" y="86" on="0"/>
        <pt x="362" y="66" on="1"/>
        <pt x="234" y="-2" on="0"/>
        <pt x="137" y="-2" on="1"/>
        <pt x="105" y="0" on="1"/>
        <pt x="104" y="0" on="0"/>
        <pt x="95" y="0" on="0"/>
        <pt x="78" y="4" on="1"/>
        <pt x="34" y="15" on="0"/>
        <pt x="12" y="35" on="1"/>
        <pt x="5" y="42" on="0"/>
        <pt x="5" y="55" on="0"/>
        <pt x="7" y="59" on="1"/>
        <pt x="189" y="349" on="1"/>
        <pt x="145" y="425" on="0"/>
        <pt x="134" y="456" on="1"/>
        <pt x="118" y="505" on="0"/>
        <pt x="118" y="571" on="1"/>
        <pt x="126" y="673" on="0"/>
        <pt x="186" y="740" on="1"/>
        <pt x="233" y="791" on="0"/>
        <pt x="280" y="791" on="1"/>
        <pt x="316" y="791" on="0"/>
        <pt x="335" y="756" on="1"/>
        <pt x="348" y="734" on="0"/>
        <pt x="348" y="694" on="1"/>
        <pt x="348" y="577" on="0"/>
        <pt x="238" y="366" on="1"/>
        <pt x="241" y="326" on="0"/>
        <pt x="332" y="250" on="1"/>
        <pt x="376" y="213" on="0"/>
        <pt x="438" y="177" on="0"/>
        <pt x="446" y="177" on="1"/>
        <pt x="503" y="209" on="0"/>
        <pt x="545" y="251" on="0"/>
        <pt x="565" y="277" on="0"/>
        <pt x="577" y="292" on="1"/>
        <pt x="607" y="331" on="0"/>
        <pt x="649" y="370" on="1"/>
        <pt x="659" y="370" on="0"/>
        <pt x="683" y="351" on="0"/>
        <pt x="681" y="346" on="0"/>
        <pt x="665" y="316" on="0"/>
        <pt x="644" y="290" on="1"/>
        <pt x="590" y="224" on="0"/>
        <pt x="487" y="149" on="1"/>
        <pt x="622" y="82" on="0"/>
      </contour>
      <contour>
        <pt x="80" y="62" on="1"/>
        <pt x="80" y="44" on="0"/>
        <pt x="97" y="44" on="1"/>
        <pt x="100" y="44" on="0"/>
        <pt x="147" y="45" on="0"/>
        <pt x="218" y="56" on="0"/>
        <pt x="251" y="67" on="1"/>
        <pt x="308" y="86" on="0"/>
        <pt x="387" y="133" on="1"/>
        <pt x="221" y="299" on="1"/>
        <pt x="197" y="275" on="0"/>
        <pt x="165" y="227" on="1"/>
        <pt x="80" y="103" on="0"/>
      </contour>
      <contour>
        <pt x="205" y="415" on="1"/>
        <pt x="251" y="441" on="0"/>
        <pt x="277" y="534" on="1"/>
        <pt x="297" y="605" on="0"/>
        <pt x="297" y="677" on="1"/>
        <pt x="298" y="703" on="1"/>
        <pt x="298" y="721" on="0"/>
        <pt x="281" y="731" on="0"/>
        <pt x="238" y="731" on="0"/>
        <pt x="200" y="694" on="0"/>
        <pt x="188" y="667" on="1"/>
        <pt x="166" y="618" on="0"/>
        <pt x="166" y="474" on="0"/>
      </contour>
    </TTGlyph>
    <TTGlyph name="aogonek" xMin="18" yMin="-175" xMax="536" yMax="454">
      <component glyphName="a" x="0" y="0" flags="0x1204"/>
      <component glyphName="ogonek" x="318" y="10" flags="0x1004"/>
    </TTGlyph>
    <TTGlyph name="aring" xMin="18" yMin="6" xMax="501" yMax="546">
      <component glyphName="a" x="0" y="0" flags="0x1204"/>
      <component glyphName="ring" x="154" y="-41" flags="0x1004"/>
    </TTGlyph>
    <TTGlyph name="asciicircum" xMin="18" yMin="510" xMax="300" yMax="687">
      <contour>
        <pt x="41" y="510" on="0"/>
        <pt x="18" y="520" on="0"/>
        <pt x="18" y="558" on="0"/>
        <pt x="39" y="594" on="0"/>
        <pt x="58" y="614" on="1"/>
        <pt x="100" y="658" on="0"/>
        <pt x="162" y="687" on="1"/>
        <pt x="213" y="654" on="0"/>
        <pt x="230" y="640" on="1"/>
        <pt x="258" y="615" on="0"/>
        <pt x="294" y="559" on="1"/>
        <pt x="300" y="547" on="0"/>
        <pt x="300" y="526" on="0"/>
        <pt x="296" y="520" on="1"/>
        <pt x="285" y="504" on="0"/>
        <pt x="260" y="519" on="1"/>
        <pt x="223" y="546" on="0"/>
        <pt x="210" y="558" on="0"/>
        <pt x="186" y="584" on="0"/>
        <pt x="155" y="614" on="1"/>
        <pt x="94" y="572" on="0"/>
        <pt x="72" y="536" on="1"/>
        <pt x="65" y="524" on="0"/>
        <pt x="59" y="510" on="1"/>
      </contour>
    </TTGlyph>
    <TTGlyph name="asciitilde" xMin="26" yMin="486" xMax="432" yMax="654">
      <contour>
        <pt x="148" y="567" on="1"/>
        <pt x="116" y="567" on="0"/>
        <pt x="62" y="486" on="1"/>
        <pt x="56" y="486" on="0"/>
        <pt x="29" y="494" on="0"/>
        <pt x="26" y="507" on="1"/>
        <pt x="41" y="555" on="0"/>
        <pt x="101" y="629" on="0"/>
        <pt x="134" y="642" on="1"/>
        <pt x="142" y="645" on="0"/>
        <pt x="162" y="645" on="0"/>
        <pt x="191" y="624" on="0"/>
        <pt x="227" y="586" on="0"/>
        <pt x="265" y="552" on="0"/>
        <pt x="308" y="552" on="0"/>
        <pt x="333" y="566" on="0"/>
        <pt x="354" y="592" on="0"/>
        <pt x="379" y="630" on="0"/>
        <pt x="402" y="654" on="1"/>
        <pt x="408" y="654" on="0"/>
        <pt x="431" y="639" on="0"/>
        <pt x="432" y="624" on="0"/>
        <pt x="432" y="602" on="0"/>
        <pt x="416" y="565" on="0"/>
        <pt x="398" y="546" on="1"/>
        <pt x="347" y="496" on="0"/>
        <pt x="283" y="496" on="1"/>
        <pt x="237" y="496" on="0"/>
        <pt x="210" y="526" on="1"/>
        <pt x="190" y="544" on="0"/>
        <pt x="162" y="567" on="0"/>
      </contour>
    </TTGlyph>
    <TTGlyph name="asterisk" xMin="39" yMin="113" xMax="526" yMax="699">
      <contour>
        <pt x="82" y="190" on="1"/>
        <pt x="153" y="319" on="0"/>
        <pt x="159" y="371" on="1"/>
        <pt x="159" y="393" on="0"/>
        <pt x="123" y="416" on="1"/>
        <pt x="108" y="425" on="0"/>
        <pt x="92" y="434" on="1"/>
        <pt x="39" y="465" on="0"/>
        <pt x="39" y="506" on="1"/>
        <pt x="39" y="516" on="0"/>
        <pt x="42" y="528" on="1"/>
        <pt x="79" y="527" on="0"/>
        <pt x="125" y="501" on="0"/>
        <pt x="144" y="488" on="1"/>
        <pt x="183" y="460" on="0"/>
        <pt x="205" y="460" on="1"/>
        <pt x="215" y="460" on="0"/>
        <pt x="225" y="462" on="1"/>
        <pt x="307" y="678" on="1"/>
        <pt x="315" y="699" on="0"/>
        <pt x="363" y="699" on="1"/>
        <pt x="363" y="662" on="0"/>
        <pt x="342" y="555" on="0"/>
        <pt x="332" y="497" on="0"/>
        <pt x="332" y="466" on="1"/>
        <pt x="363" y="466" on="0"/>
        <pt x="453" y="489" on="0"/>
        <pt x="500" y="500" on="0"/>
        <pt x="526" y="500" on="1"/>
        <pt x="526" y="468" on="0"/>
        <pt x="496" y="433" on="0"/>
        <pt x="450" y="412" on="0"/>
        <pt x="398" y="399" on="0"/>
        <pt x="375" y="389" on="1"/>
        <pt x="322" y="366" on="0"/>
        <pt x="322" y="314" on="1"/>
        <pt x="322" y="284" on="0"/>
        <pt x="334" y="249" on="1"/>
        <pt x="358" y="183" on="0"/>
        <pt x="358" y="136" on="0"/>
        <pt x="329" y="122" on="0"/>
        <pt x="307" y="113" on="1"/>
        <pt x="287" y="123" on="0"/>
        <pt x="271" y="164" on="0"/>
        <pt x="261" y="211" on="0"/>
        <pt x="245" y="252" on="0"/>
        <pt x="225" y="262" on="1"/>
        <pt x="207" y="247" on="0"/>
        <pt x="176" y="202" on="0"/>
        <pt x="141" y="160" on="0"/>
        <pt x="101" y="130" on="0"/>
        <pt x="75" y="130" on="1"/>
        <pt x="71" y="130" on="0"/>
        <pt x="58" y="142" on="0"/>
        <pt x="58" y="146" on="1"/>
        <pt x="67" y="164" on="0"/>
      </contour>
    </TTGlyph>
    <TTGlyph name="at" xMin="27" yMin="-5" xMax="1042" yMax="682">
      <contour>
        <pt x="592" y="342" on="1"/>
        <pt x="485" y="251" on="0"/>
        <pt x="408" y="251" on="1"/>
        <pt x="372" y="251" on="0"/>
        <pt x="352" y="272" on="1"/>
        <pt x="329" y="295" on="0"/>
        <pt x="329" y="352" on="0"/>
        <pt x="343" y="381" on="1"/>
        <pt x="373" y="448" on="0"/>
        <pt x="470" y="482" on="1"/>
        <pt x="518" y="498" on="0"/>
        <pt x="584" y="498" on="1"/>
        <pt x="588" y="498" on="0"/>
        <pt x="600" y="499" on="0"/>
        <pt x="625" y="499" on="0"/>
        <pt x="650" y="486" on="0"/>
        <pt x="666" y="460" on="0"/>
        <pt x="673" y="428" on="0"/>
        <pt x="680" y="414" on="1"/>
        <pt x="695" y="381" on="0"/>
        <pt x="729" y="381" on="1"/>
        <pt x="810" y="381" on="0"/>
        <pt x="810" y="439" on="1"/>
        <pt x="801" y="519" on="0"/>
        <pt x="711" y="576" on="1"/>
        <pt x="630" y="628" on="0"/>
        <pt x="534" y="635" on="1"/>
        <pt x="450" y="635" on="0"/>
        <pt x="296" y="574" on="0"/>
        <pt x="179" y="465" on="0"/>
        <pt x="109" y="315" on="0"/>
        <pt x="109" y="226" on="1"/>
        <pt x="141" y="131" on="0"/>
        <pt x="256" y="86" on="1"/>
        <pt x="321" y="61" on="0"/>
        <pt x="432" y="48" on="1"/>
        <pt x="516" y="55" on="0"/>
        <pt x="669" y="74" on="0"/>
        <pt x="738" y="95" on="1"/>
        <pt x="887" y="140" on="0"/>
        <pt x="991" y="249" on="1"/>
        <pt x="998" y="252" on="0"/>
        <pt x="1013" y="252" on="0"/>
        <pt x="1040" y="241" on="0"/>
        <pt x="1042" y="225" on="1"/>
        <pt x="1040" y="144" on="0"/>
        <pt x="892" y="82" on="1"/>
        <pt x="774" y="32" on="0"/>
        <pt x="604" y="8" on="1"/>
        <pt x="516" y="-5" on="0"/>
        <pt x="423" y="-5" on="0"/>
        <pt x="411" y="-1" on="1"/>
        <pt x="273" y="-1" on="0"/>
        <pt x="170" y="36" on="1"/>
        <pt x="84" y="66" on="0"/>
        <pt x="46" y="129" on="1"/>
        <pt x="27" y="162" on="0"/>
        <pt x="27" y="207" on="1"/>
        <pt x="27" y="304" on="0"/>
        <pt x="108" y="477" on="0"/>
        <pt x="243" y="607" on="0"/>
        <pt x="418" y="682" on="0"/>
        <pt x="513" y="682" on="1"/>
        <pt x="649" y="682" on="0"/>
        <pt x="746" y="624" on="1"/>
        <pt x="796" y="593" on="0"/>
        <pt x="860" y="496" on="0"/>
        <pt x="860" y="380" on="0"/>
        <pt x="830" y="352" on="1"/>
        <pt x="784" y="308" on="0"/>
        <pt x="638" y="308" on="0"/>
      </contour>
      <contour>
        <pt x="574" y="420" on="1"/>
        <pt x="570" y="440" on="0"/>
        <pt x="540" y="440" on="1"/>
        <pt x="506" y="440" on="0"/>
        <pt x="470" y="423" on="1"/>
        <pt x="403" y="391" on="0"/>
        <pt x="384" y="354" on="1"/>
        <pt x="378" y="343" on="0"/>
        <pt x="378" y="326" on="0"/>
        <pt x="382" y="318" on="1"/>
        <pt x="388" y="310" on="0"/>
        <pt x="410" y="310" on="0"/>
        <pt x="444" y="314" on="0"/>
        <pt x="476" y="328" on="1"/>
        <pt x="554" y="364" on="0"/>
      </contour>
    </TTGlyph>
    <TTGlyph name="atilde" xMin="18" yMin="6" xMax="501" yMax="654">
      <component glyphName="a" x="0" y="0" flags="0x1204"/>
      <component glyphName="tilde" x="29" y="0" flags="0x1004"/>
    </TTGlyph>
    <TTGlyph name="b" xMin="30" yMin="7" xMax="555" yMax="743">
      <contour>
        <pt x="33" y="580" on="1"/>
        <pt x="30" y="709" on="1"/>
        <pt x="30" y="725" on="0"/>
        <pt x="52" y="743" on="0"/>
        <pt x="84" y="743" on="0"/>
        <pt x="110" y="726" on="0"/>
        <pt x="107" y="711" on="1"/>
        <pt x="114" y="279" on="1"/>
        <pt x="177" y="363" on="0"/>
        <pt x="284" y="420" on="1"/>
        <pt x="373" y="468" on="0"/>
        <pt x="440" y="468" on="1"/>
        <pt x="499" y="468" on="0"/>
        <pt x="531" y="430" on="1"/>
        <pt x="555" y="400" on="0"/>
        <pt x="555" y="301" on="0"/>
        <pt x="518" y="228" on="0"/>
        <pt x="458" y="161" on="0"/>
        <pt x="380" y="103" on="0"/>
        <pt x="340" y="80" on="1"/>
        <pt x="264" y="36" on="0"/>
        <pt x="190" y="7" on="1"/>
        <pt x="184" y="9" on="0"/>
        <pt x="156" y="7" on="0"/>
        <pt x="136" y="7" on="1"/>
        <pt x="82" y="7" on="0"/>
        <pt x="41" y="20" on="1"/>
        <pt x="31" y="115" on="0"/>
        <pt x="31" y="309" on="1"/>
      </contour>
      <contour>
        <pt x="117" y="89" on="1"/>
        <pt x="117" y="78" on="0"/>
        <pt x="158" y="78" on="0"/>
        <pt x="218" y="94" on="0"/>
        <pt x="303" y="133" on="0"/>
        <pt x="346" y="164" on="1"/>
        <pt x="446" y="235" on="0"/>
        <pt x="497" y="331" on="1"/>
        <pt x="484" y="388" on="0"/>
        <pt x="419" y="388" on="1"/>
        <pt x="360" y="388" on="0"/>
        <pt x="286" y="344" on="1"/>
        <pt x="181" y="281" on="0"/>
        <pt x="136" y="188" on="1"/>
        <pt x="117" y="151" on="0"/>
        <pt x="117" y="113" on="1"/>
        <pt x="117" y="103" on="0"/>
        <pt x="117" y="91" on="0"/>
      </contour>
    </TTGlyph>
    <TTGlyph name="backslash" xMin="0" yMin="-2" xMax="494" yMax="600">
      <contour>
        <pt x="442" y="-2" on="1"/>
        <pt x="200" y="270" on="0"/>
        <pt x="28" y="540" on="1"/>
        <pt x="0" y="585" on="0"/>
        <pt x="0" y="587" on="1"/>
        <pt x="0" y="588" on="0"/>
        <pt x="10" y="573" on="1"/>
        <pt x="10" y="592" on="0"/>
        <pt x="39" y="600" on="0"/>
        <pt x="54" y="600" on="1"/>
        <pt x="112" y="543" on="0"/>
        <pt x="214" y="395" on="0"/>
        <pt x="317" y="241" on="0"/>
        <pt x="428" y="96" on="0"/>
        <pt x="494" y="42" on="1"/>
        <pt x="494" y="22" on="0"/>
        <pt x="460" y="-2" on="0"/>
      </contour>
    </TTGlyph>
    <TTGlyph name="bar" xMin="52" yMin="-70" xMax="111" yMax="980">
      <contour>
        <pt x="103" y="-68" on="1"/>
        <pt x="77" y="-68" on="1"/>
        <pt x="59" y="-68" on="0"/>
        <pt x="55" y="-70" on="1"/>
        <pt x="52" y="980" on="1"/>
        <pt x="111" y="980" on="1"/>
        <pt x="111" y="-66" on="1"/>
        <pt x="111" y="-68" on="0"/>
      </contour>
    </TTGlyph>
    <TTGlyph name="braceleft" xMin="52" yMin="-138" xMax="435" yMax="1010">
      <contour>
        <pt x="263" y="928" on="0"/>
        <pt x="240" y="876" on="0"/>
        <pt x="228" y="783" on="0"/>
        <pt x="228" y="637" on="0"/>
        <pt x="238" y="524" on="1"/>
        <pt x="238" y="503" on="0"/>
        <pt x="207" y="476" on="0"/>
        <pt x="169" y="453" on="0"/>
        <pt x="138" y="429" on="0"/>
        <pt x="138" y="410" on="1"/>
        <pt x="136" y="405" on="0"/>
        <pt x="136" y="388" on="0"/>
        <pt x="147" y="370" on="1"/>
        <pt x="173" y="331" on="0"/>
        <pt x="223" y="299" on="1"/>
        <pt x="244" y="286" on="0"/>
        <pt x="253" y="286" on="0"/>
        <pt x="254" y="286" on="1"/>
        <pt x="248" y="227" on="0"/>
        <pt x="248" y="150" on="0"/>
        <pt x="257" y="61" on="0"/>
        <pt x="290" y="-15" on="0"/>
        <pt x="337" y="-50" on="0"/>
        <pt x="384" y="-63" on="0"/>
        <pt x="425" y="-63" on="0"/>
        <pt x="435" y="-66" on="1"/>
        <pt x="431" y="-138" on="1"/>
        <pt x="263" y="-127" on="0"/>
        <pt x="220" y="-2" on="1"/>
        <pt x="198" y="61" on="0"/>
        <pt x="188" y="213" on="0"/>
        <pt x="183" y="259" on="1"/>
        <pt x="177" y="271" on="0"/>
        <pt x="139" y="299" on="0"/>
        <pt x="118" y="316" on="1"/>
        <pt x="61" y="362" on="0"/>
        <pt x="52" y="404" on="1"/>
        <pt x="57" y="441" on="0"/>
        <pt x="89" y="482" on="0"/>
        <pt x="126" y="509" on="0"/>
        <pt x="162" y="534" on="0"/>
        <pt x="172" y="557" on="1"/>
        <pt x="170" y="595" on="0"/>
        <pt x="166" y="643" on="1"/>
        <pt x="160" y="703" on="0"/>
        <pt x="160" y="799" on="0"/>
        <pt x="171" y="888" on="0"/>
        <pt x="190" y="926" on="1"/>
        <pt x="232" y="1010" on="0"/>
        <pt x="338" y="1010" on="1"/>
        <pt x="338" y="956" on="1"/>
        <pt x="297" y="959" on="0"/>
      </contour>
    </TTGlyph>
    <TTGlyph name="braceright" xMin="24" yMin="-218" xMax="425" yMax="910">
      <contour>
        <pt x="28" y="-218" on="1"/>
        <pt x="24" y="-146" on="1"/>
        <pt x="34" y="-143" on="0"/>
        <pt x="77" y="-143" on="0"/>
        <pt x="125" y="-130" on="0"/>
        <pt x="150" y="-112" on="1"/>
        <pt x="219" y="-63" on="0"/>
        <pt x="219" y="97" on="1"/>
        <pt x="219" y="143" on="0"/>
        <pt x="213" y="202" on="1"/>
        <pt x="214" y="202" on="0"/>
        <pt x="224" y="202" on="0"/>
        <pt x="245" y="215" on="1"/>
        <pt x="298" y="246" on="0"/>
        <pt x="325" y="288" on="1"/>
        <pt x="334" y="303" on="0"/>
        <pt x="334" y="319" on="0"/>
        <pt x="332" y="324" on="1"/>
        <pt x="332" y="343" on="0"/>
        <pt x="299" y="367" on="0"/>
        <pt x="260" y="389" on="0"/>
        <pt x="228" y="416" on="0"/>
        <pt x="229" y="470" on="0"/>
        <pt x="229" y="560" on="0"/>
        <pt x="216" y="676" on="0"/>
        <pt x="185" y="767" on="0"/>
        <pt x="143" y="817" on="0"/>
        <pt x="101" y="844" on="0"/>
        <pt x="63" y="852" on="0"/>
        <pt x="52" y="856" on="1"/>
        <pt x="52" y="910" on="1"/>
        <pt x="162" y="910" on="0"/>
        <pt x="225" y="828" on="1"/>
        <pt x="273" y="766" on="0"/>
        <pt x="290" y="650" on="1"/>
        <pt x="299" y="597" on="0"/>
        <pt x="299" y="494" on="0"/>
        <pt x="298" y="469" on="1"/>
        <pt x="308" y="446" on="0"/>
        <pt x="348" y="413" on="0"/>
        <pt x="390" y="382" on="0"/>
        <pt x="422" y="348" on="0"/>
        <pt x="425" y="325" on="1"/>
        <pt x="423" y="275" on="0"/>
        <pt x="360" y="226" on="1"/>
        <pt x="336" y="207" on="0"/>
        <pt x="292" y="182" on="0"/>
        <pt x="286" y="175" on="1"/>
        <pt x="281" y="130" on="0"/>
        <pt x="275" y="39" on="0"/>
        <pt x="261" y="-46" on="0"/>
        <pt x="234" y="-120" on="0"/>
        <pt x="207" y="-148" on="1"/>
        <pt x="150" y="-209" on="0"/>
      </contour>
    </TTGlyph>
    <TTGlyph name="bracketleft" xMin="31" yMin="-84" xMax="406" yMax="834">
      <contour>
        <pt x="31" y="779" on="1"/>
        <pt x="64" y="784" on="0"/>
        <pt x="143" y="802" on="0"/>
        <pt x="184" y="811" on="1"/>
        <pt x="287" y="834" on="0"/>
        <pt x="334" y="834" on="1"/>
        <pt x="334" y="821" on="0"/>
        <pt x="339" y="793" on="0"/>
        <pt x="328" y="787" on="1"/>
        <pt x="310" y="782" on="0"/>
        <pt x="242" y="769" on="0"/>
        <pt x="206" y="760" on="1"/>
        <pt x="118" y="740" on="0"/>
        <pt x="93" y="722" on="1"/>
        <pt x="92" y="690" on="0"/>
        <pt x="92" y="598" on="0"/>
        <pt x="104" y="452" on="0"/>
        <pt x="124" y="276" on="0"/>
        <pt x="142" y="100" on="0"/>
        <pt x="142" y="7" on="1"/>
        <pt x="397" y="42" on="1"/>
        <pt x="397" y="37" on="0"/>
        <pt x="402" y="15" on="0"/>
        <pt x="406" y="-10" on="0"/>
        <pt x="406" y="-30" on="0"/>
        <pt x="401" y="-31" on="1"/>
        <pt x="65" y="-84" on="1"/>
      </contour>
    </TTGlyph>
    <TTGlyph name="bracketright" xMin="0" yMin="-97" xMax="459" yMax="819">
      <contour>
        <pt x="419" y="658" on="1"/>
        <pt x="419" y="348" on="0"/>
        <pt x="459" y="-69" on="1"/>
        <pt x="450" y="-70" on="0"/>
        <pt x="392" y="-75" on="0"/>
        <pt x="315" y="-82" on="0"/>
        <pt x="227" y="-88" on="0"/>
        <pt x="188" y="-91" on="1"/>
        <pt x="111" y="-97" on="0"/>
        <pt x="83" y="-97" on="1"/>
        <pt x="80" y="-97" on="0"/>
        <pt x="80" y="-42" on="1"/>
        <pt x="130" y="-39" on="0"/>
        <pt x="176" y="-39" on="1"/>
        <pt x="196" y="-40" on="1"/>
        <pt x="305" y="-40" on="0"/>
        <pt x="346" y="8" on="1"/>
        <pt x="370" y="35" on="0"/>
        <pt x="370" y="170" on="0"/>
        <pt x="363" y="337" on="0"/>
        <pt x="356" y="422" on="1"/>
        <pt x="343" y="595" on="0"/>
        <pt x="321" y="749" on="1"/>
        <pt x="310" y="750" on="0"/>
        <pt x="272" y="750" on="0"/>
        <pt x="211" y="738" on="0"/>
        <pt x="176" y="729" on="1"/>
        <pt x="79" y="704" on="0"/>
        <pt x="31" y="704" on="1"/>
        <pt x="28" y="704" on="0"/>
        <pt x="20" y="709" on="1"/>
        <pt x="0" y="723" on="0"/>
        <pt x="0" y="755" on="0"/>
        <pt x="9" y="766" on="1"/>
        <pt x="9" y="768" on="0"/>
        <pt x="261" y="804" on="0"/>
        <pt x="332" y="813" on="0"/>
        <pt x="358" y="817" on="1"/>
        <pt x="388" y="819" on="1"/>
        <pt x="418" y="818" on="0"/>
        <pt x="423" y="800" on="1"/>
        <pt x="419" y="734" on="0"/>
      </contour>
    </TTGlyph>
    <TTGlyph name="breve" xMin="31" yMin="474" xMax="224" yMax="574">
      <contour>
        <pt x="31" y="525" on="0"/>
        <pt x="31" y="568" on="0"/>
        <pt x="51" y="574" on="0"/>
        <pt x="66" y="574" on="1"/>
        <pt x="70" y="542" on="0"/>
        <pt x="102" y="522" on="0"/>
        <pt x="121" y="522" on="0"/>
        <pt x="145" y="525" on="0"/>
        <pt x="182" y="550" on="0"/>
        <pt x="190" y="566" on="1"/>
        <pt x="200" y="571" on="0"/>
        <pt x="215" y="571" on="0"/>
        <pt x="224" y="561" on="0"/>
        <pt x="224" y="548" on="0"/>
        <pt x="218" y="539" on="1"/>
        <pt x="190" y="496" on="0"/>
        <pt x="136" y="474" on="0"/>
        <pt x="121" y="474" on="1"/>
        <pt x="77" y="474" on="0"/>
      </contour>
    </TTGlyph>
    <TTGlyph name="brokenbar" xMin="28" yMin="8" xMax="110" yMax="566">
      <contour>
        <pt x="28" y="16" on="1"/>
        <pt x="36" y="290" on="1"/>
        <pt x="102" y="290" on="1"/>
        <pt x="94" y="34" on="1"/>
        <pt x="92" y="16" on="0"/>
        <pt x="66" y="8" on="1"/>
        <pt x="40" y="1" on="0"/>
      </contour>
      <contour>
        <pt x="37" y="314" on="1"/>
        <pt x="40" y="431" on="0"/>
        <pt x="44" y="532" on="1"/>
        <pt x="42" y="554" on="0"/>
        <pt x="62" y="566" on="0"/>
        <pt x="87" y="566" on="0"/>
        <pt x="106" y="562" on="0"/>
        <pt x="110" y="548" on="1"/>
        <pt x="102" y="314" on="1"/>
      </contour>
    </TTGlyph>
    <TTGlyph name="bullet" xMin="33" yMin="194" xMax="165" yMax="321">
      <contour>
        <pt x="33" y="257" on="1"/>
        <pt x="41" y="294" on="0"/>
        <pt x="78" y="321" on="0"/>
        <pt x="89" y="321" on="1"/>
        <pt x="122" y="321" on="0"/>
        <pt x="162" y="281" on="0"/>
        <pt x="165" y="255" on="1"/>
        <pt x="165" y="218" on="0"/>
        <pt x="135" y="194" on="0"/>
        <pt x="95" y="194" on="0"/>
        <pt x="70" y="202" on="0"/>
        <pt x="59" y="210" on="1"/>
        <pt x="33" y="231" on="0"/>
      </contour>
    </TTGlyph>
    <TTGlyph name="c" xMin="22" yMin="0" xMax="621" yMax="447">
      <contour>
        <pt x="472" y="122" on="0"/>
        <pt x="550" y="150" on="0"/>
        <pt x="621" y="150" on="0"/>
        <pt x="621" y="128" on="1"/>
        <pt x="621" y="123" on="0"/>
        <pt x="616" y="102" on="0"/>
        <pt x="567" y="73" on="0"/>
        <pt x="496" y="47" on="0"/>
        <pt x="412" y="25" on="0"/>
        <pt x="372" y="17" on="1"/>
        <pt x="289" y="0" on="0"/>
        <pt x="219" y="0" on="0"/>
        <pt x="138" y="16" on="0"/>
        <pt x="103" y="34" on="1"/>
        <pt x="22" y="76" on="0"/>
        <pt x="22" y="158" on="1"/>
        <pt x="22" y="164" on="0"/>
        <pt x="22" y="200" on="0"/>
        <pt x="52" y="267" on="0"/>
        <pt x="112" y="334" on="0"/>
        <pt x="152" y="362" on="1"/>
        <pt x="236" y="422" on="0"/>
        <pt x="328" y="440" on="1"/>
        <pt x="360" y="447" on="0"/>
        <pt x="403" y="447" on="0"/>
        <pt x="431" y="446" on="0"/>
        <pt x="461" y="443" on="0"/>
        <pt x="472" y="437" on="1"/>
        <pt x="498" y="424" on="0"/>
        <pt x="498" y="386" on="1"/>
        <pt x="498" y="362" on="0"/>
        <pt x="464" y="339" on="1"/>
        <pt x="455" y="333" on="0"/>
        <pt x="448" y="328" on="1"/>
        <pt x="443" y="351" on="0"/>
        <pt x="427" y="383" on="0"/>
        <pt x="400" y="383" on="1"/>
        <pt x="282" y="358" on="0"/>
        <pt x="197" y="308" on="1"/>
        <pt x="101" y="251" on="0"/>
        <pt x="101" y="188" on="1"/>
        <pt x="101" y="181" on="0"/>
        <pt x="102" y="173" on="1"/>
        <pt x="102" y="109" on="0"/>
        <pt x="151" y="82" on="1"/>
        <pt x="188" y="62" on="0"/>
        <pt x="305" y="62" on="0"/>
        <pt x="391" y="89" on="0"/>
      </contour>
    </TTGlyph>
    <TTGlyph name="cacute" xMin="22" yMin="0" xMax="621" yMax="624">
      <component glyphName="c" x="0" y="0" flags="0x1204"/>
      <component glyphName="acute" x="239" y="0" flags="0x1004"/>
    </TTGlyph>
    <TTGlyph name="caron" xMin="31" yMin="455" xMax="270" yMax="574">
      <contour>
        <pt x="49" y="518" on="0"/>
        <pt x="31" y="542" on="0"/>
        <pt x="31" y="568" on="0"/>
        <pt x="51" y="574" on="0"/>
        <pt x="66" y="574" on="1"/>
        <pt x="77" y="555" on="0"/>
        <pt x="110" y="525" on="0"/>
        <pt x="147" y="505" on="1"/>
        <pt x="174" y="525" on="0"/>
        <pt x="194" y="542" on="0"/>
        <pt x="205" y="550" on="0"/>
        <pt x="218" y="557" on="0"/>
        <pt x="237" y="568" on="1"/>
        <pt x="258" y="578" on="0"/>
        <pt x="266" y="568" on="1"/>
        <pt x="270" y="563" on="0"/>
        <pt x="270" y="550" on="0"/>
        <pt x="265" y="541" on="1"/>
        <pt x="236" y="504" on="0"/>
        <pt x="218" y="492" on="1"/>
        <pt x="195" y="476" on="0"/>
        <pt x="154" y="455" on="1"/>
        <pt x="103" y="474" on="0"/>
      </contour>
    </TTGlyph>
    <TTGlyph name="ccaron" xMin="22" yMin="0" xMax="621" yMax="595">
      <component glyphName="c" x="0" y="0" flags="0x1204"/>
      <component glyphName="caron" x="145" y="21" flags="0x1004"/>
    </TTGlyph>
    <TTGlyph name="ccedilla" xMin="22" yMin="-233" xMax="621" yMax="447">
      <component glyphName="c" x="0" y="0" flags="0x1204"/>
      <component glyphName="cedilla" x="127" y="0" flags="0x1004"/>
    </TTGlyph>
    <TTGlyph name="ccircumflex" xMin="22" yMin="0" xMax="621" yMax="687">
      <component glyphName="c" x="0" y="0" flags="0x1204"/>
      <component glyphName="circumflex" x="160" y="0" flags="0x1004"/>
    </TTGlyph>
    <TTGlyph name="cdotaccent" xMin="22" yMin="0" xMax="621" yMax="552">
      <component glyphName="c" x="0" y="0" flags="0x1204"/>
      <component glyphName="dotaccent" x="246" y="0" flags="0x1004"/>
    </TTGlyph>
    <TTGlyph name="cedilla" xMin="43" yMin="-233" xMax="245" yMax="28">
      <contour>
        <pt x="47" y="8" on="1"/>
        <pt x="47" y="28" on="0"/>
        <pt x="59" y="28" on="1"/>
        <pt x="71" y="28" on="0"/>
        <pt x="89" y="1" on="0"/>
        <pt x="85" y="-2" on="1"/>
        <pt x="85" y="-29" on="0"/>
        <pt x="87" y="-71" on="0"/>
        <pt x="105" y="-71" on="1"/>
        <pt x="127" y="-69" on="0"/>
        <pt x="178" y="-69" on="0"/>
        <pt x="205" y="-79" on="1"/>
        <pt x="245" y="-95" on="0"/>
        <pt x="245" y="-132" on="1"/>
        <pt x="245" y="-172" on="0"/>
        <pt x="198" y="-204" on="1"/>
        <pt x="157" y="-233" on="0"/>
        <pt x="104" y="-233" on="1"/>
        <pt x="77" y="-233" on="0"/>
        <pt x="46" y="-223" on="1"/>
        <pt x="43" y="-223" on="0"/>
        <pt x="43" y="-213" on="0"/>
        <pt x="44" y="-199" on="0"/>
        <pt x="45" y="-186" on="0"/>
        <pt x="43" y="-184" on="1"/>
        <pt x="54" y="-185" on="0"/>
        <pt x="86" y="-185" on="0"/>
        <pt x="138" y="-176" on="0"/>
        <pt x="186" y="-157" on="0"/>
        <pt x="198" y="-146" on="1"/>
        <pt x="224" y="-122" on="0"/>
        <pt x="168" y="-114" on="1"/>
        <pt x="156" y="-112" on="0"/>
        <pt x="114" y="-112" on="0"/>
        <pt x="82" y="-115" on="1"/>
        <pt x="48" y="-115" on="0"/>
        <pt x="48" y="-7" on="1"/>
        <pt x="47" y="2" on="0"/>
      </contour>
    </TTGlyph>
    <TTGlyph name="cent" xMin="21" yMin="-70" xMax="621" yMax="570">
      <contour>
        <pt x="346" y="-68" on="1"/>
        <pt x="319" y="-68" on="1"/>
        <pt x="300" y="-68" on="0"/>
        <pt x="298" y="-70" on="1"/>
        <pt x="297" y="4" on="1"/>
        <pt x="269" y="0" on="0"/>
        <pt x="219" y="0" on="0"/>
        <pt x="138" y="16" on="0"/>
        <pt x="103" y="34" on="1"/>
        <pt x="22" y="76" on="0"/>
        <pt x="22" y="158" on="1"/>
        <pt x="21" y="164" on="0"/>
        <pt x="21" y="171" on="1"/>
        <pt x="21" y="245" on="0"/>
        <pt x="102" y="321" on="1"/>
        <pt x="183" y="398" on="0"/>
        <pt x="296" y="432" on="1"/>
        <pt x="296" y="570" on="1"/>
        <pt x="355" y="570" on="1"/>
        <pt x="354" y="445" on="1"/>
        <pt x="389" y="449" on="0"/>
        <pt x="409" y="449" on="1"/>
        <pt x="498" y="449" on="0"/>
        <pt x="498" y="386" on="1"/>
        <pt x="498" y="362" on="0"/>
        <pt x="464" y="339" on="1"/>
        <pt x="455" y="333" on="0"/>
        <pt x="448" y="328" on="1"/>
        <pt x="439" y="373" on="0"/>
        <pt x="417" y="380" on="1"/>
        <pt x="404" y="384" on="0"/>
        <pt x="354" y="372" on="1"/>
        <pt x="354" y="78" on="1"/>
        <pt x="385" y="87" on="0"/>
        <pt x="445" y="112" on="0"/>
        <pt x="474" y="124" on="1"/>
        <pt x="542" y="150" on="0"/>
        <pt x="621" y="150" on="0"/>
        <pt x="621" y="128" on="1"/>
        <pt x="621" y="103" on="0"/>
        <pt x="562" y="70" on="0"/>
        <pt x="523" y="56" on="1"/>
        <pt x="447" y="30" on="0"/>
        <pt x="354" y="14" on="1"/>
        <pt x="354" y="-66" on="1"/>
        <pt x="354" y="-68" on="0"/>
      </contour>
      <contour>
        <pt x="254" y="62" on="1"/>
        <pt x="279" y="62" on="0"/>
        <pt x="297" y="65" on="1"/>
        <pt x="296" y="354" on="1"/>
        <pt x="152" y="298" on="0"/>
        <pt x="112" y="228" on="1"/>
        <pt x="101" y="209" on="0"/>
        <pt x="101" y="180" on="0"/>
        <pt x="102" y="173" on="1"/>
        <pt x="102" y="109" on="0"/>
        <pt x="151" y="82" on="1"/>
        <pt x="188" y="62" on="0"/>
      </contour>
    </TTGlyph>
    <TTGlyph name="circumflex" xMin="18" yMin="510" xMax="300" yMax="687">
      <contour>
        <pt x="41" y="510" on="0"/>
        <pt x="18" y="520" on="0"/>
        <pt x="18" y="558" on="0"/>
        <pt x="39" y="594" on="0"/>
        <pt x="58" y="614" on="1"/>
        <pt x="100" y="658" on="0"/>
        <pt x="162" y="687" on="1"/>
        <pt x="213" y="654" on="0"/>
        <pt x="230" y="640" on="1"/>
        <pt x="258" y="615" on="0"/>
        <pt x="294" y="559" on="1"/>
        <pt x="300" y="547" on="0"/>
        <pt x="300" y="526" on="0"/>
        <pt x="296" y="520" on="1"/>
        <pt x="285" y="504" on="0"/>
        <pt x="260" y="519" on="1"/>
        <pt x="223" y="546" on="0"/>
        <pt x="210" y="558" on="0"/>
        <pt x="186" y="584" on="0"/>
        <pt x="155" y="614" on="1"/>
        <pt x="94" y="572" on="0"/>
        <pt x="72" y="536" on="1"/>
        <pt x="65" y="524" on="0"/>
        <pt x="59" y="510" on="1"/>
      </contour>
    </TTGlyph>
    <TTGlyph name="colon" xMin="31" yMin="101" xMax="156" yMax="369">
      <contour>
        <pt x="77" y="126" on="1"/>
        <pt x="77" y="141" on="0"/>
        <pt x="104" y="169" on="0"/>
        <pt x="138" y="169" on="0"/>
        <pt x="156" y="147" on="0"/>
        <pt x="156" y="122" on="0"/>
        <pt x="137" y="101" on="0"/>
        <pt x="121" y="101" on="0"/>
        <pt x="108" y="101" on="0"/>
        <pt x="77" y="111" on="0"/>
      </contour>
      <contour>
        <pt x="45" y="318" on="1"/>
        <pt x="31" y="322" on="0"/>
        <pt x="31" y="333" on="1"/>
        <pt x="31" y="348" on="0"/>
        <pt x="61" y="368" on="0"/>
        <pt x="70" y="369" on="1"/>
        <pt x="101" y="365" on="0"/>
        <pt x="118" y="342" on="0"/>
        <pt x="118" y="335" on="1"/>
        <pt x="118" y="314" on="0"/>
        <pt x="92" y="308" on="1"/>
        <pt x="88" y="306" on="0"/>
        <pt x="67" y="306" on="0"/>
      </contour>
    </TTGlyph>
    <TTGlyph name="comma" xMin="-22" yMin="-85" xMax="116" yMax="103">
      <contour>
        <pt x="48" y="86" on="1"/>
        <pt x="54" y="99" on="0"/>
        <pt x="70" y="103" on="0"/>
        <pt x="88" y="103" on="0"/>
        <pt x="96" y="101" on="1"/>
        <pt x="110" y="97" on="0"/>
        <pt x="116" y="84" on="1"/>
        <pt x="116" y="82" on="0"/>
        <pt x="116" y="75" on="0"/>
        <pt x="108" y="56" on="0"/>
        <pt x="91" y="25" on="0"/>
        <pt x="71" y="-8" on="0"/>
        <pt x="51" y="-38" on="0"/>
        <pt x="42" y="-54" on="0"/>
        <pt x="35" y="-61" on="1"/>
        <pt x="11" y="-85" on="0"/>
        <pt x="-10" y="-85" on="1"/>
        <pt x="-16" y="-85" on="0"/>
        <pt x="-22" y="-83" on="1"/>
      </contour>
    </TTGlyph>
    <TTGlyph name="commaaccent" xMin="123" yMin="-251" xMax="262" yMax="-62">
      <contour>
        <pt x="194" y="-79" on="1"/>
        <pt x="200" y="-66" on="0"/>
        <pt x="215" y="-62" on="0"/>
        <pt x="233" y="-62" on="0"/>
        <pt x="240" y="-64" on="1"/>
        <pt x="262" y="-70" on="0"/>
        <pt x="262" y="-87" on="1"/>
        <pt x="262" y="-103" on="0"/>
        <pt x="207" y="-188" on="1"/>
        <pt x="197" y="-204" on="0"/>
        <pt x="188" y="-219" on="0"/>
        <pt x="181" y="-226" on="1"/>
        <pt x="158" y="-251" on="0"/>
        <pt x="135" y="-251" on="1"/>
        <pt x="129" y="-251" on="0"/>
        <pt x="123" y="-249" on="1"/>
      </contour>
    </TTGlyph>
    <TTGlyph name="copyright" xMin="38" yMin="-2" xMax="615" yMax="615">
      <contour>
        <pt x="116" y="44" on="1"/>
        <pt x="80" y="67" on="0"/>
        <pt x="38" y="136" on="0"/>
        <pt x="38" y="216" on="0"/>
        <pt x="62" y="326" on="0"/>
        <pt x="99" y="420" on="0"/>
        <pt x="152" y="508" on="0"/>
        <pt x="186" y="542" on="1"/>
        <pt x="261" y="615" on="0"/>
        <pt x="356" y="615" on="1"/>
        <pt x="484" y="615" on="0"/>
        <pt x="552" y="521" on="1"/>
        <pt x="615" y="436" on="0"/>
        <pt x="615" y="310" on="1"/>
        <pt x="615" y="161" on="0"/>
        <pt x="520" y="78" on="1"/>
        <pt x="427" y="-2" on="0"/>
        <pt x="273" y="-2" on="1"/>
        <pt x="184" y="-2" on="0"/>
      </contour>
      <contour>
        <pt x="97" y="183" on="1"/>
        <pt x="97" y="48" on="0"/>
        <pt x="289" y="48" on="1"/>
        <pt x="427" y="48" on="0"/>
        <pt x="566" y="190" on="0"/>
        <pt x="566" y="321" on="1"/>
        <pt x="566" y="325" on="0"/>
        <pt x="566" y="329" on="1"/>
        <pt x="566" y="444" on="0"/>
        <pt x="452" y="566" on="0"/>
        <pt x="353" y="566" on="1"/>
        <pt x="342" y="566" on="0"/>
        <pt x="325" y="566" on="0"/>
        <pt x="318" y="566" on="1"/>
        <pt x="265" y="566" on="0"/>
        <pt x="213" y="494" on="1"/>
        <pt x="164" y="428" on="0"/>
        <pt x="129" y="325" on="1"/>
        <pt x="97" y="231" on="0"/>
      </contour>
      <contour>
        <pt x="164" y="246" on="1"/>
        <pt x="164" y="252" on="0"/>
        <pt x="164" y="258" on="1"/>
        <pt x="164" y="300" on="0"/>
        <pt x="204" y="389" on="0"/>
        <pt x="272" y="462" on="0"/>
        <pt x="345" y="500" on="0"/>
        <pt x="375" y="500" on="1"/>
        <pt x="382" y="500" on="0"/>
        <pt x="408" y="499" on="0"/>
        <pt x="437" y="482" on="0"/>
        <pt x="437" y="428" on="0"/>
        <pt x="416" y="404" on="0"/>
        <pt x="408" y="395" on="1"/>
        <pt x="406" y="415" on="0"/>
        <pt x="396" y="443" on="0"/>
        <pt x="380" y="443" on="1"/>
        <pt x="315" y="424" on="0"/>
        <pt x="264" y="378" on="1"/>
        <pt x="209" y="328" on="0"/>
        <pt x="209" y="273" on="1"/>
        <pt x="209" y="267" on="0"/>
        <pt x="210" y="229" on="0"/>
        <pt x="225" y="192" on="0"/>
        <pt x="238" y="182" on="1"/>
        <pt x="258" y="164" on="0"/>
        <pt x="326" y="164" on="0"/>
        <pt x="375" y="187" on="0"/>
        <pt x="421" y="216" on="0"/>
        <pt x="466" y="239" on="0"/>
        <pt x="496" y="239" on="0"/>
        <pt x="507" y="232" on="0"/>
        <pt x="507" y="217" on="0"/>
        <pt x="504" y="197" on="0"/>
        <pt x="476" y="172" on="0"/>
        <pt x="435" y="150" on="0"/>
        <pt x="387" y="131" on="0"/>
        <pt x="364" y="124" on="1"/>
        <pt x="316" y="109" on="0"/>
        <pt x="277" y="109" on="0"/>
        <pt x="231" y="123" on="0"/>
        <pt x="211" y="138" on="1"/>
        <pt x="164" y="175" on="0"/>
      </contour>
    </TTGlyph>
    <TTGlyph name="currency" xMin="-1" yMin="-5" xMax="600" yMax="580">
      <contour>
        <pt x="451" y="111" on="1"/>
        <pt x="366" y="50" on="0"/>
        <pt x="238" y="50" on="1"/>
        <pt x="193" y="50" on="0"/>
        <pt x="159" y="59" on="1"/>
        <pt x="151" y="51" on="0"/>
        <pt x="106" y="15" on="0"/>
        <pt x="96" y="6" on="1"/>
        <pt x="81" y="-5" on="0"/>
        <pt x="71" y="-5" on="0"/>
        <pt x="50" y="-1" on="0"/>
        <pt x="37" y="4" on="1"/>
        <pt x="6" y="14" on="0"/>
        <pt x="-1" y="29" on="1"/>
        <pt x="86" y="104" on="1"/>
        <pt x="46" y="148" on="0"/>
        <pt x="46" y="334" on="0"/>
        <pt x="110" y="398" on="1"/>
        <pt x="30" y="477" on="1"/>
        <pt x="102" y="544" on="1"/>
        <pt x="154" y="488" on="0"/>
        <pt x="184" y="454" on="1"/>
        <pt x="253" y="491" on="0"/>
        <pt x="343" y="500" on="1"/>
        <pt x="350" y="500" on="0"/>
        <pt x="395" y="500" on="0"/>
        <pt x="430" y="487" on="1"/>
        <pt x="440" y="500" on="0"/>
        <pt x="481" y="548" on="0"/>
        <pt x="502" y="573" on="0"/>
        <pt x="509" y="580" on="1"/>
        <pt x="538" y="580" on="0"/>
        <pt x="571" y="545" on="0"/>
        <pt x="571" y="530" on="1"/>
        <pt x="564" y="518" on="0"/>
        <pt x="548" y="493" on="1"/>
        <pt x="523" y="456" on="1"/>
        <pt x="515" y="444" on="0"/>
        <pt x="510" y="437" on="1"/>
        <pt x="555" y="387" on="0"/>
        <pt x="555" y="328" on="1"/>
        <pt x="555" y="321" on="0"/>
        <pt x="554" y="314" on="1"/>
        <pt x="554" y="237" on="0"/>
        <pt x="513" y="174" on="1"/>
        <pt x="560" y="130" on="0"/>
        <pt x="600" y="82" on="1"/>
        <pt x="600" y="73" on="0"/>
        <pt x="587" y="59" on="1"/>
        <pt x="565" y="33" on="0"/>
        <pt x="550" y="26" on="1"/>
        <pt x="527" y="35" on="0"/>
        <pt x="478" y="82" on="0"/>
      </contour>
      <contour>
        <pt x="107" y="207" on="1"/>
        <pt x="107" y="145" on="0"/>
        <pt x="140" y="124" on="1"/>
        <pt x="166" y="107" on="0"/>
        <pt x="283" y="107" on="0"/>
        <pt x="373" y="126" on="0"/>
        <pt x="408" y="148" on="1"/>
        <pt x="483" y="196" on="0"/>
        <pt x="483" y="297" on="1"/>
        <pt x="483" y="356" on="0"/>
        <pt x="451" y="394" on="1"/>
        <pt x="416" y="435" on="0"/>
        <pt x="359" y="435" on="1"/>
        <pt x="320" y="429" on="0"/>
        <pt x="241" y="413" on="0"/>
        <pt x="207" y="390" on="1"/>
        <pt x="130" y="339" on="0"/>
      </contour>
    </TTGlyph>
    <TTGlyph name="d" xMin="9" yMin="-1" xMax="500" yMax="803">
      <contour>
        <pt x="500" y="707" on="0"/>
        <pt x="489" y="524" on="0"/>
        <pt x="480" y="349" on="0"/>
        <pt x="480" y="152" on="0"/>
        <pt x="494" y="42" on="1"/>
        <pt x="494" y="19" on="0"/>
        <pt x="477" y="-1" on="0"/>
        <pt x="457" y="-1" on="1"/>
        <pt x="410" y="-1" on="0"/>
        <pt x="410" y="77" on="1"/>
        <pt x="410" y="110" on="1"/>
        <pt x="268" y="4" on="0"/>
        <pt x="170" y="4" on="1"/>
        <pt x="131" y="4" on="0"/>
        <pt x="50" y="42" on="0"/>
        <pt x="14" y="100" on="1"/>
        <pt x="9" y="124" on="0"/>
        <pt x="9" y="174" on="0"/>
        <pt x="28" y="245" on="0"/>
        <pt x="87" y="321" on="0"/>
        <pt x="129" y="350" on="1"/>
        <pt x="221" y="412" on="0"/>
        <pt x="328" y="412" on="1"/>
        <pt x="374" y="412" on="0"/>
        <pt x="416" y="398" on="1"/>
        <pt x="416" y="416" on="0"/>
        <pt x="421" y="506" on="0"/>
        <pt x="424" y="556" on="1"/>
        <pt x="430" y="686" on="0"/>
        <pt x="434" y="733" on="0"/>
        <pt x="441" y="766" on="0"/>
        <pt x="448" y="778" on="1"/>
        <pt x="463" y="803" on="0"/>
        <pt x="500" y="803" on="1"/>
      </contour>
      <contour>
        <pt x="82" y="157" on="1"/>
        <pt x="82" y="78" on="0"/>
        <pt x="139" y="78" on="1"/>
        <pt x="148" y="78" on="0"/>
        <pt x="159" y="80" on="1"/>
        <pt x="200" y="80" on="0"/>
        <pt x="260" y="104" on="1"/>
        <pt x="374" y="149" on="0"/>
        <pt x="399" y="182" on="1"/>
        <pt x="399" y="315" on="1"/>
        <pt x="399" y="350" on="0"/>
        <pt x="342" y="350" on="1"/>
        <pt x="335" y="351" on="0"/>
        <pt x="312" y="351" on="0"/>
        <pt x="264" y="341" on="0"/>
        <pt x="204" y="315" on="0"/>
        <pt x="175" y="296" on="1"/>
        <pt x="114" y="255" on="0"/>
        <pt x="91" y="200" on="1"/>
        <pt x="82" y="179" on="0"/>
      </contour>
    </TTGlyph>
    <TTGlyph name="dagger" xMin="23" yMin="-3" xMax="386" yMax="856">
      <contour>
        <pt x="229" y="0" on="1"/>
        <pt x="229" y="-2" on="0"/>
        <pt x="204" y="-2" on="1"/>
        <pt x="168" y="-2" on="1"/>
        <pt x="156" y="-2" on="0"/>
        <pt x="154" y="-3" on="1"/>
        <pt x="150" y="516" on="1"/>
        <pt x="91" y="510" on="1"/>
        <pt x="49" y="510" on="0"/>
        <pt x="30" y="524" on="1"/>
        <pt x="23" y="529" on="0"/>
        <pt x="23" y="540" on="1"/>
        <pt x="23" y="560" on="0"/>
        <pt x="70" y="566" on="1"/>
        <pt x="91" y="568" on="0"/>
        <pt x="130" y="573" on="0"/>
        <pt x="150" y="575" on="1"/>
        <pt x="140" y="856" on="1"/>
        <pt x="220" y="856" on="1"/>
        <pt x="229" y="586" on="1"/>
        <pt x="237" y="587" on="0"/>
        <pt x="312" y="594" on="1"/>
        <pt x="369" y="594" on="0"/>
        <pt x="383" y="570" on="1"/>
        <pt x="386" y="566" on="0"/>
        <pt x="386" y="556" on="0"/>
        <pt x="373" y="539" on="0"/>
        <pt x="349" y="532" on="1"/>
        <pt x="229" y="522" on="1"/>
      </contour>
    </TTGlyph>
    <TTGlyph name="daggerdbl" xMin="23" yMin="-3" xMax="388" yMax="856">
      <contour>
        <pt x="229" y="0" on="1"/>
        <pt x="229" y="-2" on="0"/>
        <pt x="204" y="-2" on="1"/>
        <pt x="168" y="-2" on="1"/>
        <pt x="156" y="-2" on="0"/>
        <pt x="154" y="-3" on="1"/>
        <pt x="151" y="406" on="1"/>
        <pt x="79" y="397" on="1"/>
        <pt x="47" y="401" on="0"/>
        <pt x="26" y="414" on="0"/>
        <pt x="29" y="433" on="0"/>
        <pt x="50" y="450" on="1"/>
        <pt x="54" y="454" on="0"/>
        <pt x="150" y="463" on="1"/>
        <pt x="150" y="516" on="1"/>
        <pt x="91" y="510" on="1"/>
        <pt x="49" y="510" on="0"/>
        <pt x="30" y="524" on="1"/>
        <pt x="23" y="529" on="0"/>
        <pt x="23" y="540" on="1"/>
        <pt x="23" y="560" on="0"/>
        <pt x="70" y="566" on="1"/>
        <pt x="91" y="568" on="0"/>
        <pt x="130" y="573" on="0"/>
        <pt x="150" y="575" on="1"/>
        <pt x="140" y="856" on="1"/>
        <pt x="220" y="856" on="1"/>
        <pt x="229" y="586" on="1"/>
        <pt x="237" y="587" on="0"/>
        <pt x="312" y="594" on="1"/>
        <pt x="369" y="594" on="0"/>
        <pt x="383" y="570" on="1"/>
        <pt x="389" y="560" on="0"/>
        <pt x="373" y="539" on="0"/>
        <pt x="349" y="532" on="1"/>
        <pt x="229" y="522" on="1"/>
        <pt x="229" y="472" on="1"/>
        <pt x="262" y="476" on="0"/>
        <pt x="327" y="483" on="0"/>
        <pt x="353" y="488" on="1"/>
        <pt x="369" y="493" on="0"/>
        <pt x="388" y="482" on="0"/>
        <pt x="388" y="472" on="1"/>
        <pt x="388" y="449" on="0"/>
        <pt x="370" y="436" on="1"/>
        <pt x="229" y="417" on="1"/>
      </contour>
    </TTGlyph>
    <TTGlyph name="degree" xMin="25" yMin="270" xMax="197" yMax="437">
      <contour>
        <pt x="43" y="300" on="0"/>
        <pt x="25" y="330" on="0"/>
        <pt x="25" y="384" on="0"/>
        <pt x="37" y="404" on="1"/>
        <pt x="58" y="437" on="0"/>
        <pt x="97" y="437" on="1"/>
        <pt x="149" y="437" on="0"/>
        <pt x="180" y="395" on="1"/>
        <pt x="194" y="377" on="0"/>
        <pt x="197" y="354" on="1"/>
        <pt x="197" y="303" on="0"/>
        <pt x="156" y="270" on="0"/>
        <pt x="114" y="270" on="1"/>
        <pt x="84" y="270" on="0"/>
      </contour>
      <contour>
        <pt x="150" y="370" on="1"/>
        <pt x="127" y="394" on="0"/>
        <pt x="101" y="394" on="1"/>
        <pt x="70" y="394" on="0"/>
        <pt x="64" y="364" on="1"/>
        <pt x="64" y="361" on="0"/>
        <pt x="64" y="342" on="0"/>
        <pt x="76" y="322" on="1"/>
        <pt x="94" y="307" on="0"/>
        <pt x="114" y="305" on="0"/>
        <pt x="131" y="305" on="0"/>
        <pt x="141" y="313" on="1"/>
        <pt x="156" y="323" on="0"/>
        <pt x="156" y="356" on="0"/>
      </contour>
    </TTGlyph>
    <TTGlyph name="dieresis" xMin="66" yMin="597" xMax="297" yMax="664">
      <contour>
        <pt x="90" y="597" on="1"/>
        <pt x="66" y="597" on="0"/>
        <pt x="66" y="631" on="1"/>
        <pt x="66" y="643" on="0"/>
        <pt x="116" y="664" on="1"/>
        <pt x="137" y="664" on="0"/>
        <pt x="152" y="646" on="0"/>
        <pt x="152" y="618" on="0"/>
        <pt x="140" y="605" on="0"/>
        <pt x="131" y="602" on="1"/>
        <pt x="119" y="597" on="0"/>
      </contour>
      <contour>
        <pt x="234" y="597" on="1"/>
        <pt x="210" y="597" on="0"/>
        <pt x="210" y="631" on="1"/>
        <pt x="210" y="644" on="0"/>
        <pt x="261" y="664" on="1"/>
        <pt x="297" y="664" on="0"/>
        <pt x="297" y="630" on="1"/>
        <pt x="297" y="599" on="0"/>
        <pt x="255" y="598" on="1"/>
        <pt x="244" y="597" on="0"/>
      </contour>
    </TTGlyph>
    <TTGlyph name="divide" xMin="58" yMin="111" xMax="327" yMax="379">
      <component glyphName="colon" x="94" y="10" flags="0x1004"/>
      <component glyphName="minus" x="28" y="0" flags="0x1004"/>
    </TTGlyph>
    <TTGlyph name="dollar" xMin="9" yMin="-4" xMax="555" yMax="880">
      <contour>
        <pt x="343" y="199" on="1"/>
        <pt x="361" y="34" on="1"/>
        <pt x="361" y="23" on="1"/>
        <pt x="361" y="8" on="0"/>
        <pt x="322" y="0" on="1"/>
        <pt x="301" y="-4" on="0"/>
        <pt x="269" y="-4" on="1"/>
        <pt x="255" y="194" on="1"/>
        <pt x="262" y="174" on="0"/>
        <pt x="184" y="174" on="1"/>
        <pt x="156" y="175" on="1"/>
        <pt x="152" y="177" on="0"/>
        <pt x="150" y="191" on="1"/>
        <pt x="145" y="215" on="0"/>
        <pt x="142" y="221" on="1"/>
        <pt x="151" y="239" on="0"/>
        <pt x="237" y="246" on="1"/>
        <pt x="255" y="248" on="0"/>
        <pt x="261" y="249" on="1"/>
        <pt x="261" y="382" on="1"/>
        <pt x="237" y="382" on="1"/>
        <pt x="82" y="382" on="0"/>
        <pt x="28" y="428" on="1"/>
        <pt x="11" y="443" on="0"/>
        <pt x="11" y="466" on="1"/>
        <pt x="9" y="476" on="0"/>
        <pt x="9" y="514" on="0"/>
        <pt x="49" y="571" on="0"/>
        <pt x="85" y="594" on="1"/>
        <pt x="151" y="636" on="0"/>
        <pt x="228" y="648" on="1"/>
        <pt x="228" y="880" on="1"/>
        <pt x="277" y="880" on="1"/>
        <pt x="310" y="681" on="1"/>
        <pt x="510" y="681" on="1"/>
        <pt x="510" y="639" on="1"/>
        <pt x="328" y="614" on="1"/>
        <pt x="327" y="423" on="1"/>
        <pt x="554" y="423" on="1"/>
        <pt x="555" y="414" on="0"/>
        <pt x="555" y="374" on="0"/>
        <pt x="534" y="320" on="0"/>
        <pt x="494" y="279" on="0"/>
        <pt x="442" y="252" on="0"/>
        <pt x="393" y="231" on="0"/>
        <pt x="353" y="212" on="0"/>
      </contour>
      <contour>
        <pt x="478" y="373" on="1"/>
        <pt x="468" y="389" on="0"/>
        <pt x="432" y="389" on="1"/>
        <pt x="407" y="389" on="0"/>
        <pt x="350" y="375" on="0"/>
        <pt x="337" y="369" on="1"/>
        <pt x="343" y="282" on="1"/>
        <pt x="478" y="321" on="0"/>
      </contour>
      <contour>
        <pt x="159" y="430" on="1"/>
        <pt x="202" y="431" on="1"/>
        <pt x="216" y="431" on="0"/>
        <pt x="240" y="431" on="0"/>
        <pt x="257" y="432" on="0"/>
        <pt x="261" y="432" on="1"/>
        <pt x="244" y="581" on="1"/>
        <pt x="244" y="582" on="0"/>
        <pt x="229" y="585" on="0"/>
        <pt x="205" y="585" on="0"/>
        <pt x="159" y="565" on="0"/>
        <pt x="138" y="549" on="1"/>
        <pt x="91" y="512" on="0"/>
        <pt x="91" y="472" on="1"/>
        <pt x="91" y="430" on="0"/>
      </contour>
    </TTGlyph>
    <TTGlyph name="dotaccent" xMin="34" yMin="471" xMax="121" yMax="552">
      <contour>
        <pt x="34" y="511" on="1"/>
        <pt x="39" y="535" on="0"/>
        <pt x="63" y="552" on="0"/>
        <pt x="77" y="552" on="0"/>
        <pt x="95" y="549" on="0"/>
        <pt x="119" y="526" on="0"/>
        <pt x="121" y="510" on="1"/>
        <pt x="121" y="486" on="0"/>
        <pt x="101" y="471" on="0"/>
        <pt x="75" y="471" on="0"/>
        <pt x="59" y="476" on="0"/>
        <pt x="52" y="482" on="1"/>
        <pt x="34" y="494" on="0"/>
      </contour>
    </TTGlyph>
    <TTGlyph name="dotlessi" xMin="54" yMin="6" xMax="139" yMax="470">
      <contour>
        <pt x="117" y="470" on="1"/>
        <pt x="130" y="283" on="0"/>
        <pt x="139" y="37" on="1"/>
        <pt x="133" y="6" on="0"/>
        <pt x="91" y="6" on="1"/>
        <pt x="80" y="6" on="0"/>
        <pt x="57" y="15" on="0"/>
        <pt x="54" y="23" on="1"/>
        <pt x="54" y="470" on="1"/>
      </contour>
    </TTGlyph>
    <TTGlyph name="e" xMin="20" yMin="6" xMax="521" yMax="467">
      <contour>
        <pt x="231" y="70" on="1"/>
        <pt x="319" y="70" on="0"/>
        <pt x="496" y="150" on="1"/>
        <pt x="507" y="150" on="0"/>
        <pt x="521" y="135" on="0"/>
        <pt x="521" y="125" on="1"/>
        <pt x="481" y="57" on="0"/>
        <pt x="255" y="-19" on="0"/>
        <pt x="157" y="6" on="1"/>
        <pt x="46" y="35" on="0"/>
        <pt x="22" y="131" on="1"/>
        <pt x="20" y="150" on="0"/>
        <pt x="20" y="214" on="0"/>
        <pt x="53" y="319" on="0"/>
        <pt x="133" y="413" on="0"/>
        <pt x="241" y="467" on="0"/>
        <pt x="302" y="467" on="1"/>
        <pt x="360" y="467" on="0"/>
        <pt x="432" y="427" on="1"/>
        <pt x="466" y="408" on="0"/>
        <pt x="506" y="360" on="0"/>
        <pt x="506" y="335" on="1"/>
        <pt x="506" y="328" on="0"/>
        <pt x="505" y="321" on="1"/>
        <pt x="503" y="260" on="0"/>
        <pt x="446" y="244" on="1"/>
        <pt x="421" y="237" on="0"/>
        <pt x="388" y="237" on="1"/>
        <pt x="244" y="243" on="1"/>
        <pt x="172" y="243" on="0"/>
        <pt x="134" y="212" on="1"/>
        <pt x="112" y="195" on="0"/>
        <pt x="103" y="161" on="1"/>
        <pt x="128" y="70" on="0"/>
      </contour>
      <contour>
        <pt x="387" y="395" on="0"/>
        <pt x="339" y="409" on="0"/>
        <pt x="307" y="409" on="0"/>
        <pt x="235" y="388" on="0"/>
        <pt x="207" y="375" on="1"/>
        <pt x="138" y="343" on="0"/>
        <pt x="138" y="308" on="1"/>
        <pt x="218" y="301" on="0"/>
        <pt x="258" y="301" on="1"/>
        <pt x="369" y="301" on="0"/>
        <pt x="408" y="320" on="1"/>
        <pt x="432" y="330" on="0"/>
        <pt x="432" y="345" on="1"/>
        <pt x="432" y="363" on="0"/>
      </contour>
    </TTGlyph>
    <TTGlyph name="eacute" xMin="20" yMin="6" xMax="521" yMax="624">
      <component glyphName="e" x="0" y="0" flags="0x1204"/>
      <component glyphName="acute" x="192" y="0" flags="0x1004"/>
    </TTGlyph>
    <TTGlyph name="ebreve" xMin="20" yMin="6" xMax="521" yMax="602">
      <component glyphName="e" x="0" y="0" flags="0x1204"/>
      <component glyphName="breve" x="142" y="28" flags="0x1004"/>
    </TTGlyph>
    <TTGlyph name="ecaron" xMin="20" yMin="6" xMax="521" yMax="625">
      <component glyphName="e" x="0" y="0" flags="0x1204"/>
      <component glyphName="caron" x="111" y="51" flags="0x1004"/>
    </TTGlyph>
    <TTGlyph name="ecircumflex" xMin="20" yMin="6" xMax="521" yMax="687">
      <component glyphName="e" x="0" y="0" flags="0x1204"/>
      <component glyphName="circumflex" x="113" y="0" flags="0x1004"/>
    </TTGlyph>
    <TTGlyph name="edieresis" xMin="20" yMin="6" xMax="521" yMax="664">
      <component glyphName="e" x="0" y="0" flags="0x1204"/>
      <component glyphName="dieresis" x="95" y="0" flags="0x1004"/>
    </TTGlyph>
    <TTGlyph name="edotaccent" xMin="20" yMin="6" xMax="521" yMax="590">
      <component glyphName="e" x="0" y="0" flags="0x1204"/>
      <component glyphName="dotaccent" x="199" y="38" flags="0x1004"/>
    </TTGlyph>
    <TTGlyph name="egrave" xMin="20" yMin="6" xMax="521" yMax="616">
      <component glyphName="e" x="0" y="0" flags="0x1204"/>
      <component glyphName="grave" x="179" y="0" flags="0x1004"/>
    </TTGlyph>
    <TTGlyph name="eight" xMin="22" yMin="-1" xMax="638" yMax="600">
      <contour>
        <pt x="551" y="580" on="0"/>
        <pt x="588" y="541" on="0"/>
        <pt x="586" y="453" on="0"/>
        <pt x="537" y="398" on="1"/>
        <pt x="595" y="375" on="0"/>
        <pt x="627" y="337" on="0"/>
        <pt x="638" y="296" on="0"/>
        <pt x="638" y="266" on="1"/>
        <pt x="638" y="198" on="0"/>
        <pt x="567" y="97" on="0"/>
        <pt x="459" y="31" on="0"/>
        <pt x="330" y="-1" on="0"/>
        <pt x="236" y="-1" on="0"/>
        <pt x="149" y="12" on="0"/>
        <pt x="111" y="29" on="1"/>
        <pt x="22" y="69" on="0"/>
        <pt x="22" y="149" on="1"/>
        <pt x="22" y="174" on="0"/>
        <pt x="54" y="223" on="0"/>
        <pt x="91" y="267" on="0"/>
        <pt x="123" y="306" on="0"/>
        <pt x="123" y="335" on="0"/>
        <pt x="112" y="354" on="0"/>
        <pt x="105" y="363" on="1"/>
        <pt x="87" y="386" on="0"/>
        <pt x="87" y="442" on="0"/>
        <pt x="119" y="498" on="0"/>
        <pt x="172" y="541" on="0"/>
        <pt x="240" y="572" on="0"/>
        <pt x="275" y="582" on="1"/>
        <pt x="343" y="600" on="0"/>
        <pt x="405" y="600" on="1"/>
        <pt x="490" y="600" on="0"/>
      </contour>
      <contour>
        <pt x="103" y="160" on="1"/>
        <pt x="103" y="93" on="0"/>
        <pt x="171" y="66" on="1"/>
        <pt x="218" y="48" on="0"/>
        <pt x="350" y="48" on="0"/>
        <pt x="450" y="76" on="0"/>
        <pt x="488" y="104" on="1"/>
        <pt x="573" y="165" on="0"/>
        <pt x="573" y="268" on="1"/>
        <pt x="549" y="349" on="0"/>
        <pt x="422" y="349" on="1"/>
        <pt x="334" y="349" on="0"/>
        <pt x="247" y="310" on="1"/>
        <pt x="164" y="272" on="0"/>
        <pt x="126" y="219" on="1"/>
        <pt x="106" y="191" on="0"/>
      </contour>
      <contour>
        <pt x="505" y="534" on="1"/>
        <pt x="462" y="553" on="0"/>
        <pt x="398" y="553" on="1"/>
        <pt x="259" y="553" on="0"/>
        <pt x="196" y="484" on="1"/>
        <pt x="174" y="460" on="0"/>
        <pt x="170" y="426" on="1"/>
        <pt x="170" y="396" on="0"/>
        <pt x="208" y="365" on="0"/>
        <pt x="238" y="365" on="1"/>
        <pt x="243" y="364" on="0"/>
        <pt x="264" y="364" on="0"/>
        <pt x="312" y="373" on="0"/>
        <pt x="376" y="391" on="0"/>
        <pt x="441" y="416" on="0"/>
        <pt x="468" y="430" on="1"/>
        <pt x="528" y="462" on="0"/>
        <pt x="538" y="489" on="1"/>
        <pt x="538" y="506" on="0"/>
        <pt x="522" y="534" on="0"/>
      </contour>
    </TTGlyph>
    <TTGlyph name="ellipsis" xMin="22" yMin="-1" xMax="397" yMax="66">
      <contour>
        <pt x="22" y="34" on="1"/>
        <pt x="22" y="42" on="0"/>
        <pt x="58" y="59" on="0"/>
        <pt x="72" y="66" on="1"/>
        <pt x="93" y="66" on="0"/>
        <pt x="108" y="49" on="0"/>
        <pt x="108" y="21" on="0"/>
        <pt x="96" y="7" on="0"/>
        <pt x="87" y="4" on="1"/>
        <pt x="72" y="-1" on="0"/>
        <pt x="22" y="-1" on="0"/>
      </contour>
      <contour>
        <pt x="166" y="34" on="1"/>
        <pt x="166" y="42" on="0"/>
        <pt x="202" y="59" on="0"/>
        <pt x="216" y="66" on="1"/>
        <pt x="237" y="66" on="0"/>
        <pt x="252" y="49" on="0"/>
        <pt x="252" y="21" on="0"/>
        <pt x="240" y="7" on="0"/>
        <pt x="231" y="4" on="1"/>
        <pt x="216" y="-1" on="0"/>
        <pt x="166" y="-1" on="0"/>
      </contour>
      <contour>
        <pt x="334" y="-1" on="1"/>
        <pt x="310" y="-1" on="0"/>
        <pt x="310" y="34" on="1"/>
        <pt x="310" y="42" on="0"/>
        <pt x="335" y="54" on="1"/>
        <pt x="361" y="66" on="1"/>
        <pt x="397" y="66" on="0"/>
        <pt x="397" y="33" on="1"/>
        <pt x="397" y="-1" on="0"/>
      </contour>
    </TTGlyph>
    <TTGlyph name="emacron" xMin="20" yMin="6" xMax="521" yMax="611">
      <component glyphName="e" x="0" y="0" flags="0x1204"/>
      <component glyphName="macron" x="102" y="0" flags="0x1004"/>
    </TTGlyph>
    <TTGlyph name="emdash" xMin="30" yMin="216" xMax="386" yMax="293">
      <contour>
        <pt x="80" y="216" on="1"/>
        <pt x="30" y="216" on="0"/>
        <pt x="30" y="242" on="1"/>
        <pt x="30" y="255" on="0"/>
        <pt x="53" y="265" on="0"/>
        <pt x="87" y="270" on="0"/>
        <pt x="159" y="277" on="0"/>
        <pt x="236" y="284" on="0"/>
        <pt x="309" y="290" on="0"/>
        <pt x="332" y="293" on="1"/>
        <pt x="352" y="293" on="0"/>
        <pt x="366" y="286" on="1"/>
        <pt x="386" y="276" on="0"/>
        <pt x="386" y="262" on="1"/>
        <pt x="386" y="257" on="0"/>
        <pt x="377" y="241" on="0"/>
        <pt x="359" y="235" on="1"/>
      </contour>
    </TTGlyph>
    <TTGlyph name="endash" xMin="30" yMin="216" xMax="299" yMax="294">
      <contour>
        <pt x="80" y="216" on="1"/>
        <pt x="30" y="216" on="0"/>
        <pt x="30" y="242" on="1"/>
        <pt x="30" y="255" on="0"/>
        <pt x="53" y="265" on="0"/>
        <pt x="110" y="273" on="0"/>
        <pt x="197" y="289" on="0"/>
        <pt x="245" y="294" on="1"/>
        <pt x="265" y="294" on="0"/>
        <pt x="279" y="287" on="1"/>
        <pt x="299" y="277" on="0"/>
        <pt x="299" y="263" on="1"/>
        <pt x="299" y="258" on="0"/>
        <pt x="290" y="242" on="0"/>
        <pt x="272" y="236" on="1"/>
      </contour>
    </TTGlyph>
    <TTGlyph name="eogonek" xMin="20" yMin="-182" xMax="521" yMax="467">
      <component glyphName="e" x="0" y="0" flags="0x1204"/>
      <component glyphName="ogonek" x="158" y="3" flags="0x1004"/>
    </TTGlyph>
    <TTGlyph name="equal" xMin="64" yMin="139" xMax="459" yMax="364">
      <contour>
        <pt x="94" y="139" on="1"/>
        <pt x="70" y="139" on="0"/>
        <pt x="70" y="174" on="1"/>
        <pt x="70" y="177" on="0"/>
        <pt x="83" y="190" on="0"/>
        <pt x="87" y="190" on="1"/>
        <pt x="164" y="203" on="0"/>
        <pt x="229" y="210" on="1"/>
        <pt x="354" y="225" on="0"/>
        <pt x="425" y="239" on="1"/>
        <pt x="459" y="239" on="0"/>
        <pt x="459" y="203" on="1"/>
        <pt x="459" y="196" on="0"/>
        <pt x="458" y="189" on="1"/>
        <pt x="401" y="189" on="0"/>
        <pt x="314" y="173" on="0"/>
        <pt x="274" y="164" on="1"/>
        <pt x="169" y="139" on="0"/>
      </contour>
      <contour>
        <pt x="114" y="270" on="1"/>
        <pt x="96" y="269" on="1"/>
        <pt x="66" y="269" on="0"/>
        <pt x="64" y="287" on="1"/>
        <pt x="84" y="323" on="1"/>
        <pt x="87" y="326" on="0"/>
        <pt x="166" y="335" on="1"/>
        <pt x="330" y="352" on="0"/>
        <pt x="395" y="364" on="0"/>
        <pt x="407" y="364" on="0"/>
        <pt x="422" y="355" on="0"/>
        <pt x="422" y="345" on="1"/>
        <pt x="422" y="320" on="0"/>
        <pt x="405" y="309" on="1"/>
      </contour>
    </TTGlyph>
    <TTGlyph name="eth" xMin="51" yMin="6" xMax="553" yMax="622">
      <contour>
        <pt x="483" y="466" on="1"/>
        <pt x="541" y="351" on="0"/>
        <pt x="541" y="238" on="1"/>
        <pt x="541" y="119" on="0"/>
        <pt x="470" y="54" on="1"/>
        <pt x="438" y="25" on="0"/>
        <pt x="389" y="11" on="1"/>
        <pt x="373" y="6" on="0"/>
        <pt x="337" y="6" on="0"/>
        <pt x="277" y="18" on="0"/>
        <pt x="192" y="56" on="0"/>
        <pt x="153" y="84" on="1"/>
        <pt x="69" y="143" on="0"/>
        <pt x="53" y="202" on="1"/>
        <pt x="51" y="211" on="0"/>
        <pt x="51" y="240" on="0"/>
        <pt x="65" y="259" on="1"/>
        <pt x="104" y="299" on="0"/>
        <pt x="188" y="325" on="0"/>
        <pt x="238" y="325" on="0"/>
        <pt x="294" y="323" on="0"/>
        <pt x="405" y="298" on="0"/>
        <pt x="466" y="286" on="1"/>
        <pt x="458" y="359" on="0"/>
        <pt x="410" y="428" on="1"/>
        <pt x="331" y="383" on="1"/>
        <pt x="290" y="449" on="1"/>
        <pt x="358" y="483" on="1"/>
        <pt x="315" y="551" on="0"/>
        <pt x="238" y="580" on="1"/>
        <pt x="238" y="598" on="0"/>
        <pt x="267" y="619" on="0"/>
        <pt x="280" y="622" on="1"/>
        <pt x="342" y="590" on="0"/>
        <pt x="361" y="577" on="1"/>
        <pt x="400" y="552" on="0"/>
        <pt x="438" y="514" on="1"/>
        <pt x="511" y="566" on="1"/>
        <pt x="553" y="517" on="1"/>
      </contour>
      <contour>
        <pt x="146" y="232" on="1"/>
        <pt x="146" y="148" on="0"/>
        <pt x="215" y="106" on="1"/>
        <pt x="271" y="73" on="0"/>
        <pt x="366" y="73" on="1"/>
        <pt x="424" y="77" on="0"/>
        <pt x="450" y="118" on="1"/>
        <pt x="467" y="144" on="0"/>
        <pt x="467" y="195" on="0"/>
        <pt x="463" y="212" on="1"/>
        <pt x="361" y="252" on="0"/>
        <pt x="193" y="252" on="0"/>
      </contour>
    </TTGlyph>
    <TTGlyph name="exclam" xMin="22" yMin="-7" xMax="124" yMax="901">
      <contour>
        <pt x="63" y="67" on="1"/>
        <pt x="105" y="67" on="0"/>
        <pt x="124" y="51" on="0"/>
        <pt x="124" y="42" on="1"/>
        <pt x="113" y="2" on="0"/>
        <pt x="76" y="-6" on="1"/>
        <pt x="70" y="-7" on="0"/>
        <pt x="56" y="-7" on="0"/>
        <pt x="35" y="1" on="0"/>
        <pt x="30" y="11" on="1"/>
        <pt x="19" y="36" on="0"/>
      </contour>
      <contour>
        <pt x="110" y="901" on="1"/>
        <pt x="104" y="875" on="0"/>
        <pt x="104" y="278" on="0"/>
        <pt x="89" y="233" on="1"/>
        <pt x="22" y="233" on="1"/>
        <pt x="22" y="336" on="0"/>
        <pt x="30" y="491" on="1"/>
        <pt x="44" y="792" on="0"/>
        <pt x="44" y="897" on="1"/>
      </contour>
    </TTGlyph>
    <TTGlyph name="exclamdown" xMin="23" yMin="-177" xMax="125" yMax="479">
      <component glyphName="exclam" x="2" y="473" scalex="0.98974609375" scaley="-0.720458984375" flags="0x1004"/>
    </TTGlyph>
    <TTGlyph name="f" xMin="14" yMin="6" xMax="608" yMax="830">
      <contour>
        <pt x="601" y="334" on="1"/>
        <pt x="606" y="334" on="0"/>
        <pt x="606" y="280" on="0"/>
        <pt x="608" y="270" on="1"/>
        <pt x="265" y="228" on="1"/>
        <pt x="283" y="6" on="1"/>
        <pt x="202" y="10" on="1"/>
        <pt x="202" y="100" on="0"/>
        <pt x="182" y="216" on="1"/>
        <pt x="52" y="166" on="1"/>
        <pt x="39" y="166" on="0"/>
        <pt x="30" y="181" on="1"/>
        <pt x="14" y="207" on="0"/>
        <pt x="14" y="228" on="1"/>
        <pt x="166" y="282" on="1"/>
        <pt x="146" y="454" on="0"/>
        <pt x="146" y="669" on="0"/>
        <pt x="182" y="789" on="0"/>
        <pt x="251" y="830" on="0"/>
        <pt x="329" y="830" on="0"/>
        <pt x="410" y="796" on="0"/>
        <pt x="484" y="744" on="0"/>
        <pt x="536" y="679" on="0"/>
        <pt x="536" y="648" on="1"/>
        <pt x="536" y="624" on="0"/>
        <pt x="531" y="614" on="1"/>
        <pt x="491" y="670" on="0"/>
        <pt x="434" y="714" on="1"/>
        <pt x="366" y="766" on="0"/>
        <pt x="306" y="766" on="1"/>
        <pt x="249" y="766" on="0"/>
        <pt x="230" y="685" on="1"/>
        <pt x="221" y="643" on="0"/>
        <pt x="221" y="490" on="0"/>
        <pt x="229" y="363" on="0"/>
        <pt x="249" y="299" on="1"/>
        <pt x="311" y="299" on="0"/>
        <pt x="388" y="310" on="1"/>
        <pt x="536" y="333" on="0"/>
      </contour>
    </TTGlyph>
    <TTGlyph name="fi" xMin="14" yMin="-23" xMax="661" yMax="830">
      <component glyphName="f" x="0" y="0" flags="0x1004"/>
      <component glyphName="i" x="522" y="-29" flags="0x1004"/>
    </TTGlyph>
    <TTGlyph name="five" xMin="27" yMin="0" xMax="709" yMax="633">
      <contour>
        <pt x="27" y="289" on="1"/>
        <pt x="34" y="358" on="1"/>
        <pt x="41" y="416" on="0"/>
        <pt x="50" y="498" on="1"/>
        <pt x="62" y="598" on="1"/>
        <pt x="66" y="611" on="0"/>
        <pt x="83" y="615" on="0"/>
        <pt x="113" y="615" on="0"/>
        <pt x="127" y="600" on="0"/>
        <pt x="128" y="578" on="0"/>
        <pt x="122" y="550" on="0"/>
        <pt x="122" y="537" on="1"/>
        <pt x="192" y="537" on="0"/>
        <pt x="331" y="567" on="0"/>
        <pt x="469" y="603" on="0"/>
        <pt x="607" y="633" on="0"/>
        <pt x="677" y="633" on="1"/>
        <pt x="687" y="633" on="0"/>
        <pt x="704" y="628" on="0"/>
        <pt x="709" y="614" on="1"/>
        <pt x="705" y="602" on="0"/>
        <pt x="685" y="586" on="0"/>
        <pt x="638" y="570" on="0"/>
        <pt x="558" y="553" on="0"/>
        <pt x="432" y="526" on="0"/>
        <pt x="251" y="488" on="0"/>
        <pt x="128" y="460" on="1"/>
        <pt x="128" y="332" on="1"/>
        <pt x="160" y="335" on="0"/>
        <pt x="201" y="342" on="1"/>
        <pt x="277" y="355" on="0"/>
        <pt x="357" y="355" on="0"/>
        <pt x="410" y="353" on="0"/>
        <pt x="444" y="340" on="1"/>
        <pt x="517" y="312" on="0"/>
        <pt x="526" y="225" on="1"/>
        <pt x="526" y="162" on="0"/>
        <pt x="457" y="75" on="0"/>
        <pt x="405" y="49" on="1"/>
        <pt x="307" y="0" on="0"/>
        <pt x="177" y="0" on="1"/>
        <pt x="149" y="0" on="0"/>
        <pt x="125" y="12" on="0"/>
        <pt x="125" y="32" on="1"/>
        <pt x="125" y="52" on="0"/>
        <pt x="157" y="88" on="0"/>
        <pt x="177" y="88" on="1"/>
        <pt x="177" y="70" on="1"/>
        <pt x="295" y="70" on="0"/>
        <pt x="399" y="103" on="0"/>
        <pt x="460" y="162" on="0"/>
        <pt x="460" y="250" on="0"/>
        <pt x="424" y="290" on="0"/>
        <pt x="398" y="300" on="1"/>
        <pt x="358" y="316" on="0"/>
        <pt x="256" y="316" on="0"/>
        <pt x="204" y="300" on="0"/>
        <pt x="179" y="290" on="1"/>
        <pt x="112" y="265" on="0"/>
        <pt x="77" y="265" on="1"/>
        <pt x="61" y="265" on="1"/>
        <pt x="27" y="265" on="0"/>
      </contour>
    </TTGlyph>
    <TTGlyph name="fl" xMin="14" yMin="6" xMax="670" yMax="830">
      <component glyphName="f" x="0" y="0" flags="0x1004"/>
      <component glyphName="l" x="542" y="14" flags="0x1004"/>
    </TTGlyph>
    <TTGlyph name="florin" xMin="14" yMin="-418" xMax="608" yMax="830">
      <contour>
        <pt x="601" y="334" on="1"/>
        <pt x="606" y="334" on="0"/>
        <pt x="606" y="280" on="0"/>
        <pt x="608" y="270" on="1"/>
        <pt x="265" y="228" on="1"/>
        <pt x="286" y="-397" on="1"/>
        <pt x="66" y="-418" on="1"/>
        <pt x="68" y="-333" on="1"/>
        <pt x="212" y="-330" on="1"/>
        <pt x="212" y="-241" on="0"/>
        <pt x="198" y="5" on="0"/>
        <pt x="195" y="60" on="1"/>
        <pt x="188" y="180" on="0"/>
        <pt x="182" y="216" on="1"/>
        <pt x="52" y="166" on="1"/>
        <pt x="39" y="166" on="0"/>
        <pt x="30" y="181" on="1"/>
        <pt x="14" y="207" on="0"/>
        <pt x="14" y="228" on="1"/>
        <pt x="166" y="282" on="1"/>
        <pt x="146" y="454" on="0"/>
        <pt x="146" y="669" on="0"/>
        <pt x="182" y="789" on="0"/>
        <pt x="251" y="830" on="0"/>
        <pt x="329" y="830" on="0"/>
        <pt x="410" y="796" on="0"/>
        <pt x="484" y="744" on="0"/>
        <pt x="536" y="679" on="0"/>
        <pt x="536" y="648" on="1"/>
        <pt x="536" y="624" on="0"/>
        <pt x="531" y="614" on="1"/>
        <pt x="491" y="670" on="0"/>
        <pt x="434" y="714" on="1"/>
        <pt x="366" y="766" on="0"/>
        <pt x="306" y="766" on="1"/>
        <pt x="249" y="766" on="0"/>
        <pt x="230" y="685" on="1"/>
        <pt x="221" y="643" on="0"/>
        <pt x="221" y="490" on="0"/>
        <pt x="229" y="363" on="0"/>
        <pt x="249" y="299" on="1"/>
        <pt x="311" y="299" on="0"/>
        <pt x="388" y="310" on="1"/>
        <pt x="536" y="333" on="0"/>
      </contour>
    </TTGlyph>
    <TTGlyph name="four" xMin="73" yMin="-15" xMax="680" yMax="575">
      <contour>
        <pt x="397" y="-15" on="1"/>
        <pt x="376" y="-15" on="0"/>
        <pt x="373" y="-3" on="1"/>
        <pt x="377" y="195" on="1"/>
        <pt x="304" y="195" on="1"/>
        <pt x="184" y="196" on="1"/>
        <pt x="112" y="196" on="1"/>
        <pt x="99" y="196" on="0"/>
        <pt x="73" y="204" on="0"/>
        <pt x="73" y="221" on="1"/>
        <pt x="126" y="289" on="0"/>
        <pt x="176" y="358" on="1"/>
        <pt x="335" y="575" on="0"/>
        <pt x="394" y="575" on="1"/>
        <pt x="460" y="575" on="0"/>
        <pt x="460" y="343" on="1"/>
        <pt x="460" y="313" on="0"/>
        <pt x="459" y="279" on="1"/>
        <pt x="680" y="282" on="1"/>
        <pt x="680" y="256" on="0"/>
        <pt x="667" y="232" on="0"/>
        <pt x="662" y="231" on="1"/>
        <pt x="477" y="216" on="1"/>
        <pt x="463" y="177" on="0"/>
        <pt x="460" y="128" on="1"/>
        <pt x="455" y="48" on="0"/>
        <pt x="455" y="-6" on="1"/>
      </contour>
      <contour>
        <pt x="377" y="482" on="1"/>
        <pt x="355" y="452" on="0"/>
        <pt x="292" y="395" on="0"/>
        <pt x="232" y="338" on="0"/>
        <pt x="184" y="280" on="0"/>
        <pt x="178" y="249" on="1"/>
        <pt x="185" y="249" on="0"/>
        <pt x="233" y="249" on="0"/>
        <pt x="323" y="260" on="0"/>
        <pt x="377" y="266" on="1"/>
      </contour>
    </TTGlyph>
    <TTGlyph name="fraction" xMin="21" yMin="0" xMax="453" yMax="693">
      <contour>
        <pt x="39" y="0" on="1"/>
        <pt x="21" y="0" on="0"/>
        <pt x="21" y="32" on="1"/>
        <pt x="21" y="42" on="1"/>
        <pt x="21" y="78" on="0"/>
        <pt x="220" y="387" on="1"/>
        <pt x="335" y="564" on="0"/>
        <pt x="413" y="664" on="1"/>
        <pt x="433" y="689" on="0"/>
        <pt x="438" y="689" on="1"/>
        <pt x="444" y="693" on="0"/>
        <pt x="453" y="693" on="0"/>
        <pt x="453" y="669" on="0"/>
        <pt x="416" y="588" on="0"/>
        <pt x="358" y="482" on="0"/>
        <pt x="288" y="362" on="0"/>
        <pt x="209" y="237" on="0"/>
        <pt x="171" y="180" on="1"/>
        <pt x="92" y="61" on="0"/>
      </contour>
    </TTGlyph>
    <TTGlyph name="g" xMin="23" yMin="-431" xMax="507" yMax="431">
      <contour>
        <pt x="316" y="-428" on="1"/>
        <pt x="302" y="-427" on="1"/>
        <pt x="272" y="-427" on="0"/>
        <pt x="238" y="-431" on="1"/>
        <pt x="200" y="-431" on="1"/>
        <pt x="140" y="-431" on="0"/>
        <pt x="106" y="-408" on="1"/>
        <pt x="88" y="-396" on="0"/>
        <pt x="88" y="-372" on="1"/>
        <pt x="318" y="-361" on="1"/>
        <pt x="424" y="-358" on="0"/>
        <pt x="424" y="-247" on="1"/>
        <pt x="424" y="-243" on="0"/>
        <pt x="424" y="-224" on="0"/>
        <pt x="424" y="-192" on="1"/>
        <pt x="429" y="130" on="1"/>
        <pt x="429" y="147" on="0"/>
        <pt x="428" y="158" on="1"/>
        <pt x="266" y="7" on="0"/>
        <pt x="116" y="7" on="1"/>
        <pt x="103" y="7" on="0"/>
        <pt x="90" y="8" on="1"/>
        <pt x="23" y="8" on="0"/>
        <pt x="23" y="67" on="1"/>
        <pt x="25" y="113" on="0"/>
        <pt x="75" y="224" on="0"/>
        <pt x="154" y="327" on="0"/>
        <pt x="204" y="368" on="1"/>
        <pt x="281" y="431" on="0"/>
        <pt x="353" y="431" on="1"/>
        <pt x="437" y="431" on="0"/>
        <pt x="491" y="342" on="1"/>
        <pt x="507" y="104" on="0"/>
        <pt x="507" y="-96" on="0"/>
        <pt x="501" y="-224" on="0"/>
        <pt x="480" y="-330" on="0"/>
        <pt x="446" y="-392" on="0"/>
        <pt x="423" y="-406" on="1"/>
        <pt x="385" y="-428" on="0"/>
      </contour>
      <contour>
        <pt x="376" y="358" on="1"/>
        <pt x="364" y="362" on="0"/>
        <pt x="321" y="362" on="0"/>
        <pt x="253" y="326" on="0"/>
        <pt x="191" y="269" on="0"/>
        <pt x="164" y="234" on="1"/>
        <pt x="98" y="148" on="0"/>
        <pt x="98" y="97" on="1"/>
        <pt x="98" y="81" on="0"/>
        <pt x="107" y="73" on="1"/>
        <pt x="114" y="69" on="0"/>
        <pt x="135" y="69" on="0"/>
        <pt x="175" y="76" on="0"/>
        <pt x="244" y="105" on="0"/>
        <pt x="318" y="151" on="0"/>
        <pt x="348" y="179" on="1"/>
        <pt x="418" y="243" on="0"/>
        <pt x="418" y="304" on="1"/>
        <pt x="418" y="341" on="0"/>
      </contour>
    </TTGlyph>
    <TTGlyph name="gbreve" xMin="23" yMin="-431" xMax="507" yMax="574">
      <component glyphName="g" x="0" y="0" flags="0x1204"/>
      <component glyphName="breve" x="132" y="0" flags="0x1004"/>
    </TTGlyph>
    <TTGlyph name="gcircumflex" xMin="23" yMin="-431" xMax="507" yMax="687">
      <component glyphName="g" x="0" y="0" flags="0x1204"/>
      <component glyphName="circumflex" x="100" y="0" flags="0x1004"/>
    </TTGlyph>
    <TTGlyph name="gcommaaccent" xMin="23" yMin="-431" xMax="507" yMax="619">
      <component glyphName="g" x="0" y="0" flags="0x1204"/>
      <component glyphName="quoteleft" x="166" y="0" flags="0x1004"/>
    </TTGlyph>
    <TTGlyph name="gdotaccent" xMin="23" yMin="-431" xMax="507" yMax="552">
      <component glyphName="g" x="0" y="0" flags="0x1204"/>
      <component glyphName="dotaccent" x="186" y="0" flags="0x1004"/>
    </TTGlyph>
    <TTGlyph name="germandbls" xMin="73" yMin="-145" xMax="676" yMax="675">
      <contour>
        <pt x="223" y="615" on="1"/>
        <pt x="141" y="615" on="0"/>
        <pt x="131" y="598" on="1"/>
        <pt x="146" y="-145" on="1"/>
        <pt x="78" y="-145" on="1"/>
        <pt x="89" y="-75" on="0"/>
        <pt x="89" y="120" on="0"/>
        <pt x="82" y="309" on="0"/>
        <pt x="73" y="507" on="0"/>
        <pt x="73" y="548" on="1"/>
        <pt x="73" y="599" on="1"/>
        <pt x="73" y="627" on="0"/>
        <pt x="105" y="648" on="1"/>
        <pt x="123" y="660" on="0"/>
        <pt x="210" y="675" on="0"/>
        <pt x="284" y="675" on="0"/>
        <pt x="379" y="668" on="0"/>
        <pt x="493" y="630" on="0"/>
        <pt x="552" y="574" on="0"/>
        <pt x="552" y="545" on="1"/>
        <pt x="552" y="501" on="0"/>
        <pt x="433" y="412" on="0"/>
        <pt x="314" y="371" on="1"/>
        <pt x="545" y="358" on="0"/>
        <pt x="630" y="304" on="1"/>
        <pt x="676" y="275" on="0"/>
        <pt x="676" y="235" on="1"/>
        <pt x="676" y="181" on="0"/>
        <pt x="602" y="126" on="1"/>
        <pt x="519" y="64" on="0"/>
        <pt x="392" y="22" on="1"/>
        <pt x="330" y="1" on="0"/>
        <pt x="267" y="-9" on="1"/>
        <pt x="260" y="69" on="1"/>
        <pt x="375" y="85" on="0"/>
        <pt x="520" y="141" on="0"/>
        <pt x="581" y="199" on="0"/>
        <pt x="581" y="225" on="1"/>
        <pt x="581" y="262" on="0"/>
        <pt x="533" y="285" on="1"/>
        <pt x="465" y="318" on="0"/>
        <pt x="347" y="318" on="1"/>
        <pt x="288" y="318" on="0"/>
        <pt x="214" y="309" on="1"/>
        <pt x="210" y="414" on="1"/>
        <pt x="451" y="464" on="0"/>
        <pt x="451" y="531" on="1"/>
        <pt x="451" y="578" on="0"/>
        <pt x="366" y="600" on="1"/>
        <pt x="309" y="615" on="0"/>
        <pt x="244" y="615" on="1"/>
      </contour>
    </TTGlyph>
    <TTGlyph name="grave" xMin="47" yMin="494" xMax="151" yMax="616">
      <contour>
        <pt x="47" y="588" on="1"/>
        <pt x="47" y="616" on="0"/>
        <pt x="62" y="616" on="1"/>
        <pt x="71" y="616" on="0"/>
        <pt x="84" y="602" on="1"/>
        <pt x="151" y="537" on="1"/>
        <pt x="134" y="494" on="1"/>
        <pt x="68" y="539" on="0"/>
        <pt x="56" y="559" on="1"/>
        <pt x="52" y="567" on="0"/>
        <pt x="47" y="583" on="0"/>
      </contour>
    </TTGlyph>
    <TTGlyph name="greater" xMin="50" yMin="48" xMax="426" yMax="445">
      <contour>
        <pt x="118" y="48" on="1"/>
        <pt x="73" y="65" on="0"/>
        <pt x="68" y="84" on="1"/>
        <pt x="68" y="88" on="0"/>
        <pt x="68" y="91" on="1"/>
        <pt x="68" y="122" on="0"/>
        <pt x="139" y="164" on="1"/>
        <pt x="244" y="225" on="0"/>
        <pt x="308" y="274" on="0"/>
        <pt x="314" y="297" on="1"/>
        <pt x="50" y="396" on="1"/>
        <pt x="100" y="445" on="1"/>
        <pt x="149" y="410" on="0"/>
        <pt x="232" y="382" on="0"/>
        <pt x="309" y="365" on="0"/>
        <pt x="385" y="342" on="0"/>
        <pt x="426" y="311" on="1"/>
        <pt x="400" y="280" on="0"/>
        <pt x="321" y="217" on="0"/>
        <pt x="234" y="151" on="0"/>
        <pt x="149" y="83" on="0"/>
      </contour>
    </TTGlyph>
    <TTGlyph name="guillemotleft" xMin="84" yMin="59" xMax="665" yMax="490">
      <contour>
        <pt x="84" y="229" on="1"/>
        <pt x="116" y="254" on="0"/>
        <pt x="202" y="322" on="0"/>
        <pt x="246" y="356" on="1"/>
        <pt x="354" y="441" on="0"/>
        <pt x="401" y="467" on="1"/>
        <pt x="414" y="467" on="0"/>
        <pt x="420" y="445" on="1"/>
        <pt x="423" y="436" on="0"/>
        <pt x="423" y="418" on="0"/>
        <pt x="419" y="412" on="1"/>
        <pt x="184" y="233" on="1"/>
        <pt x="199" y="225" on="0"/>
        <pt x="255" y="200" on="0"/>
        <pt x="289" y="183" on="1"/>
        <pt x="370" y="143" on="0"/>
        <pt x="431" y="103" on="1"/>
        <pt x="430" y="102" on="0"/>
        <pt x="424" y="88" on="0"/>
        <pt x="420" y="80" on="1"/>
        <pt x="411" y="59" on="0"/>
        <pt x="409" y="59" on="1"/>
        <pt x="379" y="78" on="0"/>
        <pt x="267" y="117" on="0"/>
        <pt x="199" y="144" on="0"/>
        <pt x="170" y="158" on="1"/>
        <pt x="102" y="192" on="0"/>
      </contour>
      <contour>
        <pt x="318" y="251" on="1"/>
        <pt x="350" y="276" on="0"/>
        <pt x="435" y="345" on="0"/>
        <pt x="480" y="380" on="1"/>
        <pt x="585" y="461" on="0"/>
        <pt x="634" y="490" on="1"/>
        <pt x="647" y="488" on="0"/>
        <pt x="654" y="467" on="1"/>
        <pt x="660" y="448" on="0"/>
        <pt x="653" y="434" on="1"/>
        <pt x="418" y="255" on="1"/>
        <pt x="433" y="247" on="0"/>
        <pt x="488" y="222" on="0"/>
        <pt x="522" y="205" on="1"/>
        <pt x="614" y="159" on="0"/>
        <pt x="665" y="126" on="1"/>
        <pt x="664" y="124" on="0"/>
        <pt x="658" y="110" on="0"/>
        <pt x="654" y="102" on="1"/>
        <pt x="645" y="82" on="0"/>
        <pt x="642" y="82" on="1"/>
        <pt x="612" y="101" on="0"/>
        <pt x="500" y="140" on="0"/>
        <pt x="433" y="166" on="0"/>
        <pt x="403" y="181" on="1"/>
        <pt x="335" y="215" on="0"/>
      </contour>
    </TTGlyph>
    <TTGlyph name="guillemotright" xMin="50" yMin="48" xMax="654" yMax="473">
      <contour>
        <pt x="118" y="48" on="1"/>
        <pt x="73" y="65" on="0"/>
        <pt x="68" y="84" on="1"/>
        <pt x="68" y="88" on="0"/>
        <pt x="68" y="91" on="1"/>
        <pt x="68" y="122" on="0"/>
        <pt x="139" y="164" on="1"/>
        <pt x="244" y="225" on="0"/>
        <pt x="308" y="274" on="0"/>
        <pt x="314" y="297" on="1"/>
        <pt x="50" y="396" on="1"/>
        <pt x="100" y="445" on="1"/>
        <pt x="149" y="410" on="0"/>
        <pt x="232" y="382" on="0"/>
        <pt x="309" y="365" on="0"/>
        <pt x="385" y="342" on="0"/>
        <pt x="426" y="311" on="1"/>
        <pt x="400" y="280" on="0"/>
        <pt x="321" y="217" on="0"/>
        <pt x="234" y="151" on="0"/>
        <pt x="149" y="83" on="0"/>
      </contour>
      <contour>
        <pt x="345" y="76" on="1"/>
        <pt x="257" y="110" on="0"/>
        <pt x="322" y="161" on="1"/>
        <pt x="355" y="187" on="0"/>
        <pt x="450" y="241" on="0"/>
        <pt x="475" y="258" on="1"/>
        <pt x="534" y="296" on="0"/>
        <pt x="542" y="325" on="1"/>
        <pt x="277" y="424" on="1"/>
        <pt x="327" y="473" on="1"/>
        <pt x="376" y="438" on="0"/>
        <pt x="459" y="410" on="0"/>
        <pt x="537" y="393" on="0"/>
        <pt x="612" y="370" on="0"/>
        <pt x="654" y="339" on="1"/>
        <pt x="628" y="308" on="0"/>
        <pt x="549" y="245" on="0"/>
        <pt x="462" y="179" on="0"/>
        <pt x="377" y="111" on="0"/>
      </contour>
    </TTGlyph>
    <TTGlyph name="guilsinglleft" xMin="84" yMin="59" xMax="431" yMax="467">
      <contour>
        <pt x="84" y="229" on="1"/>
        <pt x="116" y="254" on="0"/>
        <pt x="202" y="322" on="0"/>
        <pt x="246" y="356" on="1"/>
        <pt x="354" y="441" on="0"/>
        <pt x="401" y="467" on="1"/>
        <pt x="414" y="467" on="0"/>
        <pt x="420" y="445" on="1"/>
        <pt x="423" y="436" on="0"/>
        <pt x="423" y="418" on="0"/>
        <pt x="419" y="412" on="1"/>
        <pt x="184" y="233" on="1"/>
        <pt x="199" y="225" on="0"/>
        <pt x="255" y="200" on="0"/>
        <pt x="289" y="183" on="1"/>
        <pt x="370" y="143" on="0"/>
        <pt x="431" y="103" on="1"/>
        <pt x="430" y="102" on="0"/>
        <pt x="424" y="88" on="0"/>
        <pt x="420" y="80" on="1"/>
        <pt x="411" y="59" on="0"/>
        <pt x="409" y="59" on="1"/>
        <pt x="379" y="78" on="0"/>
        <pt x="267" y="117" on="0"/>
        <pt x="199" y="144" on="0"/>
        <pt x="170" y="158" on="1"/>
        <pt x="102" y="192" on="0"/>
      </contour>
    </TTGlyph>
    <TTGlyph name="guilsinglright" xMin="50" yMin="48" xMax="426" yMax="445">
      <contour>
        <pt x="118" y="48" on="1"/>
        <pt x="73" y="65" on="0"/>
        <pt x="68" y="84" on="1"/>
        <pt x="68" y="88" on="0"/>
        <pt x="68" y="91" on="1"/>
        <pt x="68" y="122" on="0"/>
        <pt x="139" y="164" on="1"/>
        <pt x="244" y="225" on="0"/>
        <pt x="308" y="274" on="0"/>
        <pt x="314" y="297" on="1"/>
        <pt x="50" y="396" on="1"/>
        <pt x="100" y="445" on="1"/>
        <pt x="149" y="410" on="0"/>
        <pt x="232" y="382" on="0"/>
        <pt x="309" y="365" on="0"/>
        <pt x="385" y="342" on="0"/>
        <pt x="426" y="311" on="1"/>
        <pt x="400" y="280" on="0"/>
        <pt x="321" y="217" on="0"/>
        <pt x="234" y="151" on="0"/>
        <pt x="149" y="83" on="0"/>
      </contour>
    </TTGlyph>
    <TTGlyph name="h" xMin="23" yMin="-3" xMax="497" yMax="668">
      <contour>
        <pt x="497" y="14" on="1"/>
        <pt x="488" y="-3" on="0"/>
        <pt x="413" y="-3" on="0"/>
        <pt x="413" y="24" on="1"/>
        <pt x="413" y="142" on="0"/>
        <pt x="408" y="186" on="1"/>
        <pt x="399" y="283" on="0"/>
        <pt x="370" y="290" on="1"/>
        <pt x="298" y="304" on="0"/>
        <pt x="207" y="304" on="0"/>
        <pt x="148" y="249" on="0"/>
        <pt x="117" y="122" on="0"/>
        <pt x="110" y="7" on="1"/>
        <pt x="33" y="7" on="1"/>
        <pt x="35" y="64" on="0"/>
        <pt x="35" y="162" on="0"/>
        <pt x="31" y="297" on="0"/>
        <pt x="28" y="377" on="1"/>
        <pt x="23" y="469" on="0"/>
        <pt x="23" y="596" on="0"/>
        <pt x="31" y="649" on="1"/>
        <pt x="41" y="668" on="0"/>
        <pt x="60" y="668" on="1"/>
        <pt x="83" y="668" on="0"/>
        <pt x="109" y="635" on="0"/>
        <pt x="110" y="622" on="1"/>
        <pt x="105" y="457" on="1"/>
        <pt x="105" y="364" on="0"/>
        <pt x="114" y="318" on="1"/>
        <pt x="204" y="378" on="0"/>
        <pt x="300" y="378" on="1"/>
        <pt x="331" y="378" on="0"/>
        <pt x="366" y="373" on="1"/>
        <pt x="441" y="334" on="0"/>
        <pt x="464" y="290" on="1"/>
        <pt x="475" y="267" on="0"/>
        <pt x="481" y="215" on="0"/>
        <pt x="482" y="182" on="1"/>
        <pt x="488" y="68" on="0"/>
      </contour>
    </TTGlyph>
    <TTGlyph name="hbar" xMin="-15" yMin="-3" xMax="497" yMax="668">
      <component glyphName="h" x="0" y="0" flags="0x1204"/>
      <component glyphName="macron" x="-45" y="-99" flags="0x1004"/>
    </TTGlyph>
    <TTGlyph name="hcircumflex" xMin="23" yMin="-3" xMax="497" yMax="797">
      <component glyphName="h" x="0" y="0" flags="0x1204"/>
      <component glyphName="circumflex" x="121" y="110" flags="0x1004"/>
    </TTGlyph>
    <TTGlyph name="hungarumlaut" xMin="44" yMin="510" xMax="242" yMax="658">
      <contour>
        <pt x="97" y="633" on="1"/>
        <pt x="109" y="658" on="0"/>
        <pt x="126" y="658" on="1"/>
        <pt x="134" y="658" on="0"/>
        <pt x="146" y="644" on="0"/>
        <pt x="148" y="635" on="1"/>
        <pt x="148" y="617" on="0"/>
        <pt x="138" y="600" on="1"/>
        <pt x="122" y="573" on="0"/>
        <pt x="81" y="520" on="1"/>
        <pt x="44" y="542" on="1"/>
      </contour>
      <contour>
        <pt x="242" y="624" on="1"/>
        <pt x="242" y="607" on="0"/>
        <pt x="232" y="590" on="1"/>
        <pt x="219" y="568" on="0"/>
        <pt x="174" y="510" on="1"/>
        <pt x="138" y="532" on="1"/>
        <pt x="190" y="622" on="1"/>
        <pt x="202" y="647" on="0"/>
        <pt x="237" y="647" on="0"/>
      </contour>
    </TTGlyph>
    <TTGlyph name="hyphen" xMin="30" yMin="216" xMax="299" yMax="294">
      <contour>
        <pt x="80" y="216" on="1"/>
        <pt x="30" y="216" on="0"/>
        <pt x="30" y="242" on="1"/>
        <pt x="30" y="255" on="0"/>
        <pt x="53" y="265" on="0"/>
        <pt x="110" y="273" on="0"/>
        <pt x="197" y="289" on="0"/>
        <pt x="245" y="294" on="1"/>
        <pt x="265" y="294" on="0"/>
        <pt x="279" y="287" on="1"/>
        <pt x="299" y="277" on="0"/>
        <pt x="299" y="263" on="1"/>
        <pt x="299" y="258" on="0"/>
        <pt x="290" y="242" on="0"/>
        <pt x="272" y="236" on="1"/>
      </contour>
    </TTGlyph>
    <TTGlyph name="i" xMin="24" yMin="6" xMax="139" yMax="641">
      <contour>
        <pt x="117" y="470" on="1"/>
        <pt x="130" y="283" on="0"/>
        <pt x="139" y="37" on="1"/>
        <pt x="133" y="6" on="0"/>
        <pt x="91" y="6" on="1"/>
        <pt x="80" y="6" on="0"/>
        <pt x="57" y="15" on="0"/>
        <pt x="54" y="23" on="1"/>
        <pt x="54" y="470" on="1"/>
      </contour>
      <contour>
        <pt x="24" y="606" on="1"/>
        <pt x="24" y="641" on="0"/>
        <pt x="65" y="641" on="1"/>
        <pt x="92" y="641" on="0"/>
        <pt x="109" y="629" on="1"/>
        <pt x="112" y="618" on="0"/>
        <pt x="112" y="597" on="0"/>
        <pt x="104" y="587" on="1"/>
        <pt x="96" y="577" on="0"/>
        <pt x="64" y="577" on="0"/>
        <pt x="32" y="592" on="0"/>
      </contour>
    </TTGlyph>
    <TTGlyph name="iacute" xMin="33" yMin="6" xMax="151" yMax="658">
      <contour>
        <pt x="117" y="470" on="1"/>
        <pt x="130" y="283" on="0"/>
        <pt x="139" y="37" on="1"/>
        <pt x="133" y="6" on="0"/>
        <pt x="91" y="6" on="1"/>
        <pt x="80" y="6" on="0"/>
        <pt x="57" y="15" on="0"/>
        <pt x="54" y="23" on="1"/>
        <pt x="54" y="470" on="1"/>
      </contour>
      <contour>
        <pt x="102" y="639" on="1"/>
        <pt x="116" y="658" on="0"/>
        <pt x="132" y="658" on="1"/>
        <pt x="142" y="658" on="0"/>
        <pt x="152" y="639" on="0"/>
        <pt x="150" y="621" on="0"/>
        <pt x="142" y="605" on="0"/>
        <pt x="133" y="594" on="1"/>
        <pt x="116" y="575" on="0"/>
        <pt x="64" y="532" on="1"/>
        <pt x="33" y="560" on="1"/>
      </contour>
    </TTGlyph>
    <TTGlyph name="icircumflex" xMin="-68" yMin="6" xMax="214" yMax="687">
      <contour>
        <pt x="117" y="470" on="1"/>
        <pt x="130" y="283" on="0"/>
        <pt x="139" y="37" on="1"/>
        <pt x="133" y="6" on="0"/>
        <pt x="91" y="6" on="1"/>
        <pt x="80" y="6" on="0"/>
        <pt x="57" y="15" on="0"/>
        <pt x="54" y="23" on="1"/>
        <pt x="54" y="470" on="1"/>
      </contour>
      <contour>
        <pt x="-45" y="510" on="0"/>
        <pt x="-68" y="520" on="0"/>
        <pt x="-68" y="558" on="0"/>
        <pt x="-47" y="594" on="0"/>
        <pt x="-28" y="614" on="1"/>
        <pt x="14" y="658" on="0"/>
        <pt x="76" y="687" on="1"/>
        <pt x="127" y="654" on="0"/>
        <pt x="144" y="640" on="1"/>
        <pt x="172" y="615" on="0"/>
        <pt x="208" y="559" on="1"/>
        <pt x="214" y="547" on="0"/>
        <pt x="214" y="526" on="0"/>
        <pt x="210" y="520" on="1"/>
        <pt x="199" y="504" on="0"/>
        <pt x="174" y="519" on="1"/>
        <pt x="137" y="546" on="0"/>
        <pt x="124" y="558" on="0"/>
        <pt x="100" y="584" on="0"/>
        <pt x="69" y="614" on="1"/>
        <pt x="8" y="572" on="0"/>
        <pt x="-14" y="536" on="1"/>
        <pt x="-21" y="524" on="0"/>
        <pt x="-27" y="510" on="1"/>
      </contour>
    </TTGlyph>
    <TTGlyph name="idieresis" xMin="-38" yMin="6" xMax="193" yMax="664">
      <contour>
        <pt x="117" y="470" on="1"/>
        <pt x="130" y="283" on="0"/>
        <pt x="139" y="37" on="1"/>
        <pt x="133" y="6" on="0"/>
        <pt x="91" y="6" on="1"/>
        <pt x="80" y="6" on="0"/>
        <pt x="57" y="15" on="0"/>
        <pt x="54" y="23" on="1"/>
        <pt x="54" y="470" on="1"/>
      </contour>
      <contour>
        <pt x="-14" y="597" on="1"/>
        <pt x="-38" y="597" on="0"/>
        <pt x="-38" y="631" on="1"/>
        <pt x="-38" y="643" on="0"/>
        <pt x="12" y="664" on="1"/>
        <pt x="33" y="664" on="0"/>
        <pt x="48" y="646" on="0"/>
        <pt x="48" y="618" on="0"/>
        <pt x="36" y="605" on="0"/>
        <pt x="27" y="602" on="1"/>
        <pt x="15" y="597" on="0"/>
      </contour>
      <contour>
        <pt x="130" y="597" on="1"/>
        <pt x="106" y="597" on="0"/>
        <pt x="106" y="631" on="1"/>
        <pt x="106" y="644" on="0"/>
        <pt x="157" y="664" on="1"/>
        <pt x="193" y="664" on="0"/>
        <pt x="193" y="630" on="1"/>
        <pt x="193" y="599" on="0"/>
        <pt x="151" y="598" on="1"/>
        <pt x="140" y="597" on="0"/>
      </contour>
    </TTGlyph>
    <TTGlyph name="igrave" xMin="28" yMin="6" xMax="139" yMax="668">
      <contour>
        <pt x="139" y="37" on="1"/>
        <pt x="136" y="21" on="0"/>
        <pt x="110" y="7" on="0"/>
        <pt x="94" y="6" on="0"/>
        <pt x="80" y="6" on="0"/>
        <pt x="57" y="15" on="0"/>
        <pt x="54" y="23" on="1"/>
        <pt x="54" y="470" on="1"/>
        <pt x="117" y="470" on="1"/>
        <pt x="130" y="283" on="0"/>
      </contour>
      <contour>
        <pt x="28" y="640" on="1"/>
        <pt x="28" y="668" on="0"/>
        <pt x="43" y="668" on="1"/>
        <pt x="52" y="668" on="0"/>
        <pt x="65" y="654" on="1"/>
        <pt x="132" y="589" on="1"/>
        <pt x="115" y="546" on="1"/>
        <pt x="49" y="591" on="0"/>
        <pt x="38" y="611" on="1"/>
        <pt x="33" y="619" on="0"/>
        <pt x="28" y="635" on="0"/>
      </contour>
    </TTGlyph>
    <TTGlyph name="imacron" xMin="-68" yMin="6" xMax="201" yMax="611">
      <contour>
        <pt x="117" y="470" on="1"/>
        <pt x="130" y="283" on="0"/>
        <pt x="139" y="37" on="1"/>
        <pt x="133" y="6" on="0"/>
        <pt x="91" y="6" on="1"/>
        <pt x="80" y="6" on="0"/>
        <pt x="57" y="15" on="0"/>
        <pt x="54" y="23" on="1"/>
        <pt x="54" y="470" on="1"/>
      </contour>
      <contour>
        <pt x="-18" y="534" on="1"/>
        <pt x="-68" y="534" on="0"/>
        <pt x="-68" y="559" on="1"/>
        <pt x="-68" y="573" on="0"/>
        <pt x="-45" y="583" on="0"/>
        <pt x="12" y="591" on="0"/>
        <pt x="99" y="606" on="0"/>
        <pt x="147" y="611" on="1"/>
        <pt x="189" y="611" on="0"/>
        <pt x="200" y="588" on="1"/>
        <pt x="201" y="584" on="0"/>
        <pt x="201" y="575" on="0"/>
        <pt x="192" y="560" on="0"/>
        <pt x="174" y="554" on="1"/>
      </contour>
    </TTGlyph>
    <TTGlyph name="iogonek" xMin="-12" yMin="-171" xMax="168" yMax="641">
      <component glyphName="i" x="0" y="0" flags="0x1204"/>
      <component glyphName="ogonek" x="-50" y="14" flags="0x1004"/>
    </TTGlyph>
    <TTGlyph name="itilde" xMin="-124" yMin="6" xMax="272" yMax="688">
      <contour>
        <pt x="117" y="470" on="1"/>
        <pt x="130" y="283" on="0"/>
        <pt x="139" y="37" on="1"/>
        <pt x="133" y="6" on="0"/>
        <pt x="91" y="6" on="1"/>
        <pt x="80" y="6" on="0"/>
        <pt x="57" y="15" on="0"/>
        <pt x="54" y="23" on="1"/>
        <pt x="54" y="470" on="1"/>
      </contour>
      <contour>
        <pt x="-2" y="601" on="1"/>
        <pt x="-34" y="601" on="0"/>
        <pt x="-88" y="520" on="1"/>
        <pt x="-94" y="520" on="0"/>
        <pt x="-121" y="528" on="0"/>
        <pt x="-124" y="541" on="1"/>
        <pt x="-109" y="589" on="0"/>
        <pt x="-49" y="663" on="0"/>
        <pt x="-16" y="676" on="1"/>
        <pt x="-8" y="679" on="0"/>
        <pt x="12" y="679" on="0"/>
        <pt x="41" y="658" on="0"/>
        <pt x="77" y="620" on="0"/>
        <pt x="115" y="586" on="0"/>
        <pt x="158" y="586" on="0"/>
        <pt x="183" y="600" on="0"/>
        <pt x="204" y="626" on="0"/>
        <pt x="229" y="664" on="0"/>
        <pt x="252" y="688" on="1"/>
        <pt x="258" y="688" on="0"/>
        <pt x="271" y="667" on="0"/>
        <pt x="272" y="652" on="0"/>
        <pt x="272" y="630" on="0"/>
        <pt x="257" y="594" on="0"/>
        <pt x="240" y="576" on="1"/>
        <pt x="196" y="529" on="0"/>
        <pt x="134" y="529" on="1"/>
        <pt x="88" y="529" on="0"/>
        <pt x="60" y="560" on="1"/>
        <pt x="40" y="578" on="0"/>
        <pt x="12" y="601" on="0"/>
      </contour>
    </TTGlyph>
    <TTGlyph name="j" xMin="-114" yMin="-367" xMax="173" yMax="707">
      <contour>
        <pt x="173" y="-200" on="1"/>
        <pt x="173" y="-367" on="0"/>
        <pt x="85" y="-367" on="1"/>
        <pt x="76" y="-367" on="0"/>
        <pt x="49" y="-366" on="0"/>
        <pt x="-4" y="-359" on="0"/>
        <pt x="-31" y="-350" on="1"/>
        <pt x="-96" y="-328" on="0"/>
        <pt x="-114" y="-286" on="1"/>
        <pt x="-114" y="-283" on="0"/>
        <pt x="-109" y="-272" on="1"/>
        <pt x="-100" y="-252" on="0"/>
        <pt x="-100" y="-249" on="1"/>
        <pt x="-67" y="-274" on="0"/>
        <pt x="9" y="-318" on="0"/>
        <pt x="52" y="-318" on="1"/>
        <pt x="81" y="-318" on="0"/>
        <pt x="98" y="-276" on="1"/>
        <pt x="114" y="-240" on="0"/>
        <pt x="114" y="-204" on="1"/>
        <pt x="114" y="-107" on="0"/>
        <pt x="100" y="48" on="1"/>
        <pt x="80" y="281" on="0"/>
        <pt x="80" y="408" on="0"/>
        <pt x="82" y="448" on="1"/>
        <pt x="79" y="472" on="0"/>
        <pt x="104" y="484" on="1"/>
        <pt x="123" y="493" on="0"/>
        <pt x="146" y="493" on="1"/>
        <pt x="137" y="431" on="0"/>
        <pt x="137" y="359" on="0"/>
        <pt x="138" y="282" on="0"/>
        <pt x="149" y="134" on="0"/>
        <pt x="156" y="60" on="1"/>
        <pt x="173" y="-101" on="0"/>
      </contour>
      <contour>
        <pt x="110" y="707" on="1"/>
        <pt x="126" y="696" on="0"/>
        <pt x="126" y="672" on="1"/>
        <pt x="126" y="648" on="0"/>
        <pt x="108" y="643" on="1"/>
        <pt x="107" y="643" on="0"/>
        <pt x="94" y="643" on="0"/>
        <pt x="79" y="656" on="1"/>
        <pt x="79" y="688" on="0"/>
        <pt x="94" y="702" on="1"/>
        <pt x="100" y="707" on="0"/>
      </contour>
    </TTGlyph>
    <TTGlyph name="jcircumflex" xMin="-124" yMin="-367" xMax="217" yMax="687">
      <contour>
        <pt x="163" y="-200" on="1"/>
        <pt x="163" y="-367" on="0"/>
        <pt x="75" y="-367" on="1"/>
        <pt x="66" y="-367" on="0"/>
        <pt x="39" y="-366" on="0"/>
        <pt x="-14" y="-359" on="0"/>
        <pt x="-41" y="-350" on="1"/>
        <pt x="-106" y="-328" on="0"/>
        <pt x="-124" y="-286" on="1"/>
        <pt x="-124" y="-281" on="0"/>
        <pt x="-110" y="-250" on="0"/>
        <pt x="-110" y="-249" on="1"/>
        <pt x="-77" y="-274" on="0"/>
        <pt x="-1" y="-318" on="0"/>
        <pt x="42" y="-318" on="1"/>
        <pt x="70" y="-318" on="0"/>
        <pt x="88" y="-276" on="1"/>
        <pt x="103" y="-240" on="0"/>
        <pt x="103" y="-204" on="1"/>
        <pt x="103" y="-119" on="0"/>
        <pt x="90" y="42" on="0"/>
        <pt x="84" y="122" on="1"/>
        <pt x="70" y="287" on="0"/>
        <pt x="70" y="408" on="0"/>
        <pt x="72" y="448" on="1"/>
        <pt x="69" y="472" on="0"/>
        <pt x="94" y="484" on="1"/>
        <pt x="113" y="493" on="0"/>
        <pt x="136" y="493" on="1"/>
        <pt x="127" y="431" on="0"/>
        <pt x="127" y="359" on="0"/>
        <pt x="128" y="282" on="0"/>
        <pt x="139" y="134" on="0"/>
        <pt x="146" y="60" on="1"/>
        <pt x="163" y="-101" on="0"/>
      </contour>
      <contour>
        <pt x="-42" y="510" on="0"/>
        <pt x="-65" y="520" on="0"/>
        <pt x="-65" y="558" on="0"/>
        <pt x="-44" y="594" on="0"/>
        <pt x="-25" y="614" on="1"/>
        <pt x="17" y="658" on="0"/>
        <pt x="79" y="687" on="1"/>
        <pt x="130" y="654" on="0"/>
        <pt x="147" y="640" on="1"/>
        <pt x="175" y="615" on="0"/>
        <pt x="211" y="559" on="1"/>
        <pt x="217" y="547" on="0"/>
        <pt x="217" y="526" on="0"/>
        <pt x="212" y="520" on="1"/>
        <pt x="202" y="504" on="0"/>
        <pt x="177" y="519" on="1"/>
        <pt x="140" y="546" on="0"/>
        <pt x="127" y="558" on="0"/>
        <pt x="103" y="584" on="0"/>
        <pt x="72" y="614" on="1"/>
        <pt x="11" y="572" on="0"/>
        <pt x="-10" y="536" on="1"/>
        <pt x="-18" y="524" on="0"/>
        <pt x="-24" y="510" on="1"/>
      </contour>
    </TTGlyph>
    <TTGlyph name="k" xMin="30" yMin="-5" xMax="612" yMax="731">
      <contour>
        <pt x="126" y="182" on="1"/>
        <pt x="131" y="95" on="1"/>
        <pt x="131" y="15" on="0"/>
        <pt x="93" y="-2" on="1"/>
        <pt x="85" y="-5" on="0"/>
        <pt x="63" y="-5" on="0"/>
        <pt x="48" y="0" on="1"/>
        <pt x="49" y="374" on="1"/>
        <pt x="49" y="455" on="0"/>
        <pt x="30" y="618" on="0"/>
        <pt x="30" y="699" on="1"/>
        <pt x="30" y="731" on="0"/>
        <pt x="64" y="731" on="1"/>
        <pt x="72" y="731" on="1"/>
        <pt x="79" y="731" on="0"/>
        <pt x="81" y="730" on="1"/>
        <pt x="96" y="668" on="0"/>
        <pt x="101" y="580" on="1"/>
        <pt x="112" y="385" on="0"/>
        <pt x="121" y="318" on="1"/>
        <pt x="138" y="327" on="0"/>
        <pt x="256" y="411" on="0"/>
        <pt x="328" y="462" on="0"/>
        <pt x="360" y="484" on="1"/>
        <pt x="435" y="533" on="0"/>
        <pt x="454" y="533" on="1"/>
        <pt x="470" y="533" on="0"/>
        <pt x="479" y="514" on="1"/>
        <pt x="429" y="451" on="0"/>
        <pt x="318" y="374" on="1"/>
        <pt x="273" y="343" on="0"/>
        <pt x="184" y="282" on="0"/>
        <pt x="147" y="249" on="1"/>
        <pt x="214" y="231" on="0"/>
        <pt x="334" y="192" on="0"/>
        <pt x="390" y="176" on="1"/>
        <pt x="519" y="138" on="0"/>
        <pt x="612" y="133" on="1"/>
        <pt x="612" y="106" on="0"/>
        <pt x="607" y="98" on="1"/>
        <pt x="598" y="84" on="0"/>
        <pt x="570" y="82" on="1"/>
        <pt x="562" y="82" on="1"/>
        <pt x="501" y="99" on="0"/>
        <pt x="400" y="120" on="1"/>
        <pt x="201" y="161" on="0"/>
      </contour>
    </TTGlyph>
    <TTGlyph name="kcommaaccent" xMin="30" yMin="-251" xMax="612" yMax="731">
      <component glyphName="k" x="0" y="0" flags="0x1204"/>
      <component glyphName="commaaccent" x="118" y="0" flags="0x1004"/>
    </TTGlyph>
    <TTGlyph name="l" xMin="22" yMin="-1" xMax="128" yMax="682">
      <contour>
        <pt x="43" y="442" on="0"/>
        <pt x="39" y="527" on="0"/>
        <pt x="38" y="568" on="0"/>
        <pt x="22" y="648" on="1"/>
        <pt x="31" y="660" on="0"/>
        <pt x="48" y="682" on="0"/>
        <pt x="64" y="682" on="1"/>
        <pt x="99" y="682" on="0"/>
        <pt x="118" y="387" on="1"/>
        <pt x="128" y="216" on="0"/>
        <pt x="128" y="45" on="1"/>
        <pt x="128" y="-1" on="0"/>
        <pt x="64" y="-1" on="1"/>
        <pt x="56" y="0" on="1"/>
        <pt x="56" y="52" on="0"/>
        <pt x="50" y="214" on="0"/>
        <pt x="47" y="334" on="0"/>
      </contour>
    </TTGlyph>
    <TTGlyph name="lacute" xMin="16" yMin="-1" xMax="134" yMax="828">
      <component glyphName="l" x="0" y="0" flags="0x1204"/>
      <component glyphName="acute" x="-9" y="204" flags="0x1004"/>
    </TTGlyph>
    <TTGlyph name="lcommaaccent" xMin="8" yMin="-251" xMax="147" yMax="682">
      <component glyphName="l" x="0" y="0" flags="0x1204"/>
      <component glyphName="commaaccent" x="-115" y="0" flags="0x1004"/>
    </TTGlyph>
    <TTGlyph name="ldot" xMin="22" yMin="-1" xMax="263" yMax="682">
      <component glyphName="l" x="0" y="0" flags="0x1004"/>
      <component glyphName="periodcentered" x="161" y="0" flags="0x1004"/>
    </TTGlyph>
    <TTGlyph name="less" xMin="84" yMin="59" xMax="431" yMax="467">
      <contour>
        <pt x="84" y="229" on="1"/>
        <pt x="116" y="254" on="0"/>
        <pt x="202" y="322" on="0"/>
        <pt x="246" y="356" on="1"/>
        <pt x="354" y="441" on="0"/>
        <pt x="401" y="467" on="1"/>
        <pt x="414" y="467" on="0"/>
        <pt x="420" y="445" on="1"/>
        <pt x="423" y="436" on="0"/>
        <pt x="423" y="418" on="0"/>
        <pt x="419" y="412" on="1"/>
        <pt x="184" y="233" on="1"/>
        <pt x="199" y="225" on="0"/>
        <pt x="255" y="200" on="0"/>
        <pt x="289" y="183" on="1"/>
        <pt x="370" y="143" on="0"/>
        <pt x="431" y="103" on="1"/>
        <pt x="430" y="102" on="0"/>
        <pt x="424" y="88" on="0"/>
        <pt x="420" y="80" on="1"/>
        <pt x="411" y="59" on="0"/>
        <pt x="409" y="59" on="1"/>
        <pt x="379" y="78" on="0"/>
        <pt x="267" y="117" on="0"/>
        <pt x="199" y="144" on="0"/>
        <pt x="170" y="158" on="1"/>
        <pt x="102" y="192" on="0"/>
      </contour>
    </TTGlyph>
    <TTGlyph name="logicalnot" xMin="73" yMin="120" xMax="587" yMax="352">
      <contour>
        <pt x="587" y="341" on="1"/>
        <pt x="582" y="286" on="0"/>
        <pt x="582" y="263" on="1"/>
        <pt x="582" y="230" on="1"/>
        <pt x="582" y="195" on="0"/>
        <pt x="573" y="121" on="1"/>
        <pt x="559" y="120" on="0"/>
        <pt x="537" y="120" on="0"/>
        <pt x="528" y="122" on="1"/>
        <pt x="511" y="127" on="0"/>
        <pt x="511" y="169" on="1"/>
        <pt x="514" y="273" on="1"/>
        <pt x="73" y="266" on="1"/>
        <pt x="76" y="331" on="1"/>
        <pt x="92" y="330" on="0"/>
        <pt x="153" y="330" on="0"/>
        <pt x="213" y="335" on="1"/>
        <pt x="340" y="346" on="1"/>
        <pt x="422" y="352" on="0"/>
        <pt x="541" y="352" on="0"/>
      </contour>
    </TTGlyph>
    <TTGlyph name="lslash" xMin="-63" yMin="-1" xMax="206" yMax="682">
      <component glyphName="l" x="0" y="0" flags="0x1204"/>
      <component glyphName="endash" x="-93" y="0" flags="0x1004"/>
    </TTGlyph>
    <TTGlyph name="m" xMin="26" yMin="-3" xMax="790" yMax="459">
      <contour>
        <pt x="110" y="16" on="1"/>
        <pt x="69" y="-1" on="0"/>
        <pt x="42" y="-1" on="0"/>
        <pt x="32" y="5" on="0"/>
        <pt x="26" y="16" on="1"/>
        <pt x="26" y="49" on="0"/>
        <pt x="31" y="149" on="0"/>
        <pt x="35" y="263" on="0"/>
        <pt x="35" y="379" on="0"/>
        <pt x="29" y="427" on="1"/>
        <pt x="29" y="459" on="0"/>
        <pt x="72" y="459" on="1"/>
        <pt x="82" y="459" on="0"/>
        <pt x="93" y="387" on="0"/>
        <pt x="98" y="347" on="0"/>
        <pt x="100" y="338" on="1"/>
        <pt x="126" y="385" on="0"/>
        <pt x="203" y="412" on="1"/>
        <pt x="244" y="425" on="0"/>
        <pt x="316" y="425" on="0"/>
        <pt x="371" y="408" on="0"/>
        <pt x="410" y="363" on="0"/>
        <pt x="410" y="326" on="1"/>
        <pt x="436" y="375" on="0"/>
        <pt x="527" y="414" on="1"/>
        <pt x="610" y="451" on="0"/>
        <pt x="676" y="451" on="1"/>
        <pt x="771" y="451" on="0"/>
        <pt x="769" y="379" on="1"/>
        <pt x="790" y="7" on="1"/>
        <pt x="790" y="2" on="0"/>
        <pt x="761" y="0" on="1"/>
        <pt x="705" y="-4" on="0"/>
        <pt x="705" y="10" on="1"/>
        <pt x="704" y="30" on="0"/>
        <pt x="704" y="50" on="1"/>
        <pt x="709" y="211" on="1"/>
        <pt x="709" y="324" on="0"/>
        <pt x="687" y="390" on="1"/>
        <pt x="621" y="385" on="0"/>
        <pt x="550" y="352" on="0"/>
        <pt x="496" y="303" on="0"/>
        <pt x="475" y="262" on="1"/>
        <pt x="428" y="170" on="0"/>
        <pt x="428" y="18" on="1"/>
        <pt x="422" y="-3" on="0"/>
        <pt x="389" y="-3" on="1"/>
        <pt x="367" y="-3" on="0"/>
        <pt x="339" y="12" on="0"/>
        <pt x="342" y="18" on="1"/>
        <pt x="361" y="124" on="0"/>
        <pt x="361" y="183" on="1"/>
        <pt x="361" y="230" on="0"/>
        <pt x="342" y="315" on="0"/>
        <pt x="328" y="370" on="1"/>
        <pt x="184" y="370" on="0"/>
        <pt x="134" y="255" on="1"/>
        <pt x="112" y="204" on="0"/>
        <pt x="107" y="115" on="0"/>
        <pt x="107" y="52" on="0"/>
      </contour>
    </TTGlyph>
    <TTGlyph name="macron" xMin="30" yMin="534" xMax="299" yMax="611">
      <contour>
        <pt x="80" y="534" on="1"/>
        <pt x="30" y="534" on="0"/>
        <pt x="30" y="559" on="1"/>
        <pt x="30" y="573" on="0"/>
        <pt x="53" y="583" on="0"/>
        <pt x="110" y="591" on="0"/>
        <pt x="197" y="606" on="0"/>
        <pt x="245" y="611" on="1"/>
        <pt x="287" y="611" on="0"/>
        <pt x="298" y="588" on="1"/>
        <pt x="299" y="584" on="0"/>
        <pt x="299" y="575" on="0"/>
        <pt x="290" y="560" on="0"/>
        <pt x="272" y="554" on="1"/>
      </contour>
    </TTGlyph>
    <TTGlyph name="minus" xMin="30" yMin="216" xMax="299" yMax="294">
      <contour>
        <pt x="80" y="216" on="1"/>
        <pt x="30" y="216" on="0"/>
        <pt x="30" y="242" on="1"/>
        <pt x="30" y="255" on="0"/>
        <pt x="53" y="265" on="0"/>
        <pt x="110" y="273" on="0"/>
        <pt x="197" y="289" on="0"/>
        <pt x="245" y="294" on="1"/>
        <pt x="265" y="294" on="0"/>
        <pt x="279" y="287" on="1"/>
        <pt x="299" y="277" on="0"/>
        <pt x="299" y="263" on="1"/>
        <pt x="299" y="258" on="0"/>
        <pt x="290" y="242" on="0"/>
        <pt x="272" y="236" on="1"/>
      </contour>
    </TTGlyph>
    <TTGlyph name="mu" xMin="33" yMin="-110" xMax="458" yMax="446">
      <contour>
        <pt x="33" y="226" on="1"/>
        <pt x="33" y="446" on="0"/>
        <pt x="76" y="446" on="1"/>
        <pt x="91" y="446" on="0"/>
        <pt x="113" y="426" on="1"/>
        <pt x="112" y="388" on="0"/>
        <pt x="108" y="357" on="1"/>
        <pt x="101" y="294" on="0"/>
        <pt x="101" y="238" on="0"/>
        <pt x="102" y="199" on="0"/>
        <pt x="110" y="160" on="1"/>
        <pt x="135" y="120" on="0"/>
        <pt x="200" y="93" on="1"/>
        <pt x="247" y="73" on="0"/>
        <pt x="335" y="73" on="0"/>
        <pt x="383" y="110" on="0"/>
        <pt x="390" y="138" on="1"/>
        <pt x="398" y="184" on="0"/>
        <pt x="398" y="212" on="1"/>
        <pt x="398" y="260" on="0"/>
        <pt x="383" y="367" on="0"/>
        <pt x="383" y="394" on="0"/>
        <pt x="384" y="402" on="1"/>
        <pt x="387" y="424" on="0"/>
        <pt x="414" y="430" on="1"/>
        <pt x="437" y="407" on="0"/>
        <pt x="450" y="317" on="1"/>
        <pt x="458" y="258" on="0"/>
        <pt x="458" y="155" on="0"/>
        <pt x="457" y="128" on="1"/>
        <pt x="456" y="-19" on="0"/>
        <pt x="430" y="-26" on="1"/>
        <pt x="427" y="-27" on="0"/>
        <pt x="413" y="-27" on="0"/>
        <pt x="397" y="-18" on="1"/>
        <pt x="394" y="-16" on="0"/>
        <pt x="394" y="3" on="1"/>
        <pt x="394" y="40" on="0"/>
        <pt x="392" y="38" on="1"/>
        <pt x="348" y="3" on="0"/>
        <pt x="285" y="3" on="1"/>
        <pt x="225" y="3" on="0"/>
        <pt x="168" y="29" on="1"/>
        <pt x="117" y="52" on="0"/>
        <pt x="101" y="79" on="1"/>
        <pt x="100" y="68" on="0"/>
        <pt x="100" y="58" on="1"/>
        <pt x="104" y="-30" on="1"/>
        <pt x="104" y="-93" on="0"/>
        <pt x="80" y="-106" on="1"/>
        <pt x="74" y="-110" on="0"/>
        <pt x="54" y="-110" on="0"/>
        <pt x="42" y="-106" on="1"/>
        <pt x="43" y="-101" on="0"/>
        <pt x="43" y="-78" on="0"/>
        <pt x="41" y="-32" on="0"/>
        <pt x="39" y="14" on="1"/>
        <pt x="33" y="154" on="0"/>
      </contour>
    </TTGlyph>
    <TTGlyph name="multiply" xMin="76" yMin="73" xMax="410" yMax="425">
      <contour>
        <pt x="249" y="209" on="1"/>
        <pt x="153" y="94" on="0"/>
        <pt x="130" y="75" on="1"/>
        <pt x="109" y="75" on="0"/>
        <pt x="85" y="93" on="0"/>
        <pt x="82" y="98" on="1"/>
        <pt x="125" y="141" on="0"/>
        <pt x="190" y="224" on="0"/>
        <pt x="198" y="239" on="1"/>
        <pt x="163" y="277" on="0"/>
        <pt x="114" y="333" on="0"/>
        <pt x="76" y="374" on="0"/>
        <pt x="76" y="375" on="1"/>
        <pt x="118" y="421" on="1"/>
        <pt x="151" y="381" on="0"/>
        <pt x="182" y="339" on="0"/>
        <pt x="192" y="326" on="1"/>
        <pt x="209" y="303" on="0"/>
        <pt x="238" y="276" on="1"/>
        <pt x="248" y="289" on="0"/>
        <pt x="272" y="326" on="0"/>
        <pt x="286" y="346" on="1"/>
        <pt x="317" y="392" on="0"/>
        <pt x="344" y="425" on="1"/>
        <pt x="361" y="425" on="0"/>
        <pt x="380" y="402" on="0"/>
        <pt x="380" y="391" on="1"/>
        <pt x="361" y="350" on="0"/>
        <pt x="313" y="289" on="0"/>
        <pt x="292" y="260" on="0"/>
        <pt x="286" y="242" on="1"/>
        <pt x="332" y="209" on="0"/>
        <pt x="390" y="136" on="1"/>
        <pt x="404" y="119" on="0"/>
        <pt x="410" y="110" on="1"/>
        <pt x="410" y="100" on="0"/>
        <pt x="385" y="75" on="0"/>
        <pt x="381" y="73" on="1"/>
        <pt x="367" y="80" on="0"/>
        <pt x="337" y="114" on="0"/>
        <pt x="320" y="134" on="1"/>
        <pt x="277" y="188" on="0"/>
      </contour>
    </TTGlyph>
    <TTGlyph name="n" xMin="34" yMin="-6" xMax="483" yMax="499">
      <contour>
        <pt x="417" y="219" on="1"/>
        <pt x="417" y="338" on="0"/>
        <pt x="404" y="394" on="1"/>
        <pt x="412" y="409" on="0"/>
        <pt x="380" y="409" on="1"/>
        <pt x="346" y="409" on="0"/>
        <pt x="238" y="375" on="0"/>
        <pt x="204" y="358" on="1"/>
        <pt x="123" y="319" on="0"/>
        <pt x="114" y="282" on="1"/>
        <pt x="114" y="10" on="1"/>
        <pt x="47" y="10" on="1"/>
        <pt x="34" y="44" on="0"/>
        <pt x="34" y="201" on="1"/>
        <pt x="34" y="341" on="0"/>
        <pt x="45" y="473" on="0"/>
        <pt x="48" y="482" on="1"/>
        <pt x="74" y="499" on="0"/>
        <pt x="90" y="499" on="1"/>
        <pt x="115" y="499" on="0"/>
        <pt x="115" y="440" on="1"/>
        <pt x="115" y="417" on="0"/>
        <pt x="110" y="374" on="0"/>
        <pt x="110" y="366" on="1"/>
        <pt x="272" y="485" on="0"/>
        <pt x="361" y="485" on="1"/>
        <pt x="462" y="485" on="0"/>
        <pt x="476" y="322" on="1"/>
        <pt x="482" y="265" on="0"/>
        <pt x="482" y="164" on="1"/>
        <pt x="481" y="85" on="1"/>
        <pt x="481" y="41" on="0"/>
        <pt x="483" y="0" on="1"/>
        <pt x="473" y="-6" on="0"/>
        <pt x="467" y="-6" on="1"/>
        <pt x="464" y="-5" on="0"/>
        <pt x="444" y="-1" on="0"/>
        <pt x="428" y="0" on="1"/>
        <pt x="418" y="40" on="0"/>
        <pt x="416" y="123" on="0"/>
        <pt x="416" y="158" on="1"/>
      </contour>
    </TTGlyph>
    <TTGlyph name="nacute" xMin="34" yMin="-6" xMax="483" yMax="624">
      <component glyphName="n" x="0" y="0" flags="0x1204"/>
      <component glyphName="acute" x="171" y="0" flags="0x1004"/>
    </TTGlyph>
    <TTGlyph name="napostrophe" xMin="34" yMin="-6" xMax="483" yMax="781">
      <component glyphName="n" x="0" y="0" flags="0x1204"/>
      <component glyphName="commaaccent" x="-80" y="843" flags="0x1004"/>
    </TTGlyph>
    <TTGlyph name="ncaron" xMin="34" yMin="-6" xMax="483" yMax="640">
      <component glyphName="n" x="0" y="0" flags="0x1204"/>
      <component glyphName="caron" x="104" y="66" flags="0x1004"/>
    </TTGlyph>
    <TTGlyph name="ncommaaccent" xMin="34" yMin="-251" xMax="483" yMax="499">
      <component glyphName="n" x="0" y="0" flags="0x1204"/>
      <component glyphName="commaaccent" x="59" y="0" flags="0x1004"/>
    </TTGlyph>
</ttFont>
